<?xml version="1.0" encoding="UTF-8" standalone="no"?>
<svg
   xmlns:dc="http://purl.org/dc/elements/1.1/"
   xmlns:cc="http://creativecommons.org/ns#"
   xmlns:rdf="http://www.w3.org/1999/02/22-rdf-syntax-ns#"
   xmlns:svg="http://www.w3.org/2000/svg"
   xmlns="http://www.w3.org/2000/svg"
   xmlns:sodipodi="http://sodipodi.sourceforge.net/DTD/sodipodi-0.dtd"
   xmlns:inkscape="http://www.inkscape.org/namespaces/inkscape"
   id="svg"
   version="1.1"
   width="2191.9917"
   height="1716.5643"
   sodipodi:docname="kayu.svg"
   inkscape:export-filename="/home/richie/Pictures/kayu.png"
   inkscape:export-xdpi="96"
   inkscape:export-ydpi="96"
   inkscape:version="0.92.5 (2060ec1f9f, 2020-04-08)">
  <metadata
     id="metadata4998">
    <rdf:RDF>
      <cc:Work
         rdf:about="">
        <dc:format>image/svg+xml</dc:format>
        <dc:type
           rdf:resource="http://purl.org/dc/dcmitype/StillImage" />
        <dc:title></dc:title>
      </cc:Work>
    </rdf:RDF>
  </metadata>
  <defs
     id="defs4996" />
  <sodipodi:namedview
     pagecolor="#ffffff"
     bordercolor="#666666"
     borderopacity="1"
     objecttolerance="10"
     gridtolerance="10"
     guidetolerance="10"
     inkscape:pageopacity="0"
     inkscape:pageshadow="2"
     inkscape:window-width="1366"
     inkscape:window-height="691"
     id="namedview4994"
     showgrid="false"
     fit-margin-top="0"
     fit-margin-left="0"
     fit-margin-right="0"
     fit-margin-bottom="0"
     inkscape:zoom="0.13560952"
     inkscape:cx="1957.3169"
     inkscape:cy="841.15604"
     inkscape:window-x="0"
     inkscape:window-y="0"
     inkscape:window-maximized="1"
     inkscape:current-layer="svg" />
  <g
     id="g5562"
     inkscape:export-xdpi="96"
     inkscape:export-ydpi="96">
    <path
       inkscape:export-ydpi="96"
       inkscape:export-xdpi="96"
       style="fill:#000000;fill-rule:evenodd;stroke:none"
       inkscape:connector-curvature="0"
       id="path4991"
       d="m 10.241733,2.345036 c -5.3619999,0.666 -9.74999992,2.926 -9.74999992,5.024 0,2.94 4.18000002,3.241 18.25399992,1.317 23.88,-3.266 33.568,-8.48200002 14.746,-7.94000002 -7.425,0.214 -17.887,0.93400002 -23.25,1.59900002 m 48.768,7.094 c -14.839,4.871 -34.077,9.69 -42.75,10.709 -15.65799992,1.84 -15.76799992,1.926 -15.76799992,12.323 v 10.471 l 12.56399992,-2.009 c 17.03,-2.723 51.053,-16.658 72.936,-29.873 16.488997,-9.957 17.243997,-10.85300002 9,-10.67300002 -4.95,0.108 -21.142,4.18100002 -35.982,9.05200002 m 61.481997,-1.263 c -7.425,4.261 -18.9,11.449 -25.499997,15.974 -20.611,14.131 -49.263,27.215 -71.562,32.68 l -21.4379999,5.254 -0.922,12.545 c -0.50800002,6.9 -0.35600002,12.546 0.337,12.546 0.693,0 10.9339999,-3.989 22.7569999,-8.865 32.36,-13.344 59.541,-28.832 81.282997,-46.315 10.75,-8.644 24.921,-19.34 31.491,-23.768 10.849,-7.31200002 11.263,-8.04000002 4.5,-7.92500002 -4.095,0.069 -13.521,3.61300002 -20.946,7.87400002 m 37.5,-1.064 c -6.6,3.776 -26.85,17.687 -45,30.915 -49.067997,35.761 -78.282997,54.923 -96.343997,63.191004 -14.1759999,6.491 -16.15599992,8.473 -16.15599992,16.177 0,4.829 1.42400002,8.78 3.16400002,8.78 6.184,0 44.6959999,-17.726 60.3919999,-27.798004 8.769,-5.626 30.738,-24.158 48.818997,-41.182 18.082,-17.024 40.843,-36.818 50.58,-43.986 19.16,-14.10500002 15.565,-18.122 -5.455,-6.097 m 39.236,3.51 c -25.013,10.92 -37.686,19.8 -64.736,45.359 -37.673997,35.598 -65.752997,55.292004 -103.499997,72.595004 l -26.9999999,12.376 -0.924,12.151 -0.92500002,12.151 17.42499992,-7.657 c 24.562,-10.794 52.094,-29.757 83.128997,-57.258 65.733,-58.246004 79.357,-68.004004 121.795,-87.226004 l 28.5,-12.90900002 -15,0.022 c -10.49,0.016 -22.144,3.14100002 -38.764,10.39600002 m 54.367,-0.022 c -47.336,20.773 -75.833,40.952 -129.603,91.776004 -26.999997,25.521 -74.348997,58.191 -99.953997,68.968 -18.9439999,7.972 -20.0969999,9.025 -20.9769999,19.134 -0.51200002,5.883 -0.12800002,10.697 0.854,10.697 3.837,0 52.4599999,-28.782 77.9969999,-46.17 14.807,-10.082 44.540997,-35.205 66.077997,-55.830004 51.429,-49.253 78.995,-68.263 129.002,-88.958 23.134,-9.57400002 23.567,-9.93100002 12,-9.90800002 -7.06,0.014 -21.632,4.25000002 -35.397,10.29100002 m 62.397,1.119 c -35.745,12.035 -55.058,22.004 -94.5,48.781 -23.702,16.092 -50.505,41.746004 -111,106.242004 -26.828997,28.604 -65.934997,60.364 -90.339997,73.372 -16.3549999,8.717 -17.65999992,10.183 -17.65999992,19.842 0,12.485 -1.403,13.008 43.49999992,-16.215 24.216,-15.76 42.147,-31.724 92.999997,-82.8 34.65,-34.801 73.125,-71.094004 85.5,-80.651004 25.003,-19.309 70.658,-42.917 105,-54.294 19.498,-6.46 91.38,-20.328 123,-23.731 5.775,-0.621 -15.15,-1.248 -46.5,-1.39300002 l -57,-0.264 -33,11.11100002 m 226.5,-9.603 c 56.793,8.508 75.224,12.063 102,19.673 31.652,8.997 62.338,21.725 73.5,30.486 9.126,7.163 0.998,5.83 -23.293,-3.819 -39.699,-15.77 -104.143,-31.094 -89.207,-21.212 2.475,1.638 21.06,8.319 41.299,14.848 37.887,12.221 66.769,25.965 138.982,66.136004 30.991,17.239 48.467,24.918 67.968,29.865 73.613,18.674 92.181,19.387 467.25097,17.933 178.2,-0.691 370.575,-1.278 427.5,-1.304 104.671,-0.048 278.167,3.584 281.916,5.901 1.121,0.693 26.236,2.638 55.811,4.324 29.575,1.685 65.586,3.975 80.023,5.089 25.011,1.929 26.25,1.738 26.25,-4.041 0,-5.631 -2.417,-6.182 -33.75,-7.695 -18.562,-0.896 -63.45,-3.675 -99.75,-6.174 -83.769,-5.769 -254.998,-12.169 -261.261,-9.766 -3.449,1.323 -464.224,2.107 -548.739,0.933 -4.95,-0.069 -40.725,0.567 -79.5,1.413 -84.708,1.849 -226.00997,-1.598 -260.07897,-6.345 -31.965,-4.454 -53.583,-10.196 -79.983,-21.243 -25.526,-10.681 -54.163,-26.718004 -51.846,-29.035004 0.909,-0.909 6.259,1.066 11.889,4.389 5.631,3.322 22.974,11.481004 38.541,18.132004 26.292,11.234 48.686,16.435 99.51,23.114 26.299,3.456 499.04597,5.34 889.96797,3.547 69.607,-0.319 154.814,1.167 199.5,3.479 162.672,8.418 175.5,8.249 175.5,-2.311 0,-5.979 13.234,-4.852 -158.778,-13.523 -69.675,-3.512 -154.39,-4.225 -402,-3.384 -306.792,1.043 -464.822,-1.043 -540.222,-7.129 -68.523,-5.531 -151.24497,-15.114004 -170.99997,-19.809004 -30.365,-7.217 -90.948,-28.362 -128.246,-44.762 -13.325,-5.858 -25.028,-10.651 -26.008,-10.651 -0.979,0 -20.564,-8.775 -43.522,-19.5 l -41.74,-19.50000002 -72.992,0.409 c -40.146,0.224 -69.617,0.91400002 -65.492,1.53200002 m 164.691,0.07 c 11.24,2.379 55.995,19.929 96.703,37.92 46.127,20.386 86.83,34.128 113.025,38.157 79.977,12.302 154.30597,21.325 196.06697,23.802004 26.958,1.598 75.339,4.42 107.514,6.272 36.488,2.099 202.425,3.581 441,3.937 210.375,0.314 383.85,1.39 385.5,2.39 1.65,1 17.85,2.696 36,3.769 18.15,1.073 41.538,2.725 51.974,3.672 26.464,2.4 57.526,-1.2 57.526,-6.669 0,-2.643 -3.133,-4.269 -8.25,-4.283 -4.537,-0.012 -46.725,-2.209 -93.75,-4.882 -69.266,-3.937 -150.153,-4.876 -426,-4.947 -346.856,-0.088 -451.989,-2.411004 -560.364,-12.383004 -95.432,-8.78 -201.27397,-26.782 -247.73197,-42.134 -24.658,-8.148 -31.153,-10.899 -75.404,-31.935 -24.884,-11.829 -29.116,-12.889 -54,-13.522 -14.85,-0.37700002 -23.764,-0.001 -19.809,0.836 m 118.809,16.19 c 57.554,19.386 122.535,34.108 203.99997,46.218 121.13,18.007 209.27,20.935 729,24.22 140.25,0.886 279.201,2.905 308.779,4.486 29.579,1.581 69.741,2.875 89.25,2.875 32.793,0 35.471,-0.428 35.471,-5.675 0,-3.4 -2.706,-6.33 -6.75,-7.311 -3.712,-0.9 -40.5,-2.506 -81.75,-3.57 -41.25,-1.063 -93.225,-3.626 -115.5,-5.694 -44.601,-4.141 -164.416,-3.603 -240,1.078 -25.575,1.584 -82.95,2.241 -127.5,1.461 -44.55,-0.781 -166.545,-2.787 -271.101,-4.458 -201.8,-3.226 -223.042,-4.399 -298.753,-16.499 -122.40197,-19.56 -131.70497,-21.532 -214.64597,-45.5 -14.025,-4.052 -34.275,-7.92 -45,-8.594 -19.043,-1.19700002 -18.235,-0.79900002 34.5,16.963 m 43.5,-13.726 c 10.725,2.151 27.638,6.663 37.584,10.026 9.946,3.362 32.221,8.999 49.5,12.525 74.23197,15.15 71.56397,15.075 572.91597,16.177 531.667,1.169 663,-1.043 663,-11.169 0,-2.698 -134.634,-3.634 -569.25,-3.956 -627.51997,-0.466 -607.577,0.086 -696.72197,-19.284 -22.26,-4.837 -48.585,-8.66700002 -58.5,-8.51200002 l -18.028,0.282 19.5,3.91100002 m 91.5,-1.649 c -17.591,2.617 -17.551,2.624 33,6.264 112.62997,8.111 161.58997,8.924 542.99997,9.018 452.708,0.112 627.602,-1.107 644.25,-4.49 6.188,-1.257 11.25,-3.574 11.25,-5.149 0,-1.797 -14.807,-1.952 -39.75,-0.417 -64.644,3.979 -1046.21,2.499 -1095.75,-1.652 -64.73197,-5.424 -79.79297,-5.98400002 -95.99997,-3.574 m -558,16.511 c -59.148,11.472 -107.609,27.862 -132,44.645 -25.844,17.782 -59.131,47.513004 -105,93.780004 -70.636997,71.251 -100.318997,98.359 -134.272997,122.632 -24.9729999,17.853 -29.22699992,22.111 -29.22699992,29.25 0,4.596 1.45800002,8.356 3.24100002,8.356 5.733,0 56.1219999,-36.073 81.5709999,-58.397 13.578,-11.911 52.362997,-49.314 86.187997,-83.119 66.43,-66.391 92.988,-88.107004 130.856,-107.002004 48.109,-24.005 91.222,-33.449 152.787,-33.47 67.239,-0.022 149.962,22.489 224.055,60.973 25.959,13.483004 47.224,25.865004 47.256,27.515004 0.073,3.779 22.976,19.192 46.708,31.433 17.992,9.279 93.17,26.489 137.838,31.552 14.73,1.67 63.287,8.899 139.49997,20.769 25.769,4.013 345.618,7.884 405,4.901 204.266,-10.26 540.656,-13.563 636,-6.244 84.527,6.488 99,7.056 99,3.886 0,-7.215 -77.855,-11.939 -270,-16.384 -83.325,-1.928 -196.725,-3.568 -252,-3.644 -92.38,-0.129 -136.88,1.312 -321,10.392 -66.288,3.269 -207.743,1.553 -257.605,-3.124 -28.304,-2.655 -90.39497,-15.054 -90.39497,-18.051 0,-1.795 44.44397,0.758 109.49997,6.291 51.332,4.366 220.891,4.351 280.966,-0.024 71.499,-5.207 469.889,-7.455 597.433,-3.371 61.381,1.965 132.189,3.808 157.353,4.095 41.773,0.478 45.751,0.066 45.75,-4.727 0,-4.574 -3.191,-5.253 -24.752,-5.276 -13.612,-0.014 -39.6,-1.317 -57.75,-2.895 -76.06,-6.614 -216.85,-13.488 -268.5,-13.11 -30.525,0.224 -169.652,0.981 -309.171,1.684 -139.519,0.702 -255.192,2.217 -257.051,3.366 -4.02,2.484 -229.915,2.822 -276.11697,0.412 -76.199,-3.973 -129.686,-11.643 -164.374,-23.571 -11.433,-3.931 -56.764,-24.724 -100.737,-46.206004 -43.972,-21.482 -83.122,-40.018 -87,-41.19 -3.877,-1.172 -11.1,-3.858 -16.05,-5.969 -19.229,-8.2 -36.268,-14.018 -67.028,-22.886 -29.357,-8.464 -36.388,-9.305 -85.972,-10.281 -37.224,-0.733 -60.524,0.202 -75,3.009 m -28.5,37.336 c -63.964,15.251 -89.48,34.643 -223.5,169.851004 l -83.999997,84.745 -32.25,15.905 c -17.737,8.748 -32.24999992,17.687 -32.24999992,19.866 0,5.579 3.83300002,5.018 25.83299992,-3.784 59.117,-23.65 152.816997,-99.679 191.824997,-155.647 25.511,-36.604 68.499,-75.493 102.42,-92.654004 24.012,-12.149 61.83,-21.864 101.422,-26.056 33.801,-3.579 38.107,-3.404 70.5,2.87 29.493,5.712 76.765,18.911 109.5,30.573004 34.83,12.408 57.474,21.491 80.428,32.259 14.535,6.82 26.855,12.399 27.378,12.399 0.522,0 16.98,8.858 36.572,19.684 63.62,35.154 89.853,45.37 142.122,55.345 24.071,4.594 92.748,11.551 132.23997,13.397 188.329,8.799 258.325,8.763 427.26,-0.223 112.695,-5.995 420.407,-8.329 480,-3.642 24.75,1.947 78.075,3.754 118.5,4.016 40.836,0.265 81.499,2.013 91.5,3.933 26.033,4.998 52.5,4.609 52.5,-0.771 0,-3.071 -5.659,-4.8 -20.25,-6.188 -11.137,-1.06 -30.375,-3.272 -42.75,-4.916 -77.212,-10.255 -510.043,-10.759 -631.5,-0.735 -62.933,5.193 -372.209,2.726 -424.5,-3.387 -7.425,-0.868 -34.425,-3.627 -60,-6.131 -64.17597,-6.284 -78.34297,-8.653 -134.99997,-22.572 -54.355,-13.354 -96.84,-26.994 -113.635,-36.484 -47.801,-27.008 -83.89,-45.035 -106.865,-53.378 -9.9,-3.595 -26.775,-9.844004 -37.5,-13.887004 -34.451,-12.986 -94.392,-30.509 -117.272,-34.284 -37.867,-6.246 -102.746,-6.299 -128.728,-0.104 m 708.97997,-3.693 c 5.502,5.502 265.103,9.89 668.884,11.307 153.8,0.539 315.749,2.03 359.886,3.311 70.444,2.046 80.25,1.78 80.25,-2.179 0,-6.758 -97.877,-9.122 -414,-9.999 -147.675,-0.41 -365.002,-1.662 -482.949,-2.782 -117.948,-1.12 -213.379,-0.966 -212.071,0.342 m -684.97997,39.879 c -44.946,8.524004 -84.14,32.206004 -116.441,70.356004 -15.926,18.811 -22.833,31.844 -34.084,64.313 -11.109,32.061 -16.614,42.741 -33.855,65.677 -14.594,19.414 -41.551,39.554 -68.916,51.488 -19.296,8.415 -73.181997,22.362 -111.953997,28.977 -36.4959999,6.227 -41.1879999,11.748 -7.5,8.824 37.825,-3.283 91.951997,-15.076 116.249997,-25.328 3.3,-1.392 12.75,-4.926 21,-7.853 46.648,-16.548 84.057,-50.42 100.681,-91.161 19.297,-47.294 30.478,-66.777 49.068,-85.506 35.882,-36.149 68.234,-52.96 115.751,-60.146 52.033,-7.868 79.734,-4.249 140.346,18.338 56.795,21.165 97.419,43.02 161.154,86.698 19.8,13.569 45.551,29.473 57.225,35.341 28.902,14.529 73.79,28.727 102.228,32.335 58.559,7.429 337.18097,6.071 659.07897,-3.213 235.423,-6.791 553.281,-4.311 628.218,4.901 10.262,1.261 15.75,0.834 15.75,-1.226 0,-1.781 -10.158,-3.992 -23.25,-5.062 -12.787,-1.045 -34.725,-3.366 -48.75,-5.157 -31.91,-4.077 -442.423,-5.917 -537,-2.408 -78.37,2.908 -411.981,8.807 -547.5,9.681 -85.05697,0.549 -96.33097,0.015 -131.99997,-6.248 -64.055,-11.248 -95.742,-25.323 -153,-67.959 -59.215,-44.093 -114.246,-71.32 -196.5,-97.222 -49.623,-15.626004 -124.296,-24.453004 -156,-18.440004 m -102.303,35.736004 c -23.304,17.717 -47.117,42.882 -84.821,89.636 -9.639,11.951 -29.191,32.805 -43.45,46.34 -28.614,27.161 -27.745,27.522 5.576,2.318 24.288,-18.371 47.235,-43.151 70.691,-76.34 14.477,-20.483 48.562,-56.453 66.038,-69.691 4.823,-3.653 7.958,-6.691 6.966,-6.75 -0.991,-0.059 -10.441,6.46 -21,14.487 m 117.187,3.126 c -32.674,9.579 -35.737,11.027 -64.384,30.431 -21.725,14.715 -33.341,25.837 -48.289,46.236 -7.624,10.406 -5.571,9.224 16.458,-9.467 13.843,-11.746 28.693,-23.096 33,-25.222 4.307,-2.127 15.343,-8.274 24.523,-13.661 9.181,-5.387 29.254,-13.398 44.606,-17.802 25.684,-7.367 30.94,-7.875 65.808,-6.362 31.83,1.381 43.407,3.33 72.347,12.182 18.949,5.796 34.905,10.086 35.459,9.532 2.389,-2.389 -39.135,-20.044 -63.498,-26.999 -37.793,-10.788 -76.665,-10.409 -116.03,1.132 m -294.72,7.828 c -30.250997,28.376 -65.376997,52.324 -101.913997,69.483 -12.4419999,5.843 -14.24999992,7.858 -14.24999992,15.881 v 9.188 l 14.24999992,-7.252 c 33.218,-16.906 85.787997,-58.424 108.840997,-85.958 15.497,-18.51 12.081,-19.172 -6.927,-1.342 m 652.073,-3.111 c 45.185,15.728 113.91,29.851 175.263,36.017 16.613,1.67 56.78697,13.258 54.364,15.681 -2.781,2.781 -149.413,-18.689 -181.864,-26.629 -20.967,-5.13 -88.273,-34.828 -80.125,-35.354 1.306,-0.084 15.869,4.544 32.362,10.285 m -108.237,-3.2 c 0,0.654 7.088,5.198 15.75,10.097 8.663,4.899 31.275,20.246 50.25,34.104 80.188,58.564 108.954,73.684 157.5,82.784 29.577,5.544 185.94797,9.346 242.80297,5.903 21.559,-1.305 113.447,-2.37 204.197,-2.367 99.035,0.004 203.38,-1.747 261,-4.378 60.7,-2.772 162.739,-4.353 277.5,-4.299 197.77,0.094 215.464,0.595 276.84,7.851 37.263,4.405 48.355,4.262 43.533,-0.56 -3.795,-3.795 -140.152,-13.617 -228.873,-16.488 -52.8,-1.708 -109.334,-4.579 -125.632,-6.379 -17.609,-1.946 -43.749,-2.405 -64.425,-1.132 -19.137,1.178 -67.227,2.591 -106.868,3.139 -39.641,0.547 -88.275,2.399 -108.075,4.114 -36.321,3.147 -427.948,8.468 -528,7.175 -86.19097,-1.114 -120.14197,-6.839 -191.20897,-32.244 -38.456,-13.747 -85.367,-37.759 -139.103,-71.204 -11.746,-7.31 -37.188,-18.336 -37.188,-16.116 m -231,20.961 c -45.472,10.92 -92.602,37.594 -123.224,69.743 -19.421,20.388 -41.666,53.113 -62.977,92.645 -34.24,63.516 -37.442,85.366 -18.127,123.73 15.477,30.74 34.638,56.269 56.19,74.863 82.332,71.03 93.932,79.592 124.138,91.619 86.413,34.409 128.24,33.904 184.5,-2.228 43.651,-28.034 122.381,-128.194 142.809,-181.68 40.026,-104.801 40.702,-125.808 5.413,-168.158 -20.204,-24.246 -89.22,-65.092 -136.658,-80.878 -61.299,-20.399 -134.26,-28.734 -172.064,-19.656 m 93.344,12.341 c 27.247,4.766 65.144,16.174 100.156,30.15 37.753,15.069 59.841,31.456 85.733,63.606 28.062,34.842 34.829,66.102 25.482,117.704 -10.6,58.517 -48.287,120.904 -112.073,185.522 -27.57,27.93 -39.384,37.663 -54.829,45.174 -24.881,12.099 -54.581,19.159 -70.305,16.712 -25.013,-3.892 -77.108,-19.774 -98.139,-29.918 -23.234,-11.208 -24.24,-12.173 -56.298,-53.99 -11.384,-14.85 -30.989,-38.475 -43.567,-52.5 -16.017,-17.859 -27.085,-33.953 -36.937,-53.708 -15.098,-30.274 -15.136,-30.541 -12.111,-84.292 0.975,-17.342 3.208,-23.317 20.173,-54 18.176,-32.873 39.525,-62.865 54.824,-77.019 13.546,-12.532 60.889,-40.204 76.594,-44.769 16.372,-4.759 66.496,-12.367 84.953,-12.893 5.775,-0.165 22.13,1.735 36.344,4.221 m -78.344,23.94 c -54.565,10.959 -89.772,36.785 -120.462,88.363 -8.396,14.112 -20.311,31.057 -26.477,37.657 -15.385,16.467 -29.71,44.244 -34.591,67.07 -3.7,17.308 -3.551,20.773 1.619,37.5 11.471,37.116 31.836,61.018 72.447,85.03 20.794,12.294 26.205,17.272 36.996,34.035 19.893,30.901 39.543,44.813 82.468,58.384 35.046,11.08 77.657,11.684 102,1.445 35.349,-14.869 57.748,-38.419 78.43,-82.464 8.658,-18.439 11.21,-22.198 44.203,-65.113 32.227,-41.918 44.598,-76.904 41.047,-116.085 -3.734,-41.213 -19.685,-64.464 -64.68,-94.283 -47.042,-31.176 -122.901,-56.254 -168.599,-55.737 -13.696,0.155 -33.676,2.044 -44.401,4.198 m 72.097,7.396 c 31.257,6.059 50.826,12.766 97.495,33.418 43.402,19.205 80.105,51.046 88.635,76.894 10.477,31.746 -12.505,100.864 -48.874,146.987 -8.815,11.179 -21.239,28.425 -27.61,38.325 -6.371,9.9 -15.444,23.777 -20.163,30.838 -4.719,7.06 -8.58,14.012 -8.58,15.449 0,4.462 -31.873,31.995 -43.334,37.433 -14.271,6.772 -41.482,13.778 -53.562,13.789 -5.282,0.006 -24.828,-4.274 -43.436,-9.51 -31.474,-8.856 -34.873,-10.561 -48.785,-24.473 -8.225,-8.225 -14.376,-15.533 -13.669,-16.24 0.707,-0.707 10.243,4.116 21.19,10.719 22.894,13.808 49.2,19.792 87.096,19.813 22.079,0.012 26.161,-1.016 51,-12.843 25.64,-12.207 43.5,-25.141 43.5,-31.501 0,-1.597 -2.362,-0.82 -5.25,1.728 -6.774,5.976 -43.751,24.324 -59.25,29.399 -14.113,4.621 -53.089,4.415 -76.5,-0.405 -25.976,-5.349 -57.776,-23.091 -87,-48.542 -7.425,-6.466 -17.521,-13.84 -22.435,-16.387 -13.5,-6.995 -49.378,-38.099 -57.164,-49.557 -10.487,-15.433 -14.34,-33.791 -12.283,-58.513 2.085,-25.056 8.108,-38.396 26.048,-57.697 16.19,-17.417 28.486,-35.359 35.586,-51.922 7.014,-16.362 32.47,-42.816 55.179,-57.344 18.684,-11.952 54.863,-22.501 86.713,-25.285 2.829,-0.247 18.783,2.195 35.453,5.427 m 185.903,15.018 c 0,1.709 1.244,3.106 2.764,3.106 1.52,0 11.982,8.438 23.25,18.75 44.282,40.529 86.838,58.733 170.486,72.93 11.323,1.921 10.138,2.455 -21,9.461 -52.287,11.765 -95.689,35.236 -114.785,62.075 -7.23,10.16 -25.677,52.822 -23.697,54.802 0.62,0.62 9.482,-11.67 19.692,-27.311 29.913,-45.824 51.136,-61.545 103.541,-76.702 53.621,-15.509 122.021,-19.931 349.74897,-22.611 83.325,-0.98 185.925,-3.106 228,-4.725 174.445,-6.71 565.546,-9.43 652.5,-4.539 76.951,4.329 98.949,4.863 93,2.257 -19.964,-8.744 -111.498,-12.366 -358.5,-14.188 -179.406,-1.323 -243.342,-0.742 -307.5,2.795 -44.55,2.455 -139.05,4.673 -210,4.927 -70.95,0.254 -174.9,1.566 -231,2.915 -126.19997,3.035 -165.53497,0.678 -222.00197,-13.304 -45.223,-11.198 -83.797,-28.192 -122.886,-54.139 -27.284,-18.11 -31.612,-20.369 -31.612,-16.499 m -254.206,10.521 c -46.311,13.09 -69.287,34.522 -123.592,115.285 -22.767,33.859 -26.807,47.5 -21.573,72.842 4.874,23.598 11.41,36.34 29.464,57.448 22.557,26.371 56.63,49.29 96.907,65.183 38.479,15.183 105.007,9.492 147.504,-12.618 31.751,-16.519 47.114,-32.857 65.602,-69.766 8.345,-16.659 19.13,-37.804 23.967,-46.989 16.585,-31.49 17.106,-73.175 1.202,-96.125 -17.368,-25.061 -67.742,-57.992 -116.269,-76.007 -35.515,-13.184 -76.351,-16.845 -103.212,-9.253 m -233.362,18.752 c -15.285,28.771 -52.024,59.188 -104.932,86.874 -18.007997,9.423 -64.653997,24.49 -88.452997,28.571 -22.30599992,3.825 -30.0089999,10.289 -8.297,6.962 113.438997,-17.384 195.205997,-66.147 207.626997,-123.824 2.72,-12.631 1.344,-12.303 -5.945,1.417 m 327.068,0.351 c 36.469,14.589 54.082,28.172 69.312,53.455 7.114,11.811 13.797,24.908 14.85,29.106 2.561,10.201 -5.943,34.944 -19.339,56.269 -5.953,9.476 -16.155,25.762 -22.672,36.191 -13.505,21.61 -40.134,50.798 -54.376,59.6 -16.052,9.921 -37.403,14.794 -64.964,14.829 -24.88,0.03 -50.311,-5.986 -50.311,-11.904 0,-1.256 5.764,-2.933 12.808,-3.727 14.224,-1.604 24.984,-6.362 71.443,-31.593 58.661,-31.859 94.907,-59.305 111.806,-84.662 8.438,-12.662 6.366,-32.634 -5.644,-54.398 -5.822,-10.551 -11.918,-22.559 -13.546,-26.684 -3.888,-9.855 -18.363,-19.462 -45.377,-30.119 -25.468,-10.046 -34.338,-10.682 -56.646,-4.057 -34.156,10.144 -105.639,50.958 -132.563,75.689 -15.311,14.065 -11.018,4.952 12.602,-26.747 22.342,-29.983 33.05,-39.79 57.117,-52.308 16.701,-8.687 26.463,-10.208 60,-9.348 27.329,0.701 34.678,2.079 55.5,10.408 m -496.885997,10.821 c -7.637,5.605 -20.8,13.695 -29.25,17.977 -10.8469999,5.496 -15.36399992,9.567 -15.36399992,13.846 0,5.423 1.81800002,4.823 17.24999992,-5.686 16.502,-11.239 45.889,-36.177 42.75,-36.279 -0.825,-0.026 -7.749,4.538 -15.386,10.142 m 507.316997,8.657 c 13.807,7.824 29.527,22.493 34.715,32.393 14.519,27.704 17.705,60.016 7.103,72.029 -5.405,6.123 -5.952,6.269 -4.043,1.082 5.477,-14.88 4.717,-26.042 -3.114,-45.732 -18.423,-46.328 -35.397,-61.559 -69.092,-61.999 -21.929,-0.287 -47.487,10.977 -93.434,41.177 -52.853,34.738 -73.066,57.86 -73.066,83.578 0,5.847 3.841,18.246 8.536,27.553 14.087,27.928 3.568,19.066 -16.923,-14.256 -5.623,-9.143 -2.273,-32.962 6.817,-48.473 9.444,-16.115 25.814,-32.134 43.57,-42.637 7.425,-4.392 23.39,-14.587 35.478,-22.655 25.142,-16.782 45.538,-24.734 72.894,-28.42 23.405,-3.153 36.731,-1.477 50.559,6.36 m -17.274,14.136 c 16.441,4.566 27.759,15.643 38.49,37.671 9.972,20.467 12.09,38.095 5.79,48.182 -3.552,5.689 -24.724,22.015 -28.548,22.015 -1.184,0 3.419,-6.045 10.229,-13.433 10.265,-11.136 12.382,-15.513 12.382,-25.596 0,-15.477 -5.647,-28.943 -18.07,-43.092 -23.91,-27.232 -44.617,-26.325 -105.966,4.644 -16.115,8.135 -41.419,30.825 -63.067,56.552 -16.513,19.624 -7.921,53.909 18.426,73.531 12.215,9.097 15.838,10.34 26.177,8.981 7.849,-1.031 10.444,-0.639 7.5,1.133 -2.475,1.491 -10.821,3.653 -18.547,4.805 -13.737,2.049 -14.388,1.776 -29.534,-12.391 -16.142,-15.099 -24.725,-28.862 -28.285,-45.357 -1.569,-7.269 -0.226,-13.704 5.321,-25.5 12.465,-26.504 31.752,-44.04 77.045,-70.047 41.514,-23.837 64.351,-29.404 90.657,-22.098 m 87.862,5.889 c 5.923,6.545 11.297,15.255 16.644,26.979 8.421,18.46 -5.612,71.963 -29.684,113.18 -20.952,35.875 -67.741,78.701 -95.835,87.717 -22.891,7.347 -67.176,13.234 -80.602,10.715 -36.087,-6.77 -74.976,-35.059 -104.293,-75.867 -15.705,-21.86 -13.145,-22.415 5.968,-1.295 14.734,16.282 21.919,21.056 60.599,40.261 l 43.883,21.789 30.15,-0.14 c 32.033,-0.148 48.66,-5.277 74.893,-23.103 22.049,-14.983 47.903,-48.876 69.483,-91.09 19.202,-37.561 20.765,-42.039 20.639,-59.152 -0.134,-18.423 -7.253,-37.768 -18.678,-50.765 -2.539,-2.887 -3.266,-5.25 -1.616,-5.25 1.65,0 5.452,2.709 8.449,6.021 m 145.481,5.979 c 0,1.65 2.363,3.013 5.25,3.028 6.475,0.035 36.75,17.104 36.75,20.72 0,1.445 -6.49,6.791 -14.423,11.882 -14.178,9.097 -30.737,24.37 -26.424,24.37 1.209,0 7.182,-3.847 13.273,-8.55 12.573,-9.707 31.787,-17.076 51.574,-19.78 7.425,-1.015 15.487,-3.083 17.916,-4.596 5.04,-3.14 7.338,-2.099 -23.916,-10.842 -10.725,-3 -27.236,-8.555 -36.69,-12.344 -19.019,-7.621 -23.31,-8.336 -23.31,-3.888 m -241.222,7.833 c 13.965,6.627 27.302,22.609 31.32,37.53 6.883,25.564 -4.5,40.615 -39.545,52.286 -15.354,5.113 -33.875,14.569 -50.377,25.719 -31.002,20.947 -40.32,22.302 -60.437,8.791 -10.961,-7.361 -13.203,-10.5 -13.396,-18.75 -0.127,-5.45 -1.282,-13.538 -2.566,-17.974 -2.109,-7.286 0.084,-10.516 22.694,-33.43 26.123,-26.473 34.38,-32.049 56.122,-37.899 7.201,-1.937 19.351,-7.453 27,-12.257 16.357,-10.274 16.078,-10.235 29.185,-4.016 m 1179.94297,11.379 c -0.672,0.634 -58.596,2.159 -128.721,3.388 -70.125,1.229 -138.975,2.689 -153,3.245 -14.025,0.557 -80.85,1.73 -148.5,2.607 -67.65,0.878 -145.275,2.134 -172.5,2.792 -27.225,0.658 -71.775,1.476 -99,1.819 -87.25697,1.099 -158.09097,19.518 -198.95797,51.737 -12.548,9.893 -41.224,44.705 -88.304,107.2 -97.765,129.775 -130.888,157.02 -199.064,163.738 -22.581,2.225 -73.474,-2.792 -98.674,-9.728 -20.2,-5.559 -28.377,-10.384 -71.187,-42.001 -37.91,-27.999 -68.219,-57.459 -100.84,-98.018 -27.49,-34.178 -43.335,-48.663 -63.113,-57.694 -31.888,-14.562 -47.615,-17.029 -118.109997,-18.528 -59.9229999,-1.275 -66.74999992,-0.926 -66.74999992,3.405 0,4.006 3.82700002,4.826 22.51999992,4.826 31.081,0 78.511997,7.558 101.329997,16.147 43.32,16.305 62.377,30.93 91.907,70.529 27.501,36.878 45.874,58.379 73.687,86.233 43.646,43.71 69.544,55.398 139.556,62.983 101.899,11.04 148.108,-2.196 201.495,-57.718 18.777,-19.528 45.494,-51.179 73.005,-86.489 62.689,-80.459 119.729,-125.123 188.001,-147.208 76.213,-24.654 111.45897,-28.511 303.99897,-33.271 85.052,-2.102 211.792,-7.088 261,-10.267 59.984,-3.875 377.347,-8.616 499.5,-7.462 105.364,0.996 152.945,2.916 190.5,7.687 13.2,1.677 28.388,3.591 33.75,4.254 8.566,1.059 9.75,0.352 9.75,-5.818 0,-6.786 -1.038,-7.085 -30.75,-8.885 -16.912,-1.024 -43.893,-2.413 -59.958,-3.086 -16.064,-0.672 -30.822,-2.22 -32.795,-3.44 -3.594,-2.221 -357.477,-5.149 -359.776,-2.977 m -1250.72097,19.583 c -5.775,3.241 -17.25,11.07 -25.5,17.399 -19.03,14.598 -21.556,26.662 -8.467,40.433 14.827,15.6 22.697,18.205 37.607,12.445 15.015,-5.801 60.757,-49.158 65.148,-61.752 3.885,-11.146 0.909,-12.431 -31.288,-13.511 -22.393,-0.751 -28.792,0.099 -37.5,4.986 m 208.852,14.524 c 4.568,24.354 -0.27,42.999 -21.638,83.387 -23.375,44.183 -32.901,55.905 -59.039,72.653 -17.729,11.36 -57.847,26.969 -61.06,23.756 -0.826,-0.826 4.998,-4.677 12.942,-8.558 22.337,-10.914 66.172,-56.253 83.075,-85.927 14.763,-25.916 34.798,-82.035 34.963,-97.933 0.091,-8.699 0.332,-8.884 4.462,-3.426 2.402,3.174 5.234,10.396 6.295,16.048 m 1229.64797,-7.782 c -19.8,1.526 -61.65,2.076 -93,1.222 -31.35,-0.855 -96.825,-0.265 -145.5,1.309 -169.329,5.478 -265.685,8.857 -295.5,10.363 -16.5,0.834 -70.5,2.929 -120,4.656 -264.55597,9.231 -307.30997,13.889 -370.49997,40.358 -43.854,18.369 -96.903,58.255 -133.743,100.555 -6.466,7.425 -12.432,14.175 -13.257,15 -0.825,0.825 -6.155,8.25 -11.846,16.5 -5.69,8.25 -11.256,15.675 -12.37,16.5 -1.113,0.825 -9.436,12.975 -18.494,27 -22.71,35.162 -54.856,71.364 -72.79,81.973 -34.367,20.332 -91.044,35.027 -135.095,35.027 -24.463,0 -82.665,-9.182 -105.141,-16.586 -8.12,-2.675 -26.219,-10.5 -40.219,-17.389 -30.376,-14.947 -51.006,-34.254 -95.123,-89.025 -35.005,-43.458 -39.584,-47.927 -70.341,-68.641 -43.891,-29.559 -76.925997,-40.713 -131.096997,-44.263 -26.2629999,-1.721 -30.48399992,-1.361 -30.48399992,2.603 0,5.636 8.80900002,8.206 28.30899992,8.26 31.554,0.087 93.241997,23.716 129.180997,49.483 27.51,19.722 51.527,44.567 80.385,83.157 27.088,36.223 40.821,49.511 66.625,64.464 62.196,36.041 167.162,47.969 247.5,28.126 55.617,-13.738 86.978,-37.683 131.876,-100.689 36.817,-51.668 87.918,-111.055 112.297,-130.508 38.141,-30.436 91.067,-57.333 130.424,-66.284 57.432,-13.061 102.95797,-16.617 264.40297,-20.655 63.525,-1.589 153.3,-4.937 199.5,-7.44 176.086,-9.538 255.752,-11.512 374.558,-9.279 64.593,1.213 155.917,2.714 202.942,3.335 84.684,1.118 180.257,5.332 207.75,9.162 13.63,1.898 14.25,1.668 14.25,-5.294 0,-6.845 -1.564,-7.518 -26.25,-11.287 -14.437,-2.205 -33,-5.734 -41.25,-7.843 -19.385,-4.957 -178.81,-7.663 -228,-3.87 m -1390.66697,3.762 c 2.797,3.37 2.526,5.891 -1.254,11.659 -4.682,7.146 -31.075,28.35 -43.693,35.103 -6.51,3.484 -23.886,1.288 -23.886,-3.019 0,-1.364 2.363,-1.97 5.25,-1.345 7.076,1.53 43.97,-20.169 45.206,-26.588 1.33,-6.906 -5.56,-6.521 -23.811,1.33 -11.762,5.06 -15.736,5.654 -18.556,2.776 -2.799,-2.856 -1.607,-5.31 5.411,-11.144 12.607,-10.478 18.778,-12.663 36.383,-12.881 9.891,-0.122 16.656,1.345 18.95,4.109 m -299.833,10.768 c 0,1.687 -5.507,9.041 -12.237,16.342 -13.565,14.716 -26.527,20.431 -58.263,25.686 -36.309997,6.012 -37.383997,6.943 -10.5,9.102 40.76,3.274 56.834,9.296 74.839,28.04 10.298,10.721 18.161,13.883 18.161,7.303 0,-1.903 -6.75,-10.597 -15,-19.321 -8.25,-8.723 -15,-18.185 -15,-21.027 0,-2.842 3.954,-11.36 8.788,-18.929 8.558,-13.404 14.707,-30.263 11.037,-30.263 -1.004,0 -1.825,1.38 -1.825,3.067 m 39.836,18.683 c -4.028,32.333 -2.545,44.645 7.843,65.087 12.037,23.688 28.782,48.212 46.214,67.685 20.731,23.159 47.762,58.478 44.753,58.478 -4.004,0 -63.514,-61.933 -77.871,-81.043 -30.071,-40.027 -41.304,-85.572 -28.334,-114.892 3.422,-7.736 7.011,-14.065 7.976,-14.065 0.966,0 0.704,8.438 -0.581,18.75 m 1398.66397,-13.704 c -6.6,0.485 -32.25,2.914 -57,5.397 -24.75,2.483 -76.651,5.958 -115.335,7.72 -38.684,1.763 -71.221,3.753 -72.304,4.423 -3.878,2.396 -83.567,7.135 -149.861,8.911 -95.799,2.567 -189.086,8.162 -253.49997,15.205 -57.856,6.326 -94.335,17.833 -131.112,41.36 -18.839,12.051 -86.971,82.769 -130.486,135.438 -38.582,46.7 -66.445,69.388 -110.402,89.898 -6.6,3.08 -18.75,8.792 -27,12.694 l -15,7.094 12,-1.235 c 18.641,-1.918 57.859,-18.36 82.574,-34.618 29.375,-19.323 49.639,-39.395 100.287,-99.333 23.005,-27.225 45.273,-52.566 49.483,-56.313 39.454,-35.113 84.371,-59.194 135.156,-72.46 40.80797,-10.66 70.56997,-14.53 127.49997,-16.58 23.1,-0.832 50.775,-2.304 61.5,-3.272 10.725,-0.969 49.2,-2.111 85.5,-2.54 62.488,-0.737 152.632,-6.337 219,-13.604 112.121,-12.276 271.191,-16.96 415.5,-12.235 42.075,1.378 103.5,3.361 136.5,4.408 52.823,1.674 75.008,3.51 148.847,12.318 10.391,1.239 17.57,0.84 18.733,-1.042 2.637,-4.268 -2.51,-5.761 -37.707,-10.939 -52.398,-7.708 -104.164,-10.686 -215.116,-12.376 -58.717,-0.893 -119.582,-2.938 -135.257,-4.543 -28.916,-2.96 -120.558,-5.389 -142.5,-3.776 m -1322.45097,19.517 c -0.957,2.393 -1.668,1.682 -1.812,-1.813 -0.13,-3.162 0.579,-4.934 1.576,-3.937 0.996,0.996 1.103,3.584 0.236,5.75 m 1340.45097,9.985 c -112.006,6.318 -163.094,9.999 -228,16.428 -33,3.269 -68.775,5.988 -79.5,6.042 -10.725,0.055 -34.35,2.155 -52.5,4.668 -60.329,8.353 -86.263,10.08 -180,11.984 -95.13,1.933 -145.35797,6.24 -169.79197,14.56 -19.347,6.589 -60.15,28.351 -76.495,40.8 -30.538,23.257 -60.744,50.05 -79.138,70.195 -31.181,34.149 -92.58,94.637 -118.575,116.816 -42.897,36.599 -97.498,56.759 -175.5,64.799 -54.064,5.573 -138.57,-11.745 -193.742,-39.702 -26.407,-13.382 -59.334,-47.292 -74.602,-76.831 -7.88,-15.246 -36.856,-53.537 -50.622,-66.897 -31.318,-30.393 -103.196997,-59.533 -164.783997,-66.805 -16.1049999,-1.902 -17.24999992,-1.624 -17.24999992,4.179 0,5.139 1.87500002,6.216 10.81699992,6.216 24.43,0 65.668,15.341 94.375997,35.108 19.148,13.185 48.405,44.101 66.955,70.751 36.059,51.805 56.135,69.837 116.113,104.291 57.425,32.987 100.352,45.238 173.739,49.581 41.193,2.437 98.543,-6.818 145.5,-23.48 42.214,-14.98 108.362,-59.773 166.018,-112.421 45.333,-41.395 51.465,-46.641 77.25,-66.075 59.086,-44.533 139.13,-73.661 233.21197,-84.865 28.336,-3.374 68.395,-8.701 89.02,-11.837 20.625,-3.135 50.325,-7.227 66,-9.093 15.675,-1.866 46.05,-6.167 67.5,-9.559 27.735,-4.386 62.83,-6.84 121.5,-8.497 45.375,-1.282 86.55,-3.129 91.5,-4.105 4.95,-0.976 31.275,-5.126 58.5,-9.222 73.516,-11.061 138.444,-14.529 228.929,-12.228 43.214,1.099 138.646,2.54 212.071,3.202 73.425,0.663 141.938,1.779 152.25,2.481 16.82,1.146 18.75,0.695 18.75,-4.377 0,-3.11 -1.012,-5.359 -2.25,-4.997 -1.237,0.361 -17.935,-1.187 -37.106,-3.442 -23.407,-2.753 -52.733,-3.586 -89.286,-2.538 -29.937,0.858 -65.552,0.39 -79.145,-1.041 -13.592,-1.431 -50.363,-3.234 -81.713,-4.006 -31.35,-0.773 -81.975,-2.021 -112.5,-2.774 -30.525,-0.754 -87.9,0.457 -127.5,2.691 m -1084.49997,-0.265 c 0,0.705 -7.762,6.076 -17.25,11.936 -9.487,5.859 -22.473,15.266 -28.856,20.905 -13.936,12.31 -79.828,45.762 -95.644,48.556 -6.187,1.093 -16.312,0.93 -22.5,-0.364 l -11.25,-2.351 16.204,-2.21 c 25.23,-3.441 85.128,-31.28 115.809,-53.824 20.735,-15.236 43.487,-27.085 43.487,-22.648 m -242.674,29.94 c 4.676,6.448 17.369,20.961 28.208,32.25 10.84,11.29 18.925,20.527 17.967,20.527 -6.709,0 -26.924,-14.201 -38.427,-26.996 -13.932,-15.495 -27.912,-45.603 -24.065,-51.827 1.24,-2.007 3.253,0.216 4.953,5.471 1.575,4.868 6.689,14.128 11.364,20.575 m 178.024,-1.481 c -4.224,4.063 -52.661,29.078 -61.35,31.684 -13.461,4.036 -2.707,-3.223 28.346,-19.134 28.384,-14.542 39.449,-18.75 33.004,-12.55 m 1197.14997,8.125 c -23.1,1.852 -54.15,4.231 -69,5.288 -14.85,1.056 -36.45,3.209 -48,4.784 -11.55,1.576 -31.8,2.909 -45,2.964 -13.2,0.054 -40.2,2.804 -60,6.111 -21.957,3.668 -57.649,6.659 -91.5,7.668 -64.582,1.925 -131.18,8.446 -169.5,16.598 -14.85,3.159 -47.25,7.075 -72,8.702 -79.012,5.194 -121.613,13.547 -175.77397,34.464 -14.705,5.679 -32.472,11.853 -39.481,13.72 -52.183,13.9 -161.009,90.996 -174.7,123.764 -6.717,16.075 -5.901,18.583 9.705,29.822 22.917,16.504 90.87,37.757 174.75,54.656 22.275,4.488 49.275,9.943 59.99997,12.123 34.127,6.936 98.393,13.219 169.5,16.571 37.95,1.789 77.775,4.615 88.5,6.28 23.777,3.692 105.61,4.204 142.5,0.891 14.85,-1.333 27.718,-2.263 28.595,-2.067 0.877,0.197 21.127,1.192 45,2.211 34.161,1.459 53.308,0.589 89.905,-4.087 25.575,-3.268 64.05,-7.457 85.5,-9.308 21.45,-1.852 48.843,-4.639 60.873,-6.194 12.029,-1.556 38.354,-2.927 58.5,-3.047 20.145,-0.12 44.052,-1.443 53.127,-2.938 9.075,-1.495 48.225,-4.166 87,-5.934 38.775,-1.768 91.425,-4.275 117,-5.572 25.575,-1.296 71.138,-2.074 101.25,-1.729 l 54.75,0.627 v -8.986 -8.986 l -122.25,1.118 c -72.294,0.662 -164.544,-0.555 -225.75,-2.977 -176.936,-7.003 -221.467,-7.96 -286.5,-6.159 -97.22,2.692 -236.095,8.646 -276,11.833 -19.8,1.581 -56.02,4.48 -80.488,6.442 -34.758,2.788 -60.675,2.753 -118.5,-0.158 -101.84997,-5.129 -128.30397,-10.01 -190.89097,-35.218 -43.713,-17.606 -68.832,-31.294 -70.136,-38.221 -1.697,-9.008 8.535,-31.928 19.842,-44.443 29.266,-32.394 97.551,-61.709 173.69497,-74.568 20.66,-3.489 55.319,-11.579 77.021,-17.977 43.874,-12.936 86.608,-19.853 184.957,-29.937 17.325,-1.777 42.3,-4.54 55.5,-6.141 13.2,-1.6 49.65,-4.954 81,-7.453 31.35,-2.498 80.625,-7.192 109.5,-10.431 82.382,-9.241 125.329,-11.971 188.686,-11.996 32.348,-0.012 67.589,-1.484 78.314,-3.27 31.541,-5.252 268.652,-4.901 300,0.445 15.951,2.72 39.823,4.003 63.75,3.427 37.663,-0.908 38.25,-1.028 38.25,-7.833 0,-6.096 -1.856,-7.133 -15.75,-8.802 -8.662,-1.041 -33.975,-1.916 -56.25,-1.945 -22.275,-0.029 -62.775,-1.607 -90,-3.506 -64.805,-4.52 -266.002,-4.915 -319.5,-0.626 m -861.31697,9.635 c -24.112,14.477 -36.277,23.997 -58.336,45.648 -26.374,25.887 -58.688,63.587 -89.666,104.611 -14.865,19.684 -28.404,36.641 -30.087,37.681 -1.684,1.041 -4.594,4.854 -6.467,8.475 -2.75,5.317 -1.543,4.852 6.272,-2.417 24.086,-22.403 41.948,-40.648 58.601,-59.86 31.504,-36.344 120.45,-127.873 131.679,-135.503 10.421,-7.082 13.312,-10.416 8.571,-9.885 -1.237,0.138 -10.493,5.201 -20.567,11.25 m 960.31697,26.333 c -8.25,0.627 -33.225,3.158 -55.5,5.625 -49.05,5.431 -131.997,12.448 -195,16.497 -63.196,4.061 -111.825,8.354 -153,13.505 -18.975,2.374 -58.8,7.153 -88.5,10.62 -126.907,14.812 -207.627,28.282 -264,44.052 -102.17697,28.584 -140.54097,42.416 -164.99997,59.492 -34.4,24.016 -35.009,37.939 -2.31,52.804 49.879,22.676 104.313,37.014 159.35697,41.974 38.688,3.487 160.391,-0.359 201.453,-6.365 10.725,-1.569 39.075,-3.648 63,-4.62 23.925,-0.973 67.8,-3.707 97.5,-6.077 101.901,-8.131 182.149,-10.746 233.446,-7.608 26.705,1.635 80.279,3.755 119.054,4.713 38.775,0.958 95.475,3.091 126,4.74 30.525,1.649 111.863,3.293 180.75,3.655 l 125.25,0.658 v -12.75 c 0,-7.012 -0.337,-12.822 -0.75,-12.911 -0.412,-0.088 -74.325,-1.41 -164.25,-2.939 -89.925,-1.528 -179.7,-4.154 -199.5,-5.835 -19.8,-1.682 -57.6,-4.421 -84,-6.088 -26.4,-1.667 -55.425,-4.361 -64.5,-5.988 -73.115,-13.107 -152.697,-15.826 -228,-7.789 -25.575,2.729 -48.318,5.609 -50.539,6.398 -2.222,0.79 -22.472,3.507 -45,6.038 -22.529,2.531 -58.511,7.187 -79.961,10.347 -72.882,10.736 -173.903,14.853 -216,8.802 -11.55,-1.66 -29.775,-4.241 -40.5,-5.735 -32.37997,-4.512 -82.32897,-19.088 -83.33597,-24.32 -1.83,-9.499 92.81197,-46.873 147.83597,-58.38 4.95,-1.036 15.075,-3.745 22.5,-6.021 13.102,-4.017 62.916,-12.009 130.5,-20.936 18.15,-2.397 62.7,-6.39 99,-8.873 36.3,-2.483 76.125,-5.875 88.5,-7.538 12.375,-1.664 49.5,-4.368 82.5,-6.011 56.401,-2.807 110.698,-7.876 159,-14.843 11.55,-1.666 52.05,-6.585 90,-10.93 60.595,-6.939 75.212,-7.637 120,-5.734 109.763,4.664 212.379,5.909 263.25,3.193 l 53.25,-2.844 v -14.406 -14.407 l -30.75,-0.487 c -37.687,-0.597 -44.709,-0.986 -93.75,-5.189 -21.45,-1.839 -49.8,-4.023 -63,-4.854 -33.195,-2.089 -176.682,-4.029 -195,-2.635 M 0.49173308,514.55904 c 0,2.644 5.06100002,5.686 12.74999992,7.663 33.417,8.591 44.098,12.902 61.222,24.713 29.789997,20.546 54.531997,54.895 30.642997,42.541 -13.661997,-7.065 -35.476997,-13.075 -65.074997,-17.927 -34.9409999,-5.729 -39.53999992,-5.596 -39.53999992,1.138 0,4.608 8.00400002,7.579 48.74999992,18.1 54.347997,14.032 68.532997,21.509 108.749997,57.324 37.665,33.543 69.275,55.182 113.014,77.366 34.938,17.72 46.496,22.153 61.736,23.677 15.484,1.549 18.75,1.094 18.75,-2.615 0,-3.004 -7.643,-6.759 -23.101,-11.348 -21.856,-6.488 -89.547,-43.636 -110.989,-60.909 -4.625,-3.726 -14.293,-10.734 -21.484,-15.573 -21.1,-14.2 -41.088,-38.95 -50.468,-62.492 -15.36,-38.549 -50.205997,-63.333 -110.576997,-78.647 -34.21399992,-8.679 -34.38099992,-8.694 -34.38099992,-3.011 m 1871.99996692,9.722 c -74.772,1.777 -231.948,12.293 -301.5,20.171 -21.45,2.43 -60.6,5.227 -87,6.216 -149.99,5.618 -319.896,27.754 -392.295,51.11 -42.187,13.609 -56.18,19.744 -59.597,26.13 -5.921,11.062 2.602,13.473 55.287,15.64 63.801,2.624 148.316,-0.252 218.105,-7.423 15.675,-1.61 54.15,-3.523 85.5,-4.251 63.707,-1.479 116.2,-5.895 136.5,-11.483 16.702,-4.597 115.368,-4.437 145.5,0.237 44.773,6.945 137.125,11.029 231,10.214 106.09,-0.921 213.108,3.249 255.718,9.965 15.244,2.402 28.407,4.368 29.25,4.368 2.47,0 1.756,-17.991 -0.718,-18.092 -1.237,-0.05 -19.125,-1.443 -39.75,-3.094 -20.625,-1.652 -57.075,-4.333 -81,-5.958 -23.925,-1.625 -53.625,-4.258 -66,-5.85 -12.375,-1.592 -79.875,-4.201 -150,-5.799 -70.125,-1.597 -136.95,-4.249 -148.5,-5.892 -20.702,-2.946 -66.959,-6.185 -108,-7.562 -24.052,-0.807 -78.129,2.51 -115.485,7.083 -24.81,3.038 -145.306,14.051 -181.515,16.591 -30.074,2.109 0.103,-3.36 40.5,-7.34 18.975,-1.87 40.575,-4.692 48,-6.272 67.107,-14.278 176.288,-21.892 241.5,-16.842 18.15,1.405 51.9,1.871 75,1.034 23.1,-0.836 60.225,-0.24 82.5,1.324 22.275,1.565 86.4,4.177 142.5,5.805 56.1,1.628 106.725,3.439 112.5,4.023 9.92,1.003 85.551,6.363 129.75,9.195 l 20.25,1.297 v -10.117 c 0,-12.367 -1.587,-12.727 -45,-10.202 -37.472,2.179 -88.592,0.857 -132,-3.413 -17.325,-1.704 -69.3,-3.507 -115.5,-4.006 -81.944,-0.886 -113.798,-4.188 -87.674,-9.089 22.859,-4.288 82.966,-6.461 119.174,-4.307 61.522,3.658 231.406,7.955 246.75,6.24 12.204,-1.364 14.25,-2.541 14.25,-8.2 0,-6.606 -0.013,-6.607 -83.25,-8.465 -45.787,-1.023 -116.862,-3.444 -157.943,-5.381 -81.233,-3.831 -88.519,-3.319 -283.807,19.921 -23.265,2.769 -71.629,4.149 -148.518,4.237 -111.195,0.128 -151.936,2.498 -212.115,12.341 -11.073,1.811 -23.223,3.659 -27,4.107 -22.675,2.691 -50.281,9.446 -49.407,12.09 0.563,1.701 6.652,4.106 13.532,5.343 38.868,6.992 38.462,7.526 -5.997,7.89 -43.303,0.354 -53.495,-0.761 -53.495,-5.855 0,-6.408 12.651,-9.529 126,-31.089 55.038,-10.469 127.917,-15.876 246,-18.252 76.295,-1.535 120.053,-4.291 190.5,-11.997 81.327,-8.898 125.937,-10.424 265.452,-9.083 79.999,0.768 153.237,0.584 162.75,-0.411 16.771,-1.753 17.298,-2.079 17.298,-10.708 v -8.901 l -33.75,2.578 c -18.562,1.418 -46.575,2.375 -62.25,2.127 -100.679,-1.591 -200.161,-2.462 -222,-1.943 M 0.49173308,641.34904 v 15.01 l 13.91899992,1.908 c 7.655,1.05 22.585,1.908 33.177,1.908 40.419,0 109.222997,30.445 158.028997,69.928 16.706,13.515 31.05,25.407 31.875,26.428 3.331,4.12 59.594,39.811 75,47.577 9.075,4.575 26.625,12.18 39,16.901 21.847,8.334 24.068,8.577 76.5,8.366 47.514,-0.192 57.784,-1.15 85.5,-7.98 35.257,-8.687 92.085,-28.278 109.838,-37.864 14.207,-7.672 70.684,-31.468 85.162,-35.884 5.775,-1.761 21.909,-4.714 35.854,-6.563 27.285,-3.616 46.379,-1.547 84.146,9.12 10.725,3.029 35.7,9.822 55.5,15.095 39.531,10.528 66.223,18.119 100.5,28.582 40.65197,12.409 105.52597,23.778 185.99997,32.595 66.264,7.26 164.147,8.103 220.5,1.899 18.15,-1.998 51.225,-4.831 73.5,-6.296 22.275,-1.465 60.75,-5.361 85.5,-8.659 24.75,-3.297 57.15,-7.48 72,-9.294 14.85,-1.815 33.75,-5.204 42,-7.533 8.25,-2.329 37.275,-5.695 64.5,-7.479 27.225,-1.785 65.7,-4.603 85.5,-6.263 38.039,-3.188 189.89,-8.471 306.75,-10.671 l 69.75,-1.313 v -13.03 -13.03 l -45.75,-2.11 c -36.477,-1.682 -50.9,-1.125 -71.16,2.747 -19.686,3.762 -45.026,4.877 -112.5,4.949 -106.441,0.114 -150.939,3.14 -304.59,20.716 -27.225,3.115 -65.7,7.199 -85.5,9.076 -19.8,1.878 -51.525,6.055 -70.5,9.282 -61.821,10.515 -200.385,13.489 -273.583,5.872 -17.004,-1.77 -45.092,-4.659 -62.417,-6.421 -63.111,-6.417 -134.423,-18.102 -173.99997,-28.51 -90.399,-23.775 -127.294,-34.714 -156.663,-46.453 -43.695,-17.465 -55.49,-20.711 -75.404,-20.748 -23.724,-0.043 -49.03,6.939 -78.072,21.54 -13.304,6.69 -28.953,13.936 -34.775,16.104 -5.822,2.168 -20.711,8.215 -33.086,13.44 -61.028,25.763 -134.455,37.063 -195.098,30.024 -43.168,-5.011 -112.576,-19.408 -128.902,-26.737 -14.24,-6.394 -45.538,-25.087 -96.108,-57.403 -55.121,-35.224 -63.662,-39.793 -94.183997,-50.381 -25.41,-8.815 -35.555,-10.713 -63.955,-11.966 l -33.75299992,-1.49 v 15.011 m 275.98099692,8.484 c 23.945,28.298 51.418,42.547 108.019,56.025 36.647,8.726 44.781,9.622 85.5,9.419 31.161,-0.155 51.458,-1.777 66,-5.272 54.509,-13.102 56.994,-15.725 8.823,-9.315 -41.81,5.564 -82.659,5.649 -110.199,0.23 -11.893,-2.34 -28.374,-5.159 -36.624,-6.265 -38.285,-5.133 -96.785,-26.812 -116.346,-43.116 -11.593,-9.662 -12.026,-9.806 -5.173,-1.706 m -275.98099692,33.733 c 0,7.986 0.94200002,8.552 19.54599992,11.738 20.934,3.586 48.047,15.106 79.454,33.76 10.724997,6.369 29.624997,15.768 41.999997,20.886 36.951,15.282 69.653,43.377 64.902,55.758 -4.7,12.25 -64.899,30.887 -121.203997,37.524 -27.754,3.271 -58.76,2.432 -77.9479999,-2.11 -5.273,-1.248 -6.75000002,-0.292 -6.75000002,4.369 0,5.438 2.77100002,6.156 31.21499992,8.095 43.696,2.978 86.923997,-1.663 129.284997,-13.881 71.879,-20.732 97.5,-32.489 97.5,-44.741 0,-3.446 -7.558,-10.57 -20.25,-19.087 -11.137,-7.474 -28.35,-20.271 -38.25,-28.438 -19.834,-16.362 -76.836,-47.109 -105.036997,-56.656 -22.656,-7.67 -64.001,-15.608 -81.294,-15.608 -12.4199999,0 -13.16899992,0.477 -13.16899992,8.391 m 0,29.764 c 0,8.915 0.227,9.042 18.88599992,10.539 19.709,1.583 33.419,7.083 48.614,19.505 4.95,4.047 21.488,15.436 36.749997,25.309 15.263,9.874 27.75,19.033 27.75,20.355 0,12.492 -73.221997,18.569 -122.249997,10.145 -8.8299999,-1.518 -9.74999992,-0.973 -9.74999992,5.766 0,6.268 1.77300002,7.734 11.24999992,9.3 18.494,3.057 78.352,2.171 99.254997,-1.469 21.924,-3.818 50.088,-15.612 52.54,-22.002 2.941,-7.664 -9.745,-18.944 -34.819,-30.96 -13.599,-6.517 -33.038997,-18.124 -43.198997,-25.792 -24.218,-18.28 -41.53,-25.657 -65.448,-27.89 l -19.57899992,-1.829 v 9.023 m 0,30.08 c 0,8.628 0.55900002,8.983 16.73199992,10.653 18.37,1.895 33.846,9.734 28.929,14.651 -1.639,1.639 -12.643,2.526 -24.454,1.971 -21.28599992,-1.001 -21.46599992,-0.945 -20.5909999,6.372 0.711,5.94 3.229,7.882 12.8839999,9.938 19.428,4.138 66.463,1.513 71.988,-4.017 4.257,-4.261 3.691,-5.728 -6.099,-15.808 -14.363,-14.789 -41.065,-27.898 -62.207,-30.54 l -17.18199992,-2.146 v 8.926 m 751.49999692,20.278 c -14.189,2.222 -42.395,10.765 -69,20.899 -24.75,9.428 -58.935,22.459 -75.967,28.959 -46.7,17.823 -80.192,26.226 -166.954,41.891 -31.879,5.755 -43.527,6.332 -103.5,5.123 -67.643,-1.364 -110.531,0.757 -131.436,6.499 -6.129,1.684 -28.693,7.275 -50.143,12.425 -41.518,9.968 -35.612,9.772 -114.554997,3.8 -26.975,-2.04 -39.94499992,-0.107 -39.94499992,5.954 0,4.68 57.93199992,11.026 100.15399692,10.971 26.037,-0.033 34.93,-1.105 90.346,-10.892 15.408,-2.722 57.912,-5.801 99,-7.173 143.73,-4.799 215.454,-17.873 330.373,-60.221 86.111,-31.732 101.133,-35.521 149.627,-37.733 60.632,-2.766 118.314,5.148 178.5,24.489 56.09097,18.025 97.85197,28.438 127.36897,31.759 17.609,1.982 30.822,4.746 29.414,6.154 -2.986,2.986 -68.431,-4.466 -96.783,-11.02 -122.00297,-28.206 -129.45297,-29.318 -197.99997,-29.553 -59.185,-0.202 -67.598,0.445 -102.087,7.851 -36.265,7.787 -72.091,18.563 -126.022,37.904 -28.087,10.073 -83.074,24.319 -122.891,31.838 -83.885,15.842 -316.862,35.419 -404.251997,33.971 -49.6809999,-0.824 -54.75099992,-0.44 -54.74999992,4.143 0.002,4.336 4.35300002,5.202 30.75199992,6.12 33.066,1.15 149.736997,-4.617 198.749997,-9.824 16.5,-1.753 48.9,-4.385 72,-5.848 50.371,-3.192 114.594,-10.342 145.5,-16.199 12.375,-2.345 27.9,-5.13 34.5,-6.189 27.255,-4.374 68.864,-15.25 115.5,-30.19 53.33,-17.084 100.875,-29.371 132,-34.113 65.471,-9.974 159.104,-6.249 249.287,9.919 86.98197,15.594 113.06597,17.886 179.48797,15.775 32.051,-1.018 59.466,-3.043 60.923,-4.5 1.533,-1.533 -11.652,-3.444 -31.274,-4.534 -91.97,-5.11 -143.205,-14.33 -234.83197,-42.259 -42.054,-12.819 -96.058,-27.248 -123.092,-32.887 -31.699,-6.612 -51.533,-7.453 -78,-3.309 m 1333.49997,21.533 c -10.725,0.489 -32.951,2.365 -49.391,4.167 -16.44,1.803 -55.59,4.581 -87,6.174 -158.847,8.053 -166.171,8.682 -238.609,20.475 -33.319,5.424 -55.114,8.462 -151.5,21.113 -47.945,6.293 -109.814,10.815 -183,13.375 -24.75,0.866 -67.275,2.351 -94.5,3.301 -27.225,0.95 -58.95,3.107 -70.5,4.794 -49.492,7.228 -58.726,7.936 -91.5,7.015 -52.863,-1.486 -176.12397,-13.389 -238.49997,-23.032 -13.185,-2.038 -39.422,-2.49 -70.5,-1.216 -88.559,3.631 -121.681,8.748 -219,33.83 -64.466,16.615 -83.003,20.597 -108,23.2 -10.725,1.117 -30.975,3.974 -45,6.348 -32.616,5.521 -79.671,10.499 -210,22.215 -46.553,4.185 -152.745997,9.217 -194.249997,9.205 -32.0409999,-0.01 -33.74999992,0.302 -33.74999992,6.148 0,6.068 0.88000002,6.13 60.74999992,4.304 98.613997,-3.009 235.415997,-12.841 291.749997,-20.968 53.769,-7.758 74.634,-10.678 97.5,-13.645 47.026,-6.101 110.084,-15.175 124.5,-17.914 8.25,-1.568 35.25,-4.962 60,-7.543 41.515,-4.328 70.878,-7.198 177.044,-17.304 56.924,-5.418 132.298,-3.955 185.183,3.597 54.81097,7.826 157.44697,8.726 195.77297,1.716 23.168,-4.238 58.44,-6.559 202.5,-13.327 155.758,-7.317 157.872,-7.332 173.315,-1.281 11.729,4.597 22.235,5.529 60.685,5.387 169.498,-0.628 242.045,-3.526 331.5,-13.245 29.7,-3.226 73.575,-7.911 97.5,-10.411 37.156,-3.881 60.563,-7.434 122.25,-18.552 5.826,-1.05 9.75,-3.547 9.75,-6.205 0,-3.364 -2.376,-4.037 -9.75,-2.762 -9.428,1.629 -23.753,3.265 -110.25,12.589 -22.275,2.401 -57.375,6.351 -78,8.777 -104.308,12.267 -142.481,15.125 -201,15.046 -73.054,-0.099 -168,-4.179 -168,-7.22 0,-4.442 144.001,-23.518 216,-28.614 14.025,-0.993 41.7,-3.137 61.5,-4.765 46.151,-3.795 111.865,-7.638 210.75,-12.324 56.667,-2.685 78.75,-4.73 78.75,-7.292 0,-1.958 -2.135,-4.38 -4.745,-5.381 -4.563,-1.751 -59.665,-1.627 -100.255,0.225 m -1829.64097,24.931 c -18.808,22.158 -49.968,35.399 -107.396,45.636 -32.214,5.742 -47.358,6.748 -93.212997,6.191 -42.668,-0.519 -54.74999992,0.177 -54.74999992,3.152 0,2.724 13.12499992,5.128 45.81599992,8.392 53.362,5.327 84.623997,3.381 122.703997,-7.637 67.395,-19.499 102.976,-22.476 193.22,-16.168 52.378,3.662 85.13,1.595 87.446,-5.519 0.829,-2.548 -6.764,-3.04 -28.468,-1.844 -48.523,2.674 -85.541,-6.136 -128.145,-30.498 -13.16,-7.525 -24.635,-13.675 -25.5,-13.667 -0.865,0.008 -6.136,5.391 -11.714,11.962 m 1918.14097,35.099 c -4.95,0.648 -31.95,4.403 -60,8.344 -28.05,3.942 -59.775,8.014 -70.5,9.049 -10.725,1.035 -30.975,3.87 -45,6.301 -15.018,2.603 -74.209,6.241 -144,8.852 -65.175,2.438 -130.65,5.744 -145.5,7.347 -15.033,1.623 -44.286,1.958 -66,0.757 -21.45,-1.187 -55.875,-1.926 -76.5,-1.642 -20.625,0.284 -102.3,0.986 -181.5,1.56 -109.707,0.795 -147.572,2.02 -159,5.142 -27.57,7.532 -146.341,4.423 -222,-5.81 -11.54997,-1.562 -50.48797,-4.966 -86.52797,-7.563 -59.869,-4.315 -68.938,-4.309 -105,0.073 -21.71,2.638 -46.897,6.668 -55.972,8.955 -9.075,2.288 -33.72,5.593 -54.766,7.346 -21.046,1.753 -50.071,5.27 -64.5,7.814 -33.27,5.867 -102.704,14.554 -177.734,22.237 -32.175,3.294 -66.6,7.323 -76.5,8.952 -9.9,1.63 -45.675,5.788 -79.5,9.239 -33.825,3.452 -72.3,7.494 -85.5,8.981 -13.2,1.487 -47.625,4.175 -76.5,5.973 -28.875,1.798 -69.597997,4.466 -90.493997,5.929 -20.897,1.463 -40.81,1.924 -44.2499999,1.024 -5.173,-1.352 -6.25600002,-0.266 -6.25600002,6.271 0,6.616 1.10200002,7.678 6.75000002,6.504 15.9019999,-3.307 50.7389999,-5.018 126.7499969,-6.224 92.777,-1.472 140.73,-5.923 224.011,-20.793 62.507,-11.161 99.653,-15.303 162.989,-18.173 21.45,-0.972 55.2,-3.037 75,-4.589 19.8,-1.552 69.075,-3.653 109.5,-4.67 40.425,-1.017 80.925,-2.289 90,-2.827 23.853,-1.414 192.801,-7.069 304.49997,-10.194 52.8,-1.476 112.875,-4.347 133.5,-6.378 26.677,-2.628 69.97,-3.137 150,-1.762 81.979,1.408 124.708,0.869 157.5,-1.985 28.093,-2.445 65.254,-3.296 98.909,-2.266 29.65,0.907 64.075,0.76 76.5,-0.329 37.158,-3.254 120.255,-8.213 192.091,-11.462 61.945,-2.802 142.228,-10.619 183,-17.819 9.075,-1.602 35.063,-5.243 57.75,-8.09 36.077,-4.527 41.25,-5.865 41.25,-10.663 0,-3.018 -1.687,-5.285 -3.75,-5.038 -2.062,0.248 -7.8,0.98 -12.75,1.627 m -9,29.853 c -13.2,2.135 -35.475,5.073 -49.5,6.528 l -25.5,2.646 27,0.389 c 29.68,0.428 67.245,-4.037 71.735,-8.527 4.883,-4.883 1.074,-5.05 -23.735,-1.036 m 18.605,17.966 c -1.043,1.043 -26.58,1.712 -56.75,1.487 -79.336,-0.59 -138.533,3.375 -282.855,18.943 -94.37,10.18 -120.57,11.309 -282,12.151 -213.016,1.112 -391.716,3.781 -508.5,7.595 -50.325,1.644 -121.87497,3.609 -158.99997,4.366 -104.361,2.129 -229.724,11.23 -310.5,22.542 -214.974,30.104 -234.135,32.589 -279,36.188 -23.1,1.852 -66.326,5.94796 -96.057,9.10096 -38.608,4.094 -76.117,5.732 -131.249997,5.732 -74.3299999,0 -77.19299992,0.215 -77.19299992,5.805 0,5.394 1.86100002,5.716 26.24999992,4.551 14.438,-0.69 57.975,-1.928 96.749997,-2.751 38.775,-0.824 78.6,-2.909 88.5,-4.635 15.927,-2.776 121.828,-12.062 133.5,-11.706 7.356,0.225 -17.623,7.285 -45,12.721 -14.025,2.784 -52.846,9.102 -86.269,14.039 -77.171,11.399 -127.229997,11.757 -202.480997,1.446 -11.15699992,-1.528 -11.24999992,-1.454 -11.24999992,8.995 v 10.535 l 68.24999992,-0.179 c 130.063997,-0.341 174.160997,-5.326 237.749997,-26.875 40.909,-13.863 60.742,-17.946 87.183,-17.946 28.538,0 29.657,-3.044 2.115,-5.75296 -17.777,-1.749 -15.864,-2.213 35.202,-8.543 145.199,-17.999 219.577,-22.978 459,-30.727 57.75,-1.87 140.09997,-5.97 182.99997,-9.112 42.9,-3.142 107.025,-6.521 142.5,-7.509 35.475,-0.987 74.568,-3.072 86.873,-4.632 12.305,-1.56 85.205,-2.474 162,-2.03 258.807,1.494 293.803,0.747 379.627,-8.107 42.9,-4.426 89.475,-9.213 103.5,-10.638 14.025,-1.425 43.723,-4.77 65.995,-7.435 22.272,-2.664 60.072,-4.919 84,-5.011 54.559,-0.208 93.005,-5.047 93.005,-11.705 0,-3.193 -4.072,-3.726 -6.895,-0.903 m -27.605,28.387 c -9.9,1.32 -44.325,3.755 -76.5,5.412 -32.175,1.656 -72.675,5.05 -90,7.542 -17.325,2.491 -57.15,6.645 -88.5,9.229 -31.35,2.585 -67.324,5.957 -79.942,7.495 -45.424,5.533 -146.032,7.067 -194.558,2.965 -100.056,-8.457 -321.684,-2.741 -397.5,10.252 -24.75,4.242 -73.35,9.806 -108,12.366 -147.77597,10.919 -160.25497,11.376 -209.18797,7.667 -29.386,-2.228 -49.064,-2.528 -52.159,-0.796 -3.797,2.125 -1.509,3.271 9.688,4.85 8.063,1.138 24.784,4.12 37.159,6.629 29.538,5.98596 69.434,5.48496 140.99997,-1.771 32.175,-3.263 80.1,-8.101 106.5,-10.753 48.537,-4.874 70.999,-7.479 120,-13.915 18.202,-2.39 93.471,-3.673 231,-3.937 223.37,-0.429 277.491,-2.007 363,-10.584 31.35,-3.145 76.575,-7.204 100.5,-9.021 23.925,-1.816 59.025,-4.565 78,-6.109 18.975,-1.543 59.138,-3.681 89.25,-4.751 l 54.75,-1.945 v -7.053 c 0,-7.877 -2.037,-8.1 -34.5,-3.772 m -1720.49997,33.09 c -25.575,2.837 -63.375,7.925 -84,11.306 -66.894,10.967 -120.625,16.184 -163.5,15.875 -46.219,-0.332 -173.925997,4.761 -182.2499969,7.269 -2.887,0.87 -5.25000002,3.65 -5.25000002,6.178 0,4.064 11.70699992,4.434 101.24999692,3.198 91.779,-1.266 107.564,-2.26 168.75,-10.628 65.064,-8.899 104.425,-14.835 142.5,-21.49 9.9,-1.73 30.613,-4.484 46.028,-6.119 15.415,-1.636 30.265,-4.28 33,-5.876 2.735,-1.597 4.297,-3.056 3.472,-3.244 -7.307,-1.662 -19.848,-0.924 -60,3.531 m 1649.99997,12.107 c -98.224,3.16 -211.487,8.36 -294,13.498 -59.224,3.687 -92.083,4.174 -145.5,2.156 -37.95,-1.435 -129.75,-2.203 -204,-1.709 -129.8,0.864 -191.697,3.526 -220.5,9.481 -7.425,1.536 -31.05,5.683 -52.5,9.216 -21.45,3.53396 -55.693,9.75096 -76.096,13.81696 -46.352,9.237 -108.24097,13.648 -138.43297,9.867 -12.359,-1.547 -44.449,-8.267 -71.311,-14.932 -83.209,-20.64696 -118.975,-26.03296 -186.66,-28.11196 -58.552,-1.798 -146.078,8.978 -232.5,28.62496 -21.45,4.877 -46.425,10.233 -55.5,11.903 -15.741,2.897 -47.69,9.427 -73.5,15.022 -6.6,1.431 -23.475,5.365 -37.5,8.741 -37.487,9.024 -98.034,14.497 -171,15.456 -119.0849969,1.564 -125.99999692,2.047 -125.99999692,8.804 0,5.639 1.63300002,5.839 35.24999992,4.319 19.388,-0.876 60.9,-1.617 92.249997,-1.647 89.39,-0.085 134.063,-5.496 219.662,-26.606 19.436,-4.793 47.689,-10.905 62.786,-13.583 15.096,-2.677 41.427,-8.875 58.513,-13.773 17.086,-4.898 47.934,-10.909 68.552,-13.358 20.618,-2.449 45.587,-6.08596 55.487,-8.08196 9.979,-2.013 42.064,-3.67 72,-3.72 64.226,-0.106 81.727,2.894 165.946,28.44796 74.571,22.627 88.177,24.874 138.335,22.84 53.54597,-2.171 110.59397,-11.084 193.71897,-30.266 72.895,-16.82096 120.076,-20.69596 267,-21.92796 85.585,-0.718 161.355,0.272 207,2.706 40.706,2.17 84.387,2.892 100.5,1.662 51.66,-3.944 99.056,-5.053 219,-5.125 102.527,-0.062 126.284,-0.965 176.25,-6.702 56.957,-6.54 57.75,-6.729 57.75,-13.767 0,-6.946 -0.579,-7.111 -21.75,-6.183 -11.962,0.524 -49.425,1.843 -83.25,2.932 m 58.5,35.75096 c -16.5,1.318 -94.8,3.866 -174,5.663 -79.2,1.797 -150.75,4.719 -159,6.493 -9.003,1.937 -86.965,4.126 -195,5.476 -194.929,2.436 -187.677,1.927 -361.5,25.374 -30.525,4.118 -70.35,8.974 -88.5,10.791 -18.15,1.818 -46.5,5.303 -63,7.746 -61.808,9.149 -80.836,10.067 -150.12897,7.239 -95.379,-3.893 -117.139,-8.038 -181.062,-34.486 -47.835,-19.793 -72.904,-25.52 -111.71,-25.524 -25.286,0 -117.074,10.083 -122.545,13.465 -1.104,0.682 -22.83,4.753 -48.281,9.046 -25.45,4.293 -72.598,14.653 -104.773,23.022 -129.235,33.615 -167.87,38.981 -293.249997,40.728 -75.561,1.052 -90.74999992,1.973 -90.74999992,5.5 0,3.276 5.61400002,4.323 24.74999992,4.617 13.613,0.21 45,0.885 69.75,1.501 27.813997,0.692 59.321997,-0.559 82.499997,-3.277 20.625,-2.418 52.35,-5.873 70.5,-7.679 33.744,-3.356 63.22,-9.187 111,-21.957 24.378,-6.516 72.48,-15.06 181.5,-32.239 20.625,-3.25 46.121,-7.406 56.658,-9.236 41.164,-7.147 69.52,-1.348 140.384,28.712 31.493,13.359 82.552,19.001 189.958,20.989 53.111,0.984 105.66797,0.501 119.99997,-1.101 14.025,-1.568 53.175,-4.272 87,-6.01 33.825,-1.737 71.625,-4.483 84,-6.102 12.375,-1.618 38.7,-4.332 58.5,-6.029 19.8,-1.698 51.525,-5.628 70.5,-8.733 83.547,-13.672 170.522,-20.28 318,-24.159 53.625,-1.411 99.525,-3.342 102,-4.291 2.475,-0.95 38.925,-3.16 81,-4.912 42.075,-1.751 104.85,-4.361 139.5,-5.8 34.65,-1.439 83.25,-4.086 108,-5.883 24.75,-1.796 56.138,-4.042 69.75,-4.99 13.613,-0.947 24.75,-2.951 24.75,-4.453 0,-3.01096 -2.938,-2.97896 -46.5,0.499 m 27,29.796 c -23.133,4.565 -87.677,8.769 -162,10.552 -41.25,0.989 -83.1,2.351 -93,3.027 -16.979,1.158 -61.709,3.278 -220.5,10.45 -93.404,4.219 -202.678,11.057 -238.5,14.925 -35.326,3.814 -112.269,14.661 -117.971,16.63 -2.184,0.754 -25.809,2.731 -52.5,4.393 -26.691,1.663 -72.829,6.054 -102.529,9.76 -46.931,5.855 -65.781,6.64 -144,5.999 -49.49997,-0.407 -109.57497,-2.586 -133.49997,-4.843 -23.925,-2.257 -46.2,-4.063 -49.5,-4.012 -18.298,0.279 -71.613,-4.965 -87.996,-8.655 -10.447,-2.354 -35.763,-12.529 -56.257,-22.612 -47.024,-23.135 -55.717,-24.059 -125.747,-13.354 -28.05,4.287 -67.2,9.9 -87,12.471 -72.332,9.396 -133.225,20.137 -186.621,32.921 -32.95,7.889 -72.23,14.968 -99,17.842 -24.409,2.621 -46.404,5.339 -48.879,6.039 -12.196,3.453 -78.558997,7.729 -119.249997,7.684 -44.5039999,-0.049 -45.74999992,0.121 -45.74999992,6.254 0,6.235 0.55500002,6.283 50.24999992,4.304 102.155997,-4.068 143.258997,-8.215 266.249997,-26.862 26.4,-4.003 63.525,-8.788 82.5,-10.634 18.975,-1.846 42.6,-5.577 52.5,-8.293 14.612,-4.008 34.091,-4.991 103.5,-5.224 l 85.5,-0.288 27,9.626 c 27.319,9.74 71.916,19.178 118.5,25.08 14.025,1.776 82.381,3.965 151.902,4.863 104.59897,1.352 132.80097,0.817 163.49997,-3.099 46.92,-5.985 59.337,-7.136 134.598,-12.485 33.825,-2.403 76.35,-7.173 94.5,-10.599 69.401,-13.099 114.92,-20.37 139.5,-22.285 14.025,-1.093 50.475,-4.905 81,-8.472 50.697,-5.924 67.962,-6.417 199.5,-5.699 114.12,0.622 151.781,-0.159 181.5,-3.768 72.322,-8.781 103.968,-11.504 159,-13.683 30.525,-1.208 60.225,-3.6 66,-5.314 5.775,-1.714 15.563,-3.976 21.75,-5.027 6.969,-1.183 11.25,-3.571 11.25,-6.274 0,-4.757 -1.614,-4.868 -19.5,-1.338 m -21,34.645 c -30.909,6.029 -125.703,13.235 -174.75,13.285 -26.471,0.027 -42.75,1.186 -42.75,3.044 0,1.65 5.063,3.051 11.25,3.114 6.188,0.063 32.85,1.315 59.25,2.783 39.898,2.219 56.102,1.735 96,-2.865 26.4,-3.045 57.788,-6.459 69.75,-7.588 20.384,-1.924 21.75,-2.505 21.75,-9.248 0,-6.178 -1.38,-7.155 -9.75,-6.908 -5.362,0.158 -19.2,2.13 -30.75,4.383 m -454.5,22.437 c -26.278,2.753 -166.639,13.491 -214.5,16.409 -14.85,0.905 -39.15,2.923 -54,4.482 -14.85,1.56 -42.525,4.283 -61.5,6.05 -18.975,1.767 -39.225,4.455 -45,5.973 -5.775,1.517 -27.375,4.94 -48,7.606 -41.218,5.327 -45.838,5.827 -96,10.392 -18.975,1.727 -48,5.174 -64.5,7.661 -16.5,2.487 -39.45,5.785 -51,7.33 -11.55,1.545 -25.706,4.197 -31.458,5.893 -32.55697,9.599 -83.41897,15.789 -150.04197,18.259 -38.775,1.438 -81.975,4.024 -96,5.746 -14.025,1.722 -36.975,2.351 -51,1.398 -14.025,-0.952 -51.825,-0.233 -84,1.599 -32.175,1.832 -109.125,4.606 -171,6.166 -61.875,1.559 -125.325,4.148 -141,5.754 -15.675,1.605 -57.966,2.961 -93.981,3.012 -36.014,0.051 -66.586,0.776 -67.937,1.611 -1.869,1.156 -150.537997,10.334 -170.3319969,10.516 -2.062,0.019 -3.75000002,2.881 -3.75000002,6.36 0,5.337 1.23600002,6.015 7.91200002,4.34 15.3839999,-3.862 136.0789969,-7.485 253.0879969,-7.599 65.175,-0.064 171.15,-2.097 235.5,-4.52 64.35,-2.422 162.9,-4.348 219,-4.278 75.79,0.093 113.178,-1.143 145.5,-4.813 23.925,-2.717 66.45,-6.018 94.5,-7.336 28.05,-1.319 71.24997,-5.227 95.99997,-8.686 112.746,-15.757 139.659,-19.097 163.5,-20.287 14.025,-0.701 42.375,-3.215 63,-5.588 76.104,-8.756 143.108,-16.713 165,-19.595 158.976,-20.924 172.276,-22.199 225,-21.578 37.112,0.436 44.264,-0.429 85.5,-10.345 43.684,-10.504 46.228,-10.771 87,-9.135 23.1,0.926 60.9,4.562 84,8.078 86.887,13.226 117.529,13.236 216,0.068 24.75,-3.31 46.013,-6.025 47.25,-6.034 1.238,-0.01 2.25,-2.717 2.25,-6.017 0,-7.359 4.46,-7.463 -65.92,1.533 -61.595,7.873 -117.396,9.468 -154.58,4.419 -116.127,-15.767 -214.772,-21.102 -274.5,-14.844 m -1178.99997,19.6 c -5.775,0.611 -32.1,2.622 -58.5,4.47 -46.389,3.246 -129.063,13.9 -175.484,22.613 -38.093,7.15 -187.033997,23.275 -248.265997,26.879 l -33.74999992,1.986 v 8.152 c 0,7.128 1.03700002,8.031 8.25000002,7.188 4.5379999,-0.531 43.3499999,-3.732 86.2499999,-7.113 42.899997,-3.381 86.099997,-7.571 95.999997,-9.312 9.9,-1.74 28.8,-4.341 42,-5.779 57.163,-6.229 97.701,-11.64 120.038,-16.022 65.242,-12.798 166.4,-17.074 221.962,-9.381 45.396,6.285 98.118,19.25 96.625,23.761 -1.773,5.353 -29.551,7.109 -146.125,9.235 -60.225,1.098 -118.95,3.199 -130.5,4.668 -11.55,1.469 -46.65,4.748 -78,7.287 -31.35,2.539 -60.375,5.267 -64.5,6.062 -15.007,2.894 -92.955,7.575 -152.999997,9.189 -80.736,2.17 -104.1709999,4.16 -98.74999992,8.383 3.52300002,2.745 201.83399692,-3.995 236.74999692,-8.047 22.275,-2.584 61.425,-6.156 87,-7.937 25.575,-1.781 72.825,-5.213 105,-7.626 32.175,-2.413 94.95,-5.122 139.5,-6.02 44.55,-0.898 88.425,-2.371 97.5,-3.274 9.075,-0.903 69.15,-2.173 133.5,-2.822 64.35,-0.649 127.125,-2.503 139.5,-4.118 12.375,-1.616 30.263,-3.753 39.75,-4.75 12.885,-1.353 17.25,-3.001 17.25,-6.51 0,-4.089 -3.014,-4.352 -23.25,-2.034 -12.787,1.465 -52.275,2.535 -87.75,2.377 -86.11,-0.384 -131.33,-6.718 -210.378,-29.469 -8.867,-2.552 -25.572,-5.953 -37.122,-7.557 -23.16,-3.216 -104.939,-6.231 -121.5,-4.479 m 1259.99997,2.561 c -9.075,2.01 -25.95,7.467 -37.5,12.128 -41.583,16.78 -64.141,21.93 -105,23.972 -48.64,2.431 -180.405,12.685 -214.5,16.692 -85.385,10.036 -174.117,19.365 -228,23.973 -35.528,3.038 -132.879,14.536 -178.5,21.083 -22.83797,3.277 -90.41397,7.928 -154.49997,10.633 -22.275,0.94 -112.725,2.094 -201,2.563 -88.275,0.47 -183.45,2.302 -211.5,4.071 -28.05,1.77 -95.55,3.486 -150,3.814 -105.679,0.637 -226.261997,3.992 -269.249997,7.491 -25.3369999,2.062 -26.24999992,2.394 -26.24999992,9.545 0,5.922 1.05300002,6.951 5.25000002,5.132 2.888,-1.252 90.3719999,-3.178 194.4099969,-4.279 104.038,-1.102 190.483,-2.821 192.099,-3.82 7.522,-4.649 345.147,-10.618 401.741,-7.102 39.056,2.426 176.966,-6.123 280.49997,-17.388 23.925,-2.603 58.35,-6.219 76.5,-8.036 18.15,-1.817 37.725,-4.536 43.5,-6.042 5.775,-1.506 36.648,-5.449 68.607,-8.762 31.959,-3.314 59.053,-6.609 60.208,-7.322 1.834,-1.134 104.442,-11.191 202.142,-19.813 17.851,-1.576 38.101,-4.254 45,-5.952 6.899,-1.698 35.493,-3.862 63.543,-4.809 39.941,-1.348 54.578,-3.004 67.5,-7.634 9.075,-3.252 32.025,-11.513 51,-18.358 33.46,-12.07 35.631,-12.447 72,-12.497 34.449,-0.048 88.715,6.874 153.898,19.63 25.952,5.079 102.297,3.292 158.852,-3.719 48.292,-5.987 53.25,-7.14 53.25,-12.382 0,-4.737 -1.489,-5.46 -8.25,-4.003 -38.575,8.31 -138.438,18.105 -158.614,15.557 -46.632,-5.887 -89.436,-12.267 -133.855,-19.949 -53.467,-9.248 -85.78,-10.508 -113.281,-4.417 m 0,19.418 c -10.725,2.929 -31.256,11.715 -45.625,19.524 -29.854,16.225 -65.236,28.97 -109.75,39.533 -37.287,8.848 -66.456,12.022 -149.125,16.227 -34.65,1.763 -75.15,4.511 -90,6.108 -14.85,1.597 -39.825,4.177 -55.5,5.734 -15.675,1.557 -47.4,5.535 -70.5,8.84 -54.35,7.775 -65.331,8.925 -105,10.991 -18.15,0.946 -47.175,3.024 -64.5,4.619 -17.325,1.595 -82.8,3.495 -145.49997,4.222 -126.397,1.465 -158.902,2.866 -215.716,9.298 -28.918,3.274 -74.097,4.317 -178.5,4.122 -76.881,-0.143 -158.009,1.117 -180.284,2.801 -22.275,1.684 -51.975,3.8 -66,4.702 -50.189,3.23 -72.097,5.924 -148.564,18.268 -36.423,5.88 -109.564997,13.192 -132.685997,13.265 -17.9839999,0.057 -18.74999992,0.365 -18.74999992,7.559 0,5.786 1.54300002,7.494 6.75000002,7.474 21.4199999,-0.084 93.2409969,-6.773 126.7499969,-11.805 172.436,-25.896 189.709,-27.26 365.951,-28.886 137.464,-1.269 215.715,-4.429 255.049,-10.302 9.9,-1.478 73.35,-2.728 141,-2.777 67.65,-0.049 134.47497,-0.895 148.49997,-1.879 56.973,-4.001 156.155,-13.617 181.5,-17.598 72.976,-11.462 166.126,-18.46 301.5,-22.651 79.151,-2.45 87.497,-3.232 112.391,-10.534 15.398,-4.516 42.964,-16.465 64.5,-27.958 69.746,-37.221 93.518,-45.584 129.574,-45.584 31.862,0 76.771,15.348 116.35,39.764 10.827,6.679 25.76,15.652 33.185,19.94 l 13.5,7.796 h 96.747 c 95.609,0 96.748,-0.073 96.75,-6.165 0,-6.066 -1.348,-6.17 -84.747,-6.492 -49.796,-0.192 -90.937,-1.701 -99.75,-3.657 -8.25,-1.832 -36.6,-14.157 -63,-27.391 -38.168,-19.132 -52.916,-24.933 -72,-28.323 -32.601,-5.79 -70.642,-5.301 -94.5,1.215 m 165,13.978 c 0,0.916 7.574,5.015 16.831,9.109 16.889,7.469 25.425,8.726 112.169,16.517 37.501,3.368 104.853,2.335 114.75,-1.76 3.027,-1.253 5.25,-5.359 5.25,-9.698 0,-7.301 -0.467,-7.472 -15.75,-5.761 -70.754,7.924 -97.278,8.563 -153.273,3.695 -31.74,-2.76 -61.167,-6.855 -67.116,-9.341 -11.782,-4.922 -12.861,-5.154 -12.861,-2.761 m -135.762,7.592 c -14.321,3.375 -35.218,13.968 -62.917,31.893 -55.776,36.095 -89.405,50.479 -127.971,54.735 -14.217,1.569 -65,3.654 -112.85,4.634 -80.679,1.651 -157.843,6.293 -231,13.896 -37.83,3.931 -37.328,3.897 -120,8.223 -37.95,1.987 -70.805,4.233 -73.012,4.993 -2.206,0.76 -88.60597,3.39 -191.99997,5.845 -103.393,2.456 -206.888,5.803 -229.988,7.438 -23.1,1.636 -77.1,3.741 -120,4.677 -158.754,3.466 -232.316,10.062 -310.5,27.84 -58.471,13.296 -123.385,21.487 -170.999997,21.576 -37.256,0.07 -53.99999992,2.393 -53.99999992,7.492 0,7.706 113.02999692,1.83 196.49999692,-10.215 74.122,-10.695 98.529,-12.602 150,-11.715 64.333,1.109 177.674,-2.532 217.5,-6.987 15.675,-1.753 48.075,-6.977 72,-11.609 72.641,-14.064 90.877,-15.41 195.213,-14.408 61.955,0.596 111.451,-0.42 136.287,-2.795 21.45,-2.052 69.37497,-5.143 106.49997,-6.869 37.125,-1.726 101.25,-5.877 142.5,-9.224 100.783,-8.178 255.858,-10.919 301.801,-5.334 18.809,2.286 54.449,4.127 79.199,4.091 56.63,-0.082 59.967,-1.369 139.5,-53.813 75.183,-49.576 84.008,-53.642 117,-53.903 32.786,-0.259 42.943,4.364 85.668,38.988 17.984,14.574 37.454,28.791 43.265,31.593 15.967,7.697 60.884,12.369 127.567,13.268 65.417,0.882 79.5,-0.21 79.5,-6.165 0,-3.096 -12.731,-3.901 -60.75,-3.841 -69.559,0.087 -112.846,-5.48 -132.75,-17.073 -6.6,-3.845 -21.45,-14.596 -33,-23.891 -23.62,-19.01 -54.46,-34.831 -81.614,-41.867 -19.555,-5.068 -58.242,-5.811 -76.648,-1.473 m -194.238,18.042 c -37.13,6.007 -95.521,12.279 -181.5,19.495 -29.7,2.493 -76.275,7.112 -103.5,10.264 -27.225,3.153 -68.4,7.844 -91.5,10.426 -74.395,8.312 -95.023,10.836 -149.116,18.243 -29.214,4 -56.551,7.273 -60.75,7.273 -4.199,0 -7.634,1.416 -7.634,3.147 0,3.296 16.237,2.545 71.158,-3.29 16.138,-1.715 55.667,-5.707 87.842,-8.872 65.93,-6.485 118.389,-12.949 156,-19.222 14.025,-2.339 41.025,-5.141 60,-6.227 18.975,-1.085 48,-3.834 64.5,-6.108 16.5,-2.274 54.395,-4.953 84.211,-5.953 52.506,-1.76 65.32,-3.529 111.518,-15.394 42.786,-10.989 17.601,-13.299 -41.229,-3.782 m 224.086,-0.01 c -29.669,6.981 -64.889,28.513 -101.612,62.123 -47.612,43.573 -81.196,55.087 -185.474,63.587 -22.275,1.816 -51.3,5.187 -64.5,7.491 l -24,4.19 31.5,-2.09 c 17.325,-1.15 53.1,-1.901 79.5,-1.67 67.762,0.592 90.053,7.135 147,43.147 60.204,38.071 104.987,63.201 121.039,67.921 20.885,6.142 69.421,6.99 85.169,1.489 14.946,-5.22 17.367,-9.847 3.075,-5.877 -14.671,4.075 -52.657,1.019 -83.283,-6.701 -32.539,-8.202 -65.041,-25.026 -108,-55.903 -38.733,-27.839 -63.209,-40.845 -87.91,-46.713 -8.574,-2.036 -15.59,-4.44 -15.59,-5.342 0,-0.901 9.788,-3.407 21.75,-5.567 30.66,-5.537 52.531,-18.87 92.25,-56.236 22.565,-21.228 54.721,-42.229 72.946,-47.641 8.329,-2.473 22.856,-4.497 32.282,-4.497 17.687,0 51.864,8.653 66.73,16.895 16.317,9.047 11.311,1.511 -7.477,-11.255 -27.131,-18.435 -49.204,-23.515 -75.395,-17.351 m -3.586,23.774 c -31.412,6.297 -70.091,30.002 -85.401,52.339 -25.255,36.847 -27.719,51.733 -13.281,80.226 24.655,48.655 133.203,86.897 198.101,69.793 38.534,-10.156 54.84,-21.676 67.826,-47.921 15.814,-31.961 3.328,-76.537 -30.726,-109.697 -36.685,-35.72 -91.653,-53.734 -136.519,-44.74 m 49.841,11.933 c 19.531,3.622 53.641,19.91 71.819,34.295 16.499,13.056 34.482,42.194 37.191,60.264 4.968,33.129 -10.68,64.293 -39.318,78.305 -13.979,6.839 -21.739,8.378 -48.162,9.554 -36.116,1.606 -55.536,-1.786 -86.371,-15.085 -22.008,-9.493 -53.083,-30.088 -62.577,-41.473 -7.708,-9.244 -13.923,-24.993 -13.923,-35.28 0,-14.482 17.028,-44.26 33.596,-58.754 32.849,-28.736 68.16,-39.166 107.745,-31.826 m -39.341,8.821 c -43.809,6.48 -84.002,43.931 -83.906,78.183 0.081,28.819 19.025,51.574 58.98,70.844 53.144,25.631 118.766,24.384 147.258,-2.8 10.573,-10.087 18.688,-31.787 18.639,-49.839 -0.075,-27.144 -31.806,-68.615 -64.405,-84.174 -23.216,-11.08 -52.573,-15.763 -76.566,-12.214 m 206.25,-0.499 c -6.187,0.574 -11.25,2.169 -11.25,3.545 0,3.977 48.173,6.59 102.749,5.573 45.815,-0.853 50.248,-1.407 50.25,-6.273 0,-4.974 -4.431,-5.287 -65.249,-4.613 -35.887,0.398 -70.312,1.193 -76.5,1.768 m -143.51,17.529 c 29.118,10.136 59.389,44.484 64.764,73.487 3.976,21.457 -9.088,48.393 -28.861,59.506 -8.684,4.881 -16.296,6.16 -36.654,6.16 -14.131,0 -32.848,-1.515 -41.591,-3.366 -25.926,-5.49 -58.973,-22.818 -76.013,-39.857 -22.057,-22.058 -23.703,-36.121 -7.088,-60.562 28.299,-41.629 72.035,-53.96 125.443,-35.368 m -78.328,8.906 c -8.613,2.65 -20.091,9.855 -29.535,18.541 -13.304,12.234 -15.663,16.115 -16.996,27.959 -1.909,16.951 3.587,28.659 19.279,41.066 28.877,22.832 63.764,35.115 99.84,35.154 30.97,0.033 42.559,-5.518 53.265,-25.512 20.17,-37.67 -7.102,-84.41 -57.004,-97.694 -19.999,-5.324 -50.671,-5.108 -68.849,0.486 m -1247.41197,4.58 c -81.101,3.989 -75.862,4.64 40.5,5.036 85.113,0.289 114.848,-0.584 127.5,-3.741 15.403,-3.844 12.013,-4.105 -51,-3.924 -37.125,0.107 -89.775,1.29 -117,2.629 m 1328.97897,12.884 c 34.568,17.381 49.917,48.417 36.102,72.998 -5.073,9.025 -9.914,12.974 -20.606,16.806 -16.992,6.09 -28.511,6.342 -37.331,0.816 -3.654,-2.29 -11.761,-5.062 -18.016,-6.159 -25.937,-4.551 -51.973,-20.941 -61.001,-38.4 -10.177,-19.679 4.279,-43.969 31.676,-53.223 22.522,-7.608 44.28,-5.355 69.176,7.162 m 81.021,-7.806 c 0,1.327 4.89,7.064 10.866,12.75 14.179,13.491 21.986,30.807 22.068,48.947 0.082,18.047 -12.799,40.764 -36.436,64.262 -12.436,12.363 -15.028,16.448 -11.728,18.488 5.133,3.172 -7.472,11.602 -32.77,21.915 -13.929,5.679 -22.11,6.727 -52.5,6.727 -37.372,0 -53.343,-2.983 -81.521,-15.224 -15.225,-6.615 -50.74,-27.227 -74.479,-43.226 -26.765,-18.039 -58.156,-35.58 -78,-43.585 -19.501,-7.867 -24.641,-8.566 -72,-9.797 -51.696,-1.344 -76.869,0.446 -160.5,11.414 -75.882,9.952 -97.68,11.667 -156,12.27 -57.857,0.599 -85.512,2.117 -183,10.049 -65.592,5.337 -160.47597,12.137 -232.49997,16.662 -26.4,1.659 -60.825,4.295 -76.5,5.859 -15.675,1.563 -64.95,3.076 -109.5,3.361 -44.55,0.285 -99.9,2.262 -123,4.394 -50.486,4.658 -100.367,6.955 -190.5,8.772 -90.271,1.82 -197.297,6.785 -225,10.438 -68.135997,8.984 -99.811997,10.082 -120.7499969,4.187 -4.139,-1.166 -5.25000002,0.376 -5.25000002,7.283 0,8.592 0.277,8.743 14.24999992,7.775 7.838,-0.544 38.55,-2.451 68.25,-4.238 29.699997,-1.788 74.924997,-5.218 100.499997,-7.621 25.575,-2.404 103.2,-5.759 172.5,-7.456 267.191,-6.541 361.018,-10.49 415.5,-17.488 12.375,-1.589 46.125,-4.414 75,-6.278 28.875,-1.864 63.975,-4.608 78,-6.099 14.025,-1.491 41.7,-3.443 61.5,-4.337 104.08497,-4.702 176.94997,-7.609 229.49997,-9.158 32.175,-0.948 69.3,-3.066 82.5,-4.706 13.2,-1.639 35.475,-4.314 49.5,-5.944 14.025,-1.63 36.975,-4.892 51,-7.249 68.133,-11.45 160.471,-15.064 202.5,-7.924 44.287,7.523 89.869,26.262 139.413,57.312 48.723,30.535 91.009,46 136.669,49.983 49.623,4.328 98.629,-14.028 146.918,-55.031 32.324,-27.447 58.587,-44.919 73.241,-48.726 5.917,-1.538 23.584,-3.605 39.259,-4.595 44.624,-2.818 54,-4.426 54,-9.261 0,-5.023 -4.355,-5.129 -63.237,-1.536 -55.16,3.365 -67.548,9.366 -119.68,57.97 -11.946,11.138 -23.034,20.25 -24.64,20.25 -1.606,0 8.776,-12.717 23.071,-28.261 40.301,-43.821 70.09,-57.304 134.236,-60.757 19.388,-1.044 35.252,-2.704 35.254,-3.69 0,-0.986 -15.185,-1.364 -33.75,-0.84 -32.299,0.911 -35.101,0.482 -65.001,-9.966 -32.205,-11.254 -76.342,-31.967 -79.703,-37.405 -2.256,-3.65 -7.55,-4.119 -7.55,-0.67 m -140.402,3.384 c -15.626,3.96 -13.747,4.695 12.406,4.852 18.619,0.112 28.026,1.74 39.21,6.787 19.856,8.96 21.286,5.947 1.85,-3.901 -16.987,-8.609 -38.021,-11.653 -53.466,-7.738 m 187.943,4.871 c 23.214,10.609 76.687,21.829 106.959,22.443 47.433,0.962 46.501,1.129 46.494,-8.359 l -0.01,-8.25 -53.245,-0.389 c -29.284,-0.215 -62.019,-1.946 -72.744,-3.849 -10.725,-1.902 -23.55,-4.072 -28.5,-4.822 l -9,-1.363 10.041,4.589 m -1988.535967,6.086 c -17.325,2.118 -35.212,3.94 -39.7499999,4.049 -7.528,0.182 -8.25000002,1.203 -8.25000002,11.681 v 11.482 l 17.24999992,-3.76 c 33.322,-7.263 163.458997,-22.194 193.499997,-22.201 7.838,0 14.249,-1.015 14.248,-2.253 -0.005,-3.913 -143.430997,-3.101 -176.997997,1.002 m 1662.460967,11.012 c -10.99,8.508 -22.321,14.035 -36,17.562 -10.978,2.83 -16.846,5.265 -13.039,5.41 17.656,0.674 34.463,7.643 48.187,19.982 l 14.41,12.956 -7.01,-13.846 c -8.94,-17.659 -8.839,-19.6 2.017,-38.835 4.964,-8.796 8.676,-15.915 8.25,-15.819 -0.427,0.096 -7.993,5.761 -16.815,12.59 m 127.397,-9.661 c -21.678,6.491 -29.6,27.407 -16.108,42.53 8.01,8.977 30.719,22.462 44.747,26.57 14.222,4.165 39.091,4.039 52.526,-0.265 35.752,-11.455 32.638,-39.46 -6.341,-57.021 -29.514,-13.296 -55.94,-17.468 -74.824,-11.814 m -372.358,7.755 c -6.6,0.652 -40.35,4.053 -75,7.558 -48.834,4.94 -86.272,6.508 -166.5,6.976 -70.307,0.41 -117.932,2.146 -148.5,5.413 -24.75,2.646 -76.72497,5.613 -115.49997,6.594 -38.775,0.981 -81.3,3.013 -94.5,4.516 -13.2,1.503 -50.325,3.591 -82.5,4.641 -56.185,1.833 -124.598,7.567 -153,12.825 -7.425,1.374 -33.75,2.799 -58.5,3.166 -46.28,0.686 -117.63,5.561 -122.134,8.345 -1.395,0.862 -39.961,2.718 -85.702,4.124 -79.936,2.456 -103.063,4.187 -182.164,13.635 -19.8,2.365 -44.1,5.077 -54,6.027 -9.9,0.949 -29.812997,3.66 -44.250997,6.024 -14.439,2.364 -30.526,4.298 -35.75,4.298 -5.225,0 -8.615,0.884 -7.533,1.966 5.593,5.593 86.238997,0.148 170.033997,-11.482 31.304,-4.345 72.098,-6.768 145.5,-8.645 146.74,-3.752 236.962,-7.872 285,-13.014 65.472,-7.008 137.842,-13.409 174,-15.389 18.15,-0.994 43.612,-3.749 56.581,-6.122 15.417,-2.82 46.06,-4.404 88.5,-4.575 35.706,-0.144 77.06897,-1.497 91.91897,-3.007 52.283,-5.316 129.779,-6.434 202.5,-2.922 62.891,3.037 81.727,2.864 130.5,-1.2 31.35,-2.613 65.775,-6.06 76.5,-7.66 10.725,-1.601 39.75,-4.34 64.5,-6.087 24.75,-1.746 48.028,-3.924 51.729,-4.839 13.747,-3.399 3.004,-6.151 -31.37,-8.037 -19.447,-1.067 -42.784,-2.474 -51.859,-3.127 -9.075,-0.653 -21.9,-0.654 -28.5,0 m 430.383,7.378 c 16.389,7.05 30.117,20.691 30.117,29.925 0,9.585 -13.831,16.154 -32.901,15.625 -20.532,-0.569 -49.34,-10.76 -55.573,-19.659 -8.775,-12.528 -4.113,-29.767 8.974,-33.19 10.753,-2.812 33.798,0.594 49.383,7.299 m -40.383,-1.065 c -21.457,5.274 -15.495,24.808 10.198,33.413 16.389,5.49 18.135,3.656 2.38,-2.5 -17.638,-6.891 -23.078,-11.184 -23.078,-18.213 0,-5.904 13.166,-10.276 28,-9.298 10.607,0.699 28.646,9.738 36.279,18.179 7.422,8.206 3.459,12.577 -13.969,15.413 -12.61,2.052 -12.645,2.09 -2.228,2.46 11.464,0.406 23.918,-6.437 23.918,-13.142 0,-5.811 -17.372,-18.469 -32.833,-23.924 -13.12,-4.629 -17.922,-5.029 -28.667,-2.388 m -1594.49997,11.964 c -5.775,0.647 -38.175,5.96 -72,11.805 -69.246,11.966 -99.563997,15.358 -151.326997,16.932 -26.291,0.799 -36.1799999,2.146 -37.1509999,5.059 -1.07900002,3.239 8.022,3.627 49.3269999,2.108 58.254997,-2.143 94.885997,-6.727 170.650997,-21.356 29.7,-5.734 61.425,-11.674 70.5,-13.199 l 16.5,-2.773 -18,0.123 c -9.9,0.069 -22.725,0.654 -28.5,1.301 m 1603.70997,0.523 c -3.595,5.816 19.214,16.721 28.686,13.714 8.027,-2.547 6.929,-6.535 -3.247,-11.797 -9.782,-5.058 -22.887,-6.046 -25.439,-1.917 m 315.728,5.389 c 2.165,0.867 4.753,0.76 5.75,-0.236 0.996,-0.997 -0.775,-1.706 -3.938,-1.576 -3.495,0.144 -4.206,0.855 -1.812,1.812 m -779.438,13.374 c -17.325,1.329 -86.85,3.659 -154.5,5.178 -76.724,1.722 -136.544,4.5 -159,7.382 -19.8,2.542 -68.4,5.432 -107.99997,6.422 -39.6,0.991 -76.05,2.448 -81,3.239 -4.95,0.791 -37.35,2.731 -72,4.312 -34.65,1.581 -70.425,4.332 -79.5,6.114 -9.075,1.783 -36.075,4.419 -60,5.86 -23.925,1.441 -59.025,4.059 -78,5.818 -71.295,6.611 -199.263,12.354 -277.5,12.454 -44.55,0.057 -95.175,1.301 -112.5,2.765 -17.325,1.464 -58.5,4.77 -91.5,7.347 -32.999997,2.576 -65.521997,5.481 -72.269997,6.454 -8.299,1.197 -18.84,-0.26 -32.566,-4.499 -23.94099992,-7.395 -22.66399992,-7.254 -22.66399992,-2.496 0,2.225 8.72600002,5.738 21.27499992,8.564 18.656,4.201 25.399,4.309 54.75,0.875 67.861997,-7.939 155.872997,-13.234 246.474997,-14.829 51.15,-0.901 115.95,-2.889 144,-4.418 28.05,-1.53 85.425,-4.237 127.5,-6.017 99.033,-4.19 211.793,-11.669 315,-20.895 18.975,-1.696 62.85,-4.492 97.49997,-6.213 34.65,-1.721 76.5,-5.131 93,-7.578 19.633,-2.911 74.061,-5.393 157.5,-7.183 116.139,-2.49 196.664,-6.743 200.51,-10.589 1.824,-1.824 -15.078,-1.246 -56.51,1.933 m 78,20.53 c -31.479,2.242 -77.117,9.252 -118.5,18.202 -22.575,4.883 -70.441,12.535 -118.5,18.943 -5.775,0.77 -24.482,3.554 -41.572,6.185 -17.09,2.632 -53.54,6.862 -81,9.401 -27.46,2.539 -63.428,5.888 -79.928,7.443 -138.44297,13.048 -195.77397,14.955 -485.99997,16.168 -108.9,0.455 -231.75,2.378 -273,4.274 -41.25,1.895 -115.5,4.874 -165,6.621 -49.499997,1.746 -95.736997,3.91 -102.749997,4.808 -12.60999992,1.614 -12.74999992,1.765 -12.74999992,13.667 0,11.569 0.319,11.964 8.25000002,10.218 23.1909999,-5.106 59.3919999,-5.474 94.2799969,-0.957 41.767,5.407 98.558,9.672 188.47,14.154 33.825,1.686 76.35,4.483 94.5,6.215 77.064,7.356 254.464,1.928 354,-10.832 79.367,-10.173 96.869,-11.447 165,-12.008 66.124,-0.544 77.753,-1.48 142.49997,-11.48 215.592,-33.297 201.599,-31.817 321,-33.944 92.488,-1.647 110.447,-1.224 136.5,3.213 26.852,4.573 117.356,30.213 165,46.745 29.371,10.192 71.603,20.036 128.885,30.042 88.27,15.42 142.813,12.241 192.379,-11.21 16.458,-7.787 43.074,-27.469 78.314,-57.909 16.415,-14.18 42.21,-24.606 85.672,-34.628 29.605,-6.826 35.25,-9.03 35.25,-13.763 0,-4.308 -1.59,-5.266 -6.75,-4.069 -9.358,2.171 -49.04,10.645 -64.77,13.831 -19.722,3.994 -40.568,16.695 -67.566,41.164 -32.79,29.72 -55.17,44.013 -84.179,53.762 -22.415,7.533 -27.839,8.138 -72.235,8.053 l -48,-0.091 -46.5,-13.91 c -25.575,-7.65 -83.625,-26.229 -129,-41.285 -97.441,-32.334 -128.832,-40.838 -167.615,-45.412 -35.513,-4.189 -102.65,-1.723 -130.145,4.78 -11.144,2.636 -44.894,7.441 -75,10.678 -30.107,3.238 -75.665,9.318 -101.24,13.512 -25.575,4.195 -62.025,9.684 -81,12.198 -18.975,2.515 -48.675,7.099 -66,10.188 -49.699,8.86 -111.24697,13.309 -148.29497,10.72 -34.57,-2.416 -36.75,-5.581 -6.205,-9.007 9.9,-1.11 35.327,-4.581 56.504,-7.712 21.178,-3.132 55.60297,-7.159 76.49997,-8.95 82.639,-7.082 158.706,-16.947 240.496,-31.192 22.275,-3.879 57.375,-8.667 78,-10.641 20.625,-1.973 52.757,-5.511 71.404,-7.863 43.148,-5.441 58.868,-5.373 98.755,0.429 37.085,5.393 82.16,17.65 121.854,33.134 66.79,26.053 103.585,37.162 123.09,37.162 12.634,0 25.775,2.451 39.155,7.305 48.229,17.493 101.266,22.397 134.947,12.477 21.452,-6.318 55.862,-22.379 72.535,-33.856 90.008,-61.96 100.002,-66.784 169.26,-81.712 10.475,-2.257 6.105,-2.556 -19.5,-1.334 -53.518,2.555 -64.154,7.197 -147,64.152 -24.108,16.573 -59.71,34.452 -79.697,40.023 -60.715,16.921 -122.161,2.242 -211.354,-50.49 -20.569,-12.16 -46.23,-24.316 -71.949,-34.083 -29.951,-11.375 -110.128,-25.707 -134.368,-24.02 -3.647,0.253 -19.457,1.374 -35.132,2.491 m 97.5,17.744 c 25.113,6.945 85.5,29.862 85.5,32.447 0,0.824 -2.362,0.563 -5.25,-0.579 -5.743,-2.273 -32.254,-9.59 -83.25,-22.977 -49.667,-13.039 -86.791,-13.98 -162,-4.109 -22.809,2.994 -4.001,-2.127 27.944,-7.609 44.276,-7.597 103.801,-6.37 137.056,2.827 m -69,34.971 c 38.545,6.636 97.994,23.432 138.851,39.229 19.332,7.474 56.749,20.993 83.149,30.042 27.334,9.37 42.188,15.611 34.5,14.498 -7.425,-1.075 -39.15,-10.679 -70.5,-21.343 -136.59,-46.461 -171.105,-53.986 -261.775,-57.075 -31.776,-1.083 -57.298,-2.446 -56.715,-3.029 0.583,-0.583 11.057,-2.219 23.275,-3.636 36.126,-4.189 80.345,-3.657 109.215,1.314 m 166.5,1.332 c 2.475,1.599 3.15,2.908 1.5,2.908 -1.65,0 -5.025,-1.309 -7.5,-2.908 -2.475,-1.599 -3.15,-2.908 -1.5,-2.908 1.65,0 5.025,1.309 7.5,2.908 m 483,1.275 c -46.11,10.23 -75.527,25.969 -110.313,59.02 -18.373,17.457 -32.702,28.667 -47.187,36.914 l -9,5.124 10.288,-1.699 c 13.36,-2.206 35.564,-16.569 61.007,-39.462 24.377,-21.933 73.818,-47.789 96.705,-50.574 25.345,-3.084 31.5,-4.908 31.5,-9.336 0,-5.133 -9.821,-5.129 -33,0.013 m -438,16.888 c 30.478,12.311 40.967,17.837 33.856,17.837 -6.589,0 -50.591,-18.159 -62.356,-25.733 -14.201,-9.143 -12.548,-8.685 28.5,7.896 m 449.966,1.244 c -27.553,6.043 -49.723,15.692 -69.583,30.284 -10.385,7.632 -19.477,14.454 -20.202,15.162 -0.726,0.707 10.074,-3.97 24,-10.392 28.057,-12.94 49.58,-18.461 71.967,-18.461 h 14.852 v -10.5 c 0,-5.775 -1.012,-10.324 -2.25,-10.11 -1.237,0.215 -9.69,2.022 -18.784,4.017 m -842.966,7.64 c -5.775,1.345 -30.75,3.98 -55.5,5.857 -24.75,1.876 -61.2,5.96 -81,9.074 -37.768,5.942 -73.769,10.915 -99,13.678 -8.25,0.903 -31.221,3.601 -51.046,5.996 -19.826,2.395 -81.25097,7.71 -136.49997,11.81 -55.25,4.101 -115.304,8.849 -133.454,10.551 -18.15,1.702 -60.702,5.089 -94.561,7.527 -33.858,2.438 -72.264,5.79 -85.346,7.448 -31.287,3.967 -221.4,4.135 -280.593,0.248 -25.575,-1.679 -74.087,-3.819 -107.805,-4.756 -33.718,-0.936 -78.268,-3.025 -99,-4.642 -49.908997,-3.893 -102.19899692,-0.905 -102.18499692,5.839 0.009,4.349 14.08899992,4.923 143.24999692,5.841 78.782,0.559 158.09,2.265 176.24,3.79 18.15,1.525 76.892,3.628 130.538,4.674 78.816,1.536 108.183,0.939 153,-3.112 221.527,-20.023 315.096,-26.698 427.46197,-30.495 46.826,-1.582 96.399,-4.434 184.305,-10.604 33.686,-2.365 61.007,-1.978 123,1.738 43.832,2.628 81.72,5.322 84.195,5.987 2.475,0.664 26.1,2.676 52.5,4.47 90.368,6.142 242.489,29.527 292.5,44.965 15.675,4.838 41.325,11.021 57,13.738 36.007,6.243 105.093,7.096 135,1.667 30.51,-5.539 69.784,-19.734 89.512,-32.354 8.952,-5.727 24.756,-14.296 35.119,-19.042 21.671,-9.926 80.172,-29.474 95.789,-32.008 11.39,-1.848 14.914,-9.932 4.33,-9.932 -11.305,0 -79.394,18.68 -97.25,26.68 -3.3,1.479 -23.55,10.879 -45,20.889 -21.45,10.01 -49.8,20.899 -63,24.199 -77.143,19.282 -159.722,12.666 -253.5,-20.313 -14.025,-4.932 -41.025,-14.568 -60,-21.414 -138.301,-49.899 -144.367,-51.127 -250.5,-50.73 -42.9,0.16 -82.725,1.392 -88.5,2.736 m -496.49997,6.198 c -28.388,4.803 -234.134,14.803 -319.5,15.528 -80.837,0.687 -200.217,-4.414 -226.5,-9.679 -7.616,-1.526 15.399,-2.682 63,-3.164 41.25,-0.418 97.275,-1.586 124.5,-2.595 78.21,-2.899 375.546,-2.974 358.5,-0.09 m 41.307,-1.277 c -2.031,0.822 -6.081,0.872 -9,0.111 -2.919,-0.761 -1.257,-1.433 3.693,-1.494 4.95,-0.061 7.338,0.561 5.307,1.383 m -686.307,13.052 c 160.635,11.763 326.091,15.818 427.5,10.48 93.699,-4.933 173.979,-6.879 172.303,-4.175 -5.156,8.316 -170.81,20.709 -289.303,21.643 -67.392,0.531 -202.752,-4.734 -259.5,-10.094 -110.39,-10.426 -135.956,-12.372 -168.731997,-12.845 -38.168,-0.55 -49.517,-3.93 -19.518,-5.812 34.522,-2.166 102.095997,-1.771 137.249997,0.803 m 1243.76797,1.462 c 25.428,2.465 53.995,5.84 63.482,7.5 63.656,11.138 73.857,13.252 120,24.862 21.038,5.293 38.25,10.789 38.25,12.211 0,1.423 -1.906,1.855 -4.237,0.961 -9.243,-3.547 -146.418,-20.721 -219.263,-27.451 -63.425,-5.861 -143.978,-10.59 -184.5,-10.832 -18.975,-0.114 -33.038,-0.813 -31.25,-1.553 1.787,-0.741 20.687,-3.156 42,-5.367 53.356,-5.537 120.513,-5.663 175.518,-0.331 m 739.232,21.354 c -39.344,9.118 -82.116,27.445 -130.532,55.931 -19.808,11.654 -52.304,23.303 -77.968,27.95 -46.381,8.398 -96.576,5.235 -217.5,-13.703 -193.732,-30.341 -246.647,-35.868 -406.5,-42.457 -97.355,-4.013 -327.916,-3.906 -374.99997,0.174 -18.975,1.645 -45.3,5.171 -58.5,7.836 -17.02,3.437 -52.792,5.595 -123,7.422 -54.45,1.417 -108.45,3.969 -120,5.67 -68.053,10.024 -345.118,13.924 -423,5.954 -51.199,-5.239 -115.237,-6.43 -145.499997,-2.707 -15.675,1.929 -40.361,4.724 -54.859,6.212 -31.0089999,3.183 -44.8829999,8.647 -22.32,8.791 7.877,0.05 31.502,2.296 52.5,4.992 31.199,4.004 42.291997,4.275 60.678997,1.48 33.826,-5.143 120.734,-4.082 211.876,2.585 44.757,3.274 100.107,6.582 123,7.351 22.893,0.77 60.524,2.883 83.624,4.695 58.026,4.554 202.513,-2.612 270,-13.39 66.12,-10.56 70.926,-11.042 197.99997,-19.85 59.499,-4.125 198.728,-3.848 231,0.459 13.2,1.761 90.825,4.376 172.5,5.811 127.937,2.247 152.654,3.42 178.5,8.473 16.5,3.225 48.225,9.366 70.5,13.645 22.275,4.28 47.814,9.803 56.754,12.272 50.359,13.912 170.081,22.281 216.246,15.117 46.706,-7.248 53.138,-9.892 130.5,-53.65 35.836,-20.27 86.183,-40.552 106.694,-42.981 13.882,-1.644 14.806,-2.289 14.806,-10.336 0,-4.72 -1.012,-8.432 -2.25,-8.25 -1.237,0.183 -10.35,2.21 -20.25,4.504 M 2.4917331,1457.175 c -1.1,1.1 -2.00000002,4.291 -2.00000002,7.09 0,4.514 1.78600002,4.758 15.74999992,2.159 14.209,-2.645 64.264,-1.969 149.249997,2.017 l 28.5,1.337 -27,-2.475 c -14.85,-1.362 -41.553,-4.647 -59.341,-7.302 -32.126997,-4.794 -101.3309969,-6.654 -105.1589969,-2.826 M 2154.4917,1483.471 c -27.342,7.615 -73.408,31.353 -123.64,63.712 -25.086,16.161 -28.635,21.809 -19.246,30.63 11.987,11.261 41.614,15.252 113.636,15.31 l 65.25,0.052 v -8.25 c 0,-8.044 -0.43,-8.25 -17.25,-8.25 -13.847,0 -83.991,-9.207 -117.001,-15.357 -11.5,-2.142 -7.594,-8.781 15.312,-26.021 34.895,-26.264 70.465,-42.288 107.688,-48.513 6.188,-1.034 11.25,-3.17 11.25,-4.745 0,-3.917 -19.593,-3.137 -36,1.432 m 7.443,18.113 c -22.367,4.87 -37.488,11.097 -56.906,23.435 -22.865,14.528 -29.705,21.467 -24.958,25.318 6.756,5.479 50.693,13.217 80.421,14.162 15.675,0.499 21.75,0.389 13.5,-0.244 -44.636,-3.426 -73.641,-11.571 -68.843,-19.333 3.438,-5.564 25.905,-18.203 39.913,-22.454 7.662,-2.326 21.018,-4.243 29.68,-4.261 l 15.751,-0.032 v -10.5 c 0,-12.029 -0.65,-12.168 -28.557,-6.091 m -1165.44297,15.88 c 0,3.262 38.35597,8.881 148.49997,21.759 67.13,7.848 234.616,10.582 279,4.555 4.95,-0.673 25.2,-2.779 45,-4.681 38.896,-3.736 58.5,-7.661 58.5,-11.712 0,-5.413 -18.321,-6.28 -124.113,-5.874 -60.081,0.23 -110.538,-0.384 -112.126,-1.366 -4.913,-3.036 -294.76097,-5.672 -294.76097,-2.681 m 151.96497,4.969 c 60.746,6.712 67.717,7.215 65.046,4.694 -1.381,-1.303 -5.211,-3.129 -8.511,-4.056 -6.439,-1.81 36.517,-0.401 122.616,4.023 29.489,1.515 74.172,1.952 99.296,0.97 32.881,-1.284 46.278,-0.818 47.812,1.664 1.432,2.318 -1.122,3.519 -7.797,3.668 -5.46,0.121 -35.005,1.809 -65.657,3.75 -32.326,2.047 -74.531,2.679 -100.5,1.505 -24.623,-1.114 -67.72,-2.876 -95.77,-3.917 -28.05,-1.04 -63.15,-3.805 -78,-6.144 -14.85,-2.339 -32.203,-4.88 -38.563,-5.647 -6.359,-0.766 -12.321,-2.152 -13.25,-3.081 -3.061,-3.061 34.103,-1.758 73.278,2.571 m -220.96497,6.838 c -7.425,0.576 -39.15,4.371 -70.5,8.433 -138.021,17.882 -241.008,21.23 -367.5,11.948 -33.825,-2.482 -89.175,-4.366 -123,-4.188 -33.825,0.179 -87.825,-1.301 -120,-3.289 -33.256,-2.055 -77.918,-2.786 -103.5,-1.694 -34.773,1.485 -50.388997,0.864 -68.711997,-2.73 -13.042,-2.559 -24.216,-4.148 -24.832,-3.532 -1.61,1.61 31.368,10.472 45.544,12.238 6.599997,0.822 53.849997,2.296 104.999997,3.275 51.15,0.98 108.525,3.032 127.5,4.561 18.975,1.529 67.575,4.103 108,5.719 40.425,1.617 80.613,3.765 89.307,4.774 8.693,1.009 38.393,1.471 66,1.026 92.462,-1.489 113.022,-1.111 144.471,2.658 17.202,2.061 79.302,5.12 138,6.796 58.697,1.676 122.922,5.119 142.72197,7.649 76.059,9.721 149.569,8.202 229.5,-4.741 98.858,-16.009 228.536,-25.17 327.745,-23.153 71.022,1.443 82.29,2.391 114.755,9.654 82.36,18.424 91.116,19.588 168,22.334 76.708,2.741 83.368,3.661 148.5,20.515 26.826,6.941 37.287,8.115 70.5,7.908 48.914,-0.304 115.5,-4.23 115.5,-6.809 0,-1.071 -35.438,-2.053 -78.75,-2.182 -72.601,-0.216 -80.39,-0.753 -99.75,-6.878 -46.616,-14.75 -52.46,-15.562 -122.855,-17.082 -69.414,-1.498 -106.596,-5.397 -156.145,-16.374 -25.852,-5.727 -82.056,-15.155 -125.418,-21.039 -28.51,-3.869 -131.702,-1.135 -173.082,4.584 -60.775,8.401 -235.295,5.249 -341.811,-6.172 -23.821,-2.555 -44.383,-5.307 -45.692,-6.116 -1.309,-0.809 -16.919,-3.406 -34.689,-5.772 -30.54897,-4.066 -54.03997,-4.709 -84.80797,-2.321 m 300.74997,0.089 c 6.188,0.648 16.313,0.648 22.5,0 6.188,-0.647 1.125,-1.176 -11.25,-1.176 -12.375,0 -17.437,0.529 -11.25,1.176 m 912.75,0.364 c -30.565,9.939 -16.01,23.014 28.5,25.601 10.725,0.624 15.45,0.56 10.5,-0.141 -16.621,-2.354 -37.5,-10.454 -37.5,-14.548 0,-4.978 6.315,-7.09 30.652,-10.252 l 18.848,-2.448 -22.5,-0.082 c -12.375,-0.044 -25.2,0.797 -28.5,1.87 m -850.5,3.618 c 14.025,1.231 32.925,2.173 42,2.094 l 16.5,-0.143 -18,-2.233 c -9.9,-1.229 -28.8,-2.171 -42,-2.095 l -24,0.139 25.5,2.238 m -232.204,13.473 c 27.887,4.429 53.404,9.254 56.704,10.724 6.979,3.107 -47.738,1.029 -102,-3.874 -53.68597,-4.851 -60.50497,-4.865 -130.23297,-0.253 -44.127,2.919 -66.194,3.297 -70.5,1.209 -5.51,-2.673 -4.974,-3.064 4.432,-3.243 5.884,-0.112 18.709,-1.709 28.5,-3.549 69.466,-13.058 135.277,-13.371 213.09697,-1.014 m 1102.376,-7.746 c -1.99,1.229 3.452,3.055 12.191,4.09 14.233,1.686 20.806,0.903 17.387,-2.071 -2.843,-2.473 -26.258,-4.071 -29.578,-2.019 M 60.491733,1552.614 c 0,0.791 5.52,4.255 12.268,7.698 18.953,9.669 43.596997,35.319 47.425997,49.363 5.311,19.476 3.906,29.594 -7.138,51.389 -15.821997,31.226 -13.822997,36.434 6.085,15.848 23.972,-24.789 60.417,-36.331 107.859,-34.16 182.261,8.343 213.614,8.463 247.5,0.954 15.37,-3.407 38.287,-7.545 64.5,-11.648 11.743,-1.839 38.552,-1.626 77.125,0.612 62.587,3.63 111.561,1.155 159.813,-8.077 12.699,-2.43 23.646,-4.418 24.326,-4.418 0.68,0 1.236,-1.438 1.236,-3.196 0,-2.207 -16.928,-2.659 -54.75,-1.46 -30.112,0.954 -151.275,2.055 -269.25,2.446 -194.753,0.645 -217.167,0.218 -243.473,-4.632 -53.865,-9.932 -57.631,-11.215 -137.378997,-46.821 -36.277,-16.196 -36.148,-16.147 -36.148,-13.898 m 31.5,6.834 c 5.269,5.366 47.229997,18.174 70.499997,21.52 12.375,1.78 38.025,5.933 57,9.23 28.361,4.928 45.976,5.883 99,5.368 108.608,-1.056 146.344,-0.66 291.105,3.059 141.772,3.642 202.169,6.817 206.174,10.838 2.732,2.741 -10.3,13.712 -16.288,13.712 -2.521,0 -3.446,1.454 -2.205,3.464 1.211,1.959 0.834,2.655 -0.868,1.603 -1.656,-1.023 -13.677,1.289 -26.714,5.137 -45.604,13.462 -102.452,20.763 -169.204,21.732 -33.825,0.49 -79.336,3.093 -101.136,5.784 -35.827,4.422 -50.964,4.503 -157.5,0.836 -64.825,-2.231 -127.6,-3.782 -139.499,-3.447 -23.285,0.654 -50.558,9.686 -75.865,25.122 -14.809,9.033 -48.045997,20.769 -58.817997,20.769 -3.756,0 -7.662,1.35 -8.682,3 -5.89,9.53 42.079997,-3.263 89.255997,-23.803 44.738,-19.478 63.361,-22.404 115.967,-18.221 92.646,7.368 115.124,8.837 163.882,10.712 31.861,1.225 63.492,0.667 84,-1.482 18.092,-1.896 65.97,-4.665 106.395,-6.153 68.121,-2.507 76.842,-3.477 119.164,-13.249 41.47,-9.576 81.083,-22.487 89.663,-29.224 5.789,-4.545 37.768,-14.58 46.466,-14.58 4.594,0 9.065,-1.153 9.936,-2.562 0.871,-1.409 -10.187,-3.394 -24.573,-4.411 -14.386,-1.017 -43.031,-5.928 -63.656,-10.913 -23.566,-5.696 -60.821,-11.447 -100.259,-15.476 l -62.76,-6.413 -48.101,6.842 c -43.048,6.123 -54.104,6.601 -105.241,4.555 -31.426,-1.258 -89.539,-2.748 -129.139,-3.312 -39.6,-0.564 -82.125,-2.455 -94.5,-4.203 -12.375,-1.748 -49.5,-5.835 -82.5,-9.082 -33,-3.248 -65.4,-6.783 -72,-7.856 -8.127997,-1.321 -11.031997,-0.965 -8.999997,1.104 m 899.248997,3.805 c 71.41397,3.522 135.21497,3.631 171.75097,0.293 14.85,-1.357 42.525,-1.598 61.5,-0.537 29.629,1.658 33.371,2.417 26.503,5.377 -15.264,6.581 -84.381,13.9 -131.503,13.926 -42.798,0.024 -77.391,-2.29 -152.99997,-10.234 -15.675,-1.647 -66.975,-3.531 -114,-4.188 -47.025,-0.656 -90.225,-2.297 -96,-3.647 l -10.5,-2.454 12,-1.609 c 17.153,-2.299 163.355,-0.373 233.249,3.073 m -990.74899692,5.181 c 0,4.605 3.50800002,5.318 28.22199992,5.736 33.829,0.573 52.704,7.358 60.065,21.593 6.699,12.955 5.922,13.963 -4.199,5.446 -10.932,-9.198 -32.205,-14.034 -61.736,-14.034 -16.7579999,0 -22.35199992,1.013 -22.35199992,4.048 0,2.98 7.48600002,4.539 28.38599992,5.912 40.778,2.678 55.614,10.412 55.614,28.992 0,21.705 -20.222,34.592 -59.413,37.86 -18.9769999,1.583 -24.58699992,3.08 -24.58699992,6.563 0,3.809 4.09400002,4.235 26.24999992,2.732 30.954,-2.1 52.588,-8.86 58.825,-18.38 2.469,-3.767 5.481,-12.11 6.694,-18.538 2.172,-11.514 2.245,-11.569 4.894,-3.662 1.677,5.008 1.49,12.477 -0.498,19.858 -7.479,27.776 -28.67,40.044 -69.173,40.044 -22.1279999,0 -26.99199992,0.82 -26.99199992,4.551 0,3.849 4.97600002,4.394 32.24999992,3.535 40.367,-1.271 56.687,-8.013 68.600997,-28.343 7.247,-12.366 7.625,-14.855 5.646,-37.211 -3.037,-34.3 -12.784997,-52.481 -34.089997,-63.579 -14.279,-7.438 -19.264,-8.382 -44.25,-8.382 -24.8339999,0 -28.15699992,0.621 -28.15699992,5.259 M 1573.9917,1572.285 c -11.55,1.18 -40.575,2.311 -64.5,2.514 -23.925,0.202 -54.3,1.687 -67.5,3.298 -13.2,1.611 -38.85,4.4 -57,6.198 -18.15,1.798 -62.025,8.024 -97.5,13.835 -69.463,11.379 -48.955,10.333 -279,14.231 -78.43397,1.329 -117.95197,7.096 -167.99997,24.517 -17.325,6.031 -33.57,12.055 -36.099,13.388 -2.53,1.333 -24.777,7.956 -49.438,14.718 -96.804,26.543 -218.716,32.032 -472.463,21.273 l -88.5,-3.753 -45,15.044 c -24.75,8.273 -47.7,15.693 -50.999997,16.487 -3.3,0.794 0.921,1.601 9.380997,1.792 9.877,0.223 25.981,-3.059 45,-9.173 l 29.619,-9.521 81,0.059 c 44.55,0.032 126.787,1.811 182.749,3.955 169.168,6.478 220.531,0.696 375.251,-42.243 50.475,-14.009 176.157,-26.139 293.99997,-28.376 33,-0.626 68.1,-2.392 78,-3.924 9.9,-1.532 42.111,-6.317 71.58,-10.634 29.469,-4.317 54.501,-8.418 55.626,-9.113 1.125,-0.696 22.914,-3.971 48.42,-7.278 137.148,-17.785 241.063,-15.614 407.874,8.523 22.275,3.223 51.975,6.7 66,7.726 14.025,1.026 46.758,6.522 72.739,12.214 71.484,15.659 87.897,16.966 167.742,13.364 63.754,-2.876 101.336,-7.732 106.907,-13.812 1.162,-1.268 -1.263,-1.381 -5.388,-0.253 -4.125,1.129 -24.837,3.615 -46.026,5.524 -48.913,4.408 -103.184,0.189 -163.974,-12.748 -41.477,-8.827 -111.255,-18.355 -207.699,-28.363 -52.614,-5.459 -83.982,-9.766 -98.301,-13.497 -5.775,-1.504 -20.625,-3.55 -33,-4.547 -12.375,-0.996 -26.55,-2.207 -31.5,-2.691 -4.95,-0.483 -18.45,0.086 -30,1.266 M 1.2417331,1605.924 c 0.687,2.061 7.385,4.626 14.8849999,5.699 14.049,2.009 26.377,7.166 29.837,12.479 5.972,9.17 -11.314,20.073 -31.823,20.073 -10.1319999,0 -13.64899992,1.159 -13.64899992,4.5 0,7.641 32.05199992,5.916 51.72299992,-2.783 23.396,-10.347 25.609,-20.078 7.158,-31.481 -5.238,-3.238 -18.266,-7.305 -28.952,-9.039 -25.3279999,-4.109 -30.69899992,-4.007 -29.1789999,0.552 M 1542.4917,1607.35 c -93.056,2.462 -163.839,10.502 -324,36.804 -25.254,4.148 -56.641,6.089 -117.12,7.245 -76.069,1.453 -139.00697,5.779 -203.87997,14.014 -14.025,1.78 -30.701,3.873 -37.058,4.65 -20.518,2.508 -113.844,21.735 -134.073,27.622 -10.797,3.142 -32.735,8.072 -48.75,10.956 -16.016,2.883 -29.119,5.953 -29.119,6.821 0,3.134 44.032,-2.081 67.5,-7.995 136.576,-34.415 219.883,-44.633 416.99997,-51.148 61.511,-2.033 93.594,-4.583 133.342,-10.599 28.788,-4.357 53.29,-8.509 54.449,-9.225 1.159,-0.716 14.73,-2.65 30.158,-4.297 15.428,-1.646 46.276,-5.02 68.551,-7.497 22.275,-2.477 74.567,-5.878 116.205,-7.558 105.531,-4.257 131.619,-1.922 269.295,24.108 69.922,13.22 139.369,24.129 171.75,26.978 43.103,3.794 106.197,-1.26 168.75,-13.514 12.375,-2.425 27.184,-5.185 32.909,-6.133 5.725,-0.949 11.012,-2.328 11.75,-3.066 2.798,-2.798 -11.691,-1.138 -38.931,4.46 -57.767,11.87 -136.537,15.774 -186.54,9.244 -31.751,-4.146 -117.848,-18.254 -201.688,-33.048 -98.161,-17.321 -140.53,-20.938 -220.5,-18.822 M 0.49173308,1624.775 c 0,7.38 0.65100002,7.674 15.03899992,6.807 16.348,-0.986 20.919,-5.299 8.961,-8.454 -24.80499992,-6.546 -23.99999992,-6.601 -23.99999992,1.647 M 1563.4917,1634.231 c -122.915,4.722 -151.797,7.263 -255,22.435 -92.146,13.547 -187.938,23.375 -228.573,23.45 -17.64,0.032 -32.816,1.261 -33.724,2.73 -2.305,3.73 31.279,3.838 101.848,0.326 65.19,-3.243 86.356,-5.537 139.449,-15.111 101.94,-18.382 192.761,-26.911 289.5,-27.189 56.539,-0.162 81.068,2.98 237,30.354 19.8,3.476 48.15,8.168 63,10.426 14.85,2.258 48.844,8.25 75.542,13.314 52.167,9.897 76.226,11.022 136.255,6.371 41.221,-3.193 101.703,-16.902 101.703,-23.051 0,-5.388 -0.611,-5.338 -39.86,3.249 -80.845,17.689 -128.029,17.752 -222.64,0.299 -13.2,-2.435 -45.6,-7.983 -72,-12.329 -26.4,-4.346 -72.876,-12.636 -103.281,-18.423 -57.511,-10.944 -125.881,-19.168 -151.719,-18.249 -8.25,0.294 -25.125,0.923 -37.5,1.398 m -79.5,28.164 c -38.138,1.57 -71.395,4.871 -100.5,9.973 -55.658,9.759 -133.107,24.235 -162,30.28 -12.375,2.589 -36,6.533 -52.5,8.764 l -30,4.056 43.5,0.29 c 37.625,0.252 46.807,-0.68 67.984,-6.895 13.466,-3.953 39.791,-10.05 58.5,-13.55 18.709,-3.5 44.141,-8.282 56.516,-10.626 44.112,-8.356 74.667,-10.703 162,-12.439 90.958,-1.808 144.605,1.529 199.5,12.409 11.55,2.29 31.447,5.683 44.215,7.54 12.769,1.858 43.819,8.004 69,13.659 31.872,7.156 52.622,10.185 68.285,9.968 l 22.5,-0.312 -16.5,-4.114 c -75.759,-18.884 -213.861,-44.765 -253.5,-47.506 -46.211,-3.195 -120.493,-3.823 -177,-1.497 m -514.49997,22.834 c -82.101,6.117 -130.736,11.619 -168.708,19.085 -24.941,4.904 -46.01,9.579 -46.82,10.389 -4.536,4.536 36.697,0.268 70.187,-7.265 28.971,-6.516 59.424,-10.36 119.841,-15.126 44.55,-3.514 84.37497,-6.805 88.49997,-7.314 10.101,-1.245 -45.94897,-1.039 -62.99997,0.231 m 542.99997,4.589 c -63.97,2.343 -116.804,7.602 -181.5,18.065 l -42,6.792 43.5,0.88 c 29.689,0.6 51.596,-0.589 69,-3.744 110.555,-20.043 185.455,-20.751 308.23,-2.91 31.781,4.618 61.283,7.181 76.5,6.646 l 24.77,-0.872 -31.5,-5.592 c -64.28,-11.41 -78.66,-13.464 -116.148,-16.594 -54.795,-4.574 -84.536,-5.1 -150.852,-2.671 m -598.49997,21.63 c -25.946,3.708 -23.72,3.863 57,3.986 58.29597,0.088 80.78697,-0.747 73.49997,-2.728 -17.317,-4.708 -100.73197,-5.512 -130.49997,-1.258 m 1261.49997,1.727 -10.5,2.21 12.75,0.395 c 7.013,0.217 12.75,-0.955 12.75,-2.605 0,-1.65 -1.012,-2.822 -2.25,-2.605 -1.237,0.217 -6.975,1.389 -12.75,2.605 m -1928.10297,2.236 c 14.519,0.551 37.469,0.548 51,-0.01 13.532,-0.555 1.653,-1.006 -26.397,-1.002 -28.05,0 -39.121,0.457 -24.603,1.008 m 1303.38797,-0.114 c 3.732,0.717 9.132,0.69 12,-0.061 2.868,-0.751 -0.185,-1.338 -6.785,-1.304 -6.6,0.033 -8.947,0.647 -5.215,1.365 m 24.153,-0.073 c 2.165,0.867 4.753,0.76 5.75,-0.236 0.996,-0.997 -0.775,-1.706 -3.938,-1.576 -3.495,0.144 -4.206,0.855 -1.812,1.812" />
    <rect
       y="-1.654964"
       x="0.2417326"
       height="1716.564"
       width="2191.8921"
       id="rect5543"
       style="opacity:1;fill:#b0319b;fill-opacity:0.67647059;fill-rule:evenodd;stroke:none;stroke-width:0.88118541;stroke-miterlimit:4;stroke-dasharray:none;stroke-opacity:0;paint-order:stroke markers fill" />
  </g>
</svg>
