<?xml version="1.0" encoding="UTF-8" standalone="no"?>
<!-- Created with Inkscape (http://www.inkscape.org/) -->

<svg
   xmlns:dc="http://purl.org/dc/elements/1.1/"
   xmlns:cc="http://creativecommons.org/ns#"
   xmlns:rdf="http://www.w3.org/1999/02/22-rdf-syntax-ns#"
   xmlns:svg="http://www.w3.org/2000/svg"
   xmlns="http://www.w3.org/2000/svg"
   xmlns:xlink="http://www.w3.org/1999/xlink"
   xmlns:sodipodi="http://sodipodi.sourceforge.net/DTD/sodipodi-0.dtd"
   xmlns:inkscape="http://www.inkscape.org/namespaces/inkscape"
   version="1.1"
   id="svg2"
   width="500"
   height="500"
   viewBox="0 0 500 500"
   sodipodi:docname="logo_lingkar.png.svg"
   inkscape:export-filename="/home/richie/Projects/websiteprojects/gluonit.github.io/gluonitdoc/logo_wa.png"
   inkscape:export-xdpi="96"
   inkscape:export-ydpi="96"
   inkscape:version="0.92.5 (2060ec1f9f, 2020-04-08)">
  <metadata
     id="metadata8">
    <rdf:RDF>
      <cc:Work
         rdf:about="">
        <dc:format>image/svg+xml</dc:format>
        <dc:type
           rdf:resource="http://purl.org/dc/dcmitype/StillImage" />
        <dc:title></dc:title>
      </cc:Work>
    </rdf:RDF>
  </metadata>
  <defs
     id="defs6">
    <linearGradient
       inkscape:collect="always"
       id="linearGradient1043">
      <stop
         style="stop-color:#af16aa;stop-opacity:1;"
         offset="0"
         id="stop1039" />
      <stop
         style="stop-color:#000000;stop-opacity:0"
         offset="1"
         id="stop1041" />
    </linearGradient>
    <linearGradient
       inkscape:collect="always"
       xlink:href="#linearGradient1043"
       id="linearGradient1045"
       x1="-169.16402"
       y1="195.45242"
       x2="465.56396"
       y2="204.99536"
       gradientUnits="userSpaceOnUse"
       gradientTransform="translate(132.3555,-15.958751)" />
    <linearGradient
       inkscape:collect="always"
       xlink:href="#linearGradient1043"
       id="linearGradient2548"
       gradientUnits="userSpaceOnUse"
       gradientTransform="translate(132.3555,-15.958751)"
       x1="-169.16402"
       y1="195.45242"
       x2="465.56396"
       y2="204.99536" />
  </defs>
  <sodipodi:namedview
     pagecolor="#ffffff"
     bordercolor="#666666"
     borderopacity="1"
     objecttolerance="10"
     gridtolerance="10"
     guidetolerance="10"
     inkscape:pageopacity="0"
     inkscape:pageshadow="2"
     inkscape:window-width="1366"
     inkscape:window-height="691"
     id="namedview4"
     showgrid="false"
     fit-margin-top="0"
     fit-margin-left="0"
     fit-margin-right="0"
     fit-margin-bottom="0"
     inkscape:zoom="1.0373626"
     inkscape:cx="238.09772"
     inkscape:cy="85.715595"
     inkscape:window-x="0"
     inkscape:window-y="0"
     inkscape:window-maximized="1"
     inkscape:current-layer="svg2" />
  <rect
     style="opacity:1;fill:#ffffff;fill-opacity:1;fill-rule:evenodd;stroke:#2446cb;stroke-width:0.75590551;stroke-miterlimit:4;stroke-dasharray:none;stroke-opacity:0;paint-order:stroke markers fill"
     id="rect2848"
     width="501.27118"
     height="501.27118"
     x="0"
     y="-1.2711865"
     ry="3.3659527" />
  <g
     id="g2546"
     transform="matrix(0.76362138,0,0,0.76362138,36.808503,145.10248)"
     inkscape:export-filename="/home/richie/Projects/websiteprojects/gluonit.github.io/gluonitdoc/logo_wa.png"
     inkscape:export-xdpi="96"
     inkscape:export-ydpi="96" />
  <g
     id="g2846"
     transform="matrix(1.2429225,0,0,1.2429225,33.47364,-125.86307)">
    <path
       style="fill:url(#linearGradient2548);fill-opacity:1"
       d="M 175.08257,404.44656 C 116.51314,397.6513 64.938089,365.06326 31.928629,313.9938 1.0837292,266.27316 -8.1915708,202.63499 7.5176692,146.50947 16.821909,113.26754 34.041872,83.640478 56.805902,59.891828 83.691019,31.843844 118.30925,11.995341 156.75362,4.0752256 c 61.39368,-12.648016 122.45443,4.413319 169.80594,47.4464504 8.44812,7.677662 22.40343,23.722992 26.00074,29.894742 2.55537,4.38412 2.1012,3.9265 -7.35098,-7.40695 C 291.32092,9.3956606 206.40184,-13.300765 130.82107,16.709661 70.612919,40.616171 26.013449,93.228828 11.465829,157.50947 c -4.2662798,18.85112 -5.3323298,30.77927 -4.6906098,52.48359 0.46778,15.8214 1.07017,21.45261 3.5853598,33.51641 15.63758,75.0038 70.53836,134.00681 141.955531,152.56255 52.09287,13.53487 107.28942,3.58911 153.23337,-27.61083 9.6518,-6.55442 18.39793,-14.13972 30.92159,-26.81755 6.32098,-6.39879 10.38308,-10.05917 9.02687,-8.13417 -4.70815,6.68276 -25.57199,26.74178 -35.01956,33.66868 -28.57197,20.94879 -59.94358,33.32544 -94.50729,37.28478 -10.25393,1.17461 -30.69385,1.16643 -40.88852,-0.0164 z"
       id="path954"
       inkscape:connector-curvature="0"
       transform="matrix(0.76362138,0,0,0.76362138,36.808503,145.10248)" />
    <path
       id="path1005"
       style="fill:#a916a1;fill-opacity:1;stroke-width:0.75683063"
       d="m 225.11133,286.78686 c 0,-0.41625 -0.34057,-0.75683 -0.75683,-0.75683 -0.41626,0 -0.75683,0.34058 -0.75683,0.75683 0,0.41626 0.34057,0.75683 0.75683,0.75683 0.41626,0 0.75683,-0.34057 0.75683,-0.75683 z m 14.00137,0 c 0.25726,-0.41625 -0.2335,-0.75683 -1.09058,-0.75683 -0.85708,0 -1.55833,0.34058 -1.55833,0.75683 0,0.41626 0.49076,0.75683 1.09058,0.75683 0.59982,0 1.30107,-0.34057 1.55833,-0.75683 z m -0.58339,-3.48457 c -0.25148,-0.25149 -0.90426,-0.27837 -1.45059,-0.0597 -0.60375,0.2416 -0.42442,0.42094 0.45725,0.45725 0.79782,0.0328 1.24483,-0.14602 0.99334,-0.3975 z M 150.3119,252.633 c -24.79494,-2.03779 -46.66854,-13.02094 -56.610901,-28.4254 l -2.5332,-3.92489 3.39515,-13.1038 c 1.86734,-7.20709 3.73476,-14.29581 4.14984,-15.75271 0.41508,-1.4569 1.624421,-6.22493 2.687411,-10.59563 1.063,-4.37069 2.9301,-12.0336 4.14912,-17.02869 5.65744,-23.18213 7.0686,-29.06336 10.62334,-44.27459 10.17952,-43.559434 15.09167,-69.558861 15.09167,-79.878247 0,-7.750533 1.8882,-10.276218 9.46039,-12.654413 5.47485,-1.719483 8.04318,-2.055292 21.74746,-2.843472 19.13034,-1.100252 53.3082,0.33491 91.0203,3.822031 24.35854,2.252359 25.7609,2.459383 25.56408,3.773894 -0.0925,0.617697 -1.52363,8.615712 -3.18033,17.773363 -7.67266,42.411762 -12.27801,75.052244 -16.07095,113.903024 -1.04314,10.68476 -1.32889,48.14533 -0.41572,54.49832 0.89269,6.21061 1.06073,6.31285 6.15353,3.74398 5.47049,-2.75937 12.34701,-3.10676 15.84518,-0.80045 7.97023,5.25466 6.03443,16.09417 -3.67721,20.59052 -6.12057,2.83373 -14.97154,0.87861 -17.6151,-3.89105 -2.74782,-4.95778 -2.53968,-4.87004 -6.65402,-2.80483 -9.71255,4.87523 -27.61499,10.71806 -41.95356,13.69239 -22.08244,4.58071 -40.77012,5.85777 -61.17648,4.18065 z m 31.33943,-5.25329 c 18.11851,-1.77254 35.83072,-5.33077 50.6499,-10.17512 7.17805,-2.34649 22.16607,-8.57864 22.69692,-9.43759 0.20495,-0.33161 -0.12889,-4.13134 -0.74186,-8.44385 -3.0278,-21.30189 -0.46035,-62.47516 7.21406,-115.6893 3.37977,-23.435262 3.70214,-25.405154 9.41057,-57.504263 0.99791,-5.611279 1.69421,-10.322482 1.54735,-10.469342 -1.28524,-1.285242 -56.89892,-5.5565 -85.9153,-6.598492 -19.69751,-0.707346 -37.61316,0.791498 -45.86459,3.837088 l -3.10367,1.145556 -0.46898,6.981192 c -1.17575,17.501748 -11.71661,66.343041 -30.40381,140.876621 l -9.443201,37.66406 2.19163,3.14786 c 12.965941,18.62315 45.190991,28.2892 82.230981,24.66558 z m -24.7709,-3.73574 c -21.0481,-2.43009 -37.58726,-10.50734 -47.35774,-23.12817 -4.58211,-5.91887 -4.75488,-3.93 3.08559,-35.52266 18.91768,-76.22756 28.49431,-121.675557 28.4947,-135.227943 l 1.5e-4,-5.053063 3.97336,-2.269319 c 9.08528,-5.18889 17.30332,-7.331573 32.77401,-8.545145 13.96769,-1.095672 35.05745,-0.106591 57.47805,2.695642 8.32514,1.040515 17.48463,2.161051 20.35444,2.490091 5.48277,0.628616 7.21343,1.844018 6.23954,4.381898 -0.44313,1.154795 -1.11509,1.269871 -4.85063,0.830705 -2.38494,-0.280383 -8.59342,-1.017604 -13.79663,-1.638266 -28.68207,-3.421314 -38.30967,-4.21698 -51.46448,-4.25326 -18.45491,-0.0509 -31.14382,2.00405 -40.33591,6.532327 -4.3078,2.122145 -4.71242,2.531863 -4.90025,4.962054 -1.01094,13.080336 -7.03279,44.031387 -16.12381,82.872969 -1.26655,5.41134 -2.778,11.88224 -3.35879,14.37978 -2.81969,12.12538 -5.48062,23.05947 -10.64649,43.74767 l -5.63235,22.55641 2.24766,3.26686 c 4.92471,7.15782 14.35212,13.7947 24.73502,17.4134 18.81244,6.55661 43.02572,7.05209 70.66519,1.44604 9.1234,-1.85048 24.06036,-6.03599 29.19059,-8.17954 2.91221,-1.2168 5.21589,-0.12794 4.75813,2.24897 -0.52142,2.70753 -20.77592,8.91534 -39.62495,12.14468 -12.6199,2.16212 -35.28135,3.07436 -45.9044,1.84787 z m 26.79705,-22.74438 c -9.34518,-1.84349 -19.26542,-9.42398 -26.50328,-20.25233 -11.1044,-16.61296 -17.24372,-38.46493 -18.11279,-64.4697 -1.92079,-57.474892 27.22092,-103.213873 59.38306,-93.203889 11.57909,3.603816 23.36719,15.900022 30.82903,32.157845 2.76841,6.031802 6.90881,18.528772 7.62715,23.021012 0.43173,2.699862 0.25948,3.077312 -2.29255,5.023842 -3.39774,2.59158 -4.60244,2.21417 -5.21789,-1.63465 -1.24026,-7.756162 -6.86454,-21.409472 -11.92054,-28.937934 -23.64192,-35.203106 -59.44499,-16.515018 -69.21822,36.129764 -0.67707,3.64715 -1.41256,12.08913 -1.63441,18.75998 -1.21942,36.6653 11.72668,68.45314 31.91307,78.35935 4.58477,2.24991 5.99655,2.58097 10.97404,2.57336 4.82883,-0.008 6.50353,-0.3806 10.82744,-2.41299 15.0432,-7.07087 26.25162,-26.41391 30.76386,-53.09106 0.8713,-5.15131 1.58419,-9.65806 1.58419,-10.01501 0,-0.35694 -8.59949,-0.73997 -19.10997,-0.85118 l -19.10998,-0.20221 -0.22104,-5.86543 -0.22104,-5.86544 h 23.11517 23.11517 v 45.82972 45.82972 l -3.45646,-0.23067 -3.45647,-0.23068 0.0736,-20.79783 c 0.0447,-12.6335 -0.19874,-20.50663 -0.62008,-20.05602 -0.3815,0.408 -1.89038,3.53311 -3.35306,6.94468 -5.63618,13.14587 -16.54385,26.04112 -25.73964,30.42987 -7.68693,3.66863 -12.8918,4.4637 -20.01832,3.05788 z m 91.92726,15.4294 c 2.57463,-1.22174 5.50342,-4.89331 5.50922,-6.90645 0.002,-0.53924 -0.83312,-1.81639 -1.85484,-2.83811 -2.40839,-2.4084 -6.33163,-2.43549 -11.38685,-0.0787 -5.50588,2.56694 -6.05615,3.488 -3.95055,6.61251 2.99628,4.44618 6.84849,5.50484 11.68302,3.2107 z m -125.9584,42.04775 c 0,-0.41626 -0.34057,-0.75683 -0.75683,-0.75683 -0.41626,0 -0.75683,0.34057 -0.75683,0.75683 0,0.41626 0.34057,0.75683 0.75683,0.75683 0.41626,0 0.75683,-0.34057 0.75683,-0.75683 z"
       inkscape:connector-curvature="0"
       transform="matrix(0.76362138,0,0,0.76362138,36.808503,145.10248)" />
    <g
       transform="matrix(0.1152924,0,0,0.1152924,214.39514,325.4353)"
       id="g2185">
      <path
         style="fill:#000000;stroke-width:2.46292281"
         d="m -503.88168,478.32769 c -4.06382,-2.51021 -9.6054,-7.05484 -12.31461,-10.09924 -4.74539,-5.33242 -4.92585,-9.02223 -4.92585,-100.71674 v -95.1815 h 8.62023 8.62023 l 1.23146,93.32682 1.23146,93.32684 6.8006,5.07581 c 6.02175,4.49452 7.98694,4.75916 17.15936,2.31091 11.74656,-3.13535 19.92403,-0.42748 18.65223,6.1764 -1.9962,10.36553 -31.52241,14.15213 -45.07511,5.7807 z"
         id="path2008"
         inkscape:connector-curvature="0" />
      <path
         style="fill:#000000;stroke-width:2.46292281"
         d="m -400.46131,476.0238 c -16.98217,-8.17082 -28.3856,-19.94347 -34.23184,-35.34018 -3.38386,-8.91177 -3.95588,-18.85117 -3.38125,-58.75335 l 0.69164,-48.02699 h 8.62023 8.62023 l 1.23146,51.84014 c 1.03558,43.59408 1.90898,52.87252 5.49091,58.33041 16.29014,24.822 58.14734,31.29229 82.46156,12.74693 16.16835,-12.33222 16.59813,-14.03371 17.95321,-71.07734 l 1.23146,-51.84014 h 8.62023 8.62023 v 73.88768 73.88769 h -8.62023 c -7.57302,0 -8.71491,-0.82282 -9.39955,-6.77304 -0.42862,-3.72517 -1.1688,-6.77304 -1.64484,-6.77304 -0.47603,0 -6.77523,3.03178 -13.99822,6.7373 -10.88158,5.58246 -16.93227,6.86909 -35.299,7.50605 -20.23816,0.70186 -23.4537,0.14926 -36.96623,-6.35212 z"
         id="path2006"
         inkscape:connector-curvature="0" />
      <path
         style="fill:#000000;stroke-width:2.46292281"
         d="m -48.296623,479.95879 c -0.6893,-1.79629 -0.95877,-35.39361 -0.59881,-74.66075 l 0.65447,-71.39476 h 8.62023 c 7.95819,0 8.68035,0.62622 9.40317,8.154 0.43059,4.48471 1.53891,7.7565 2.46292,7.27067 31.0460299,-16.32396 49.95839,-19.79653 72.3556,-13.2855 20.73467,6.02776 36.29367,17.68189 44.37557,33.23872 6.8548,13.19489 6.8635,13.27523 6.8635,63.56892 v 50.35737 l -9.236,-0.7644 -9.2359,-0.76441 -1.2315,-51.9215 c -1.2173,-51.32297 -1.3057,-52.01867 -7.6691,-60.35325 -20.8349,-27.28879 -73.9045901,-25.84845 -91.52538,2.48403 -5.07194,8.1552 -5.57137,12.56812 -6.71119,59.3008 l -1.23146,50.48992 -8.02145,0.77303 c -4.99007,0.48091 -8.49503,-0.46118 -9.27467,-2.49289 z"
         id="path2000"
         inkscape:connector-curvature="0" />
      <path
         style="fill:#000000;stroke-width:2.46292281"
         d="m 151.66633,481.26815 c -2.4131,-2.41305 -1.9307,-269.93673 0.4936,-273.76012 1.2909,-2.03586 5.6452,-2.95554 11.6612,-2.46293 l 9.601,0.78619 0.6362,138.53941 0.6362,138.53941 h -10.6931 c -5.8813,0 -11.4321,-0.73888 -12.3351,-1.64196 z"
         id="path1998"
         inkscape:connector-curvature="0" />
      <path
         style="fill:#000000;stroke-width:2.46292281"
         d="m 363.70483,354.22239 -0.6377,-128.68772 -66.4989,-1.23146 -66.4989,-1.23146 v -8.62023 -8.62023 l 147.1596,-0.63511 147.1597,-0.63512 v 9.8315 9.83147 l -67.1147,0.65531 -67.1146,0.65533 -0.6377,128.68772 -0.6377,128.68772 h -12.2707 -12.2707 z"
         id="path1996"
         inkscape:connector-curvature="0" />
      <path
         style="fill:#000000;stroke-width:2.46292281"
         d="m -815.16315,476.7973 c -41.62448,-9.439 -71.7561,-24.44635 -97.66625,-48.64356 -14.78199,-13.80475 -20.41994,-21.28706 -28.83915,-38.27333 -9.29894,-18.76121 -10.56121,-23.38399 -11.32789,-41.4853 -2.7822,-65.69324 51.16902,-119.98968 138.34092,-139.22614 29.56751,-6.52472 78.96842,-5.33314 108.81417,2.62466 25.14873,6.70546 60.07044,23.85755 78.05222,38.33599 14.90969,12.00492 37.24732,39.56922 35.74548,44.10939 -0.49495,1.49623 -5.72551,3.75227 -11.62349,5.01343 -9.23094,1.97384 -11.08885,1.67092 -13.34774,-2.17621 -20.34707,-34.6532 -58.67231,-59.39681 -107.20684,-69.21508 -30.59623,-6.18947 -77.88112,-3.93036 -104.729,5.0036 -43.71486,14.54664 -73.50571,37.78732 -89.2361,69.6156 -8.3798,16.95535 -9.2531,20.59572 -9.26419,38.61757 -0.0148,24.31203 4.91967,39.54789 18.8088,58.07281 20.32293,27.10609 50.96364,46.55998 89.64931,56.91866 25.87507,6.92843 73.21381,7.66157 98.79123,1.53002 58.09811,-13.92761 99.73116,-47.99776 112.80571,-92.31387 l 1.63494,-5.54157 h -68.63523 c -50.09905,0 -69.43342,-0.79819 -71.59074,-2.95551 -5.06126,-5.06126 -3.56695,-14.04203 2.58607,-15.54228 3.04787,-0.74311 41.00766,-1.04132 84.3551,-0.66264 l 78.81353,0.68851 0.65408,69.57756 0.65411,69.57757 h -12.35299 -12.35296 v -30.64119 c 0,-16.85265 -0.93271,-31.21762 -2.07268,-31.92214 -1.13996,-0.70455 -5.8503,2.6665 -10.46742,7.4912 -18.57423,19.40936 -50.80051,37.26042 -85.97681,47.62504 -24.21706,7.13551 -88.73552,9.30325 -113.01619,3.79721 z"
         id="path3792"
         inkscape:connector-curvature="0" />
      <path
         style="opacity:0.847;fill:#b412ab;fill-opacity:1;fill-rule:evenodd;stroke:#2446cb;stroke-width:1.18257093;stroke-miterlimit:4;stroke-dasharray:none;stroke-opacity:0;paint-order:stroke markers fill"
         d="m -804.24701,477.82668 c -11.31772,-1.47371 -34.76832,-7.78227 -47.32075,-12.72996 -22.31556,-8.79596 -41.08774,-20.33081 -59.00671,-36.25752 -14.29488,-12.70556 -22.24677,-23.43198 -31.57662,-42.59411 -11.22215,-23.04862 -13.18175,-43.9433 -6.58383,-70.20032 12.67873,-50.45607 67.23198,-92.75988 137.8079,-106.86442 18.72326,-3.74182 68.64552,-3.77433 88.95981,-0.0579 37.72382,6.90138 82.13436,29.06439 104.87805,52.33923 12.42788,12.71811 24.65186,29.41754 23.57941,32.2123 -0.87543,2.2813 -11.18308,5.74457 -17.09749,5.74457 -2.96305,0 -5.21854,-1.97192 -9.39435,-8.21331 -21.14555,-31.60519 -54.27001,-52.2117 -102.89439,-64.00994 -11.99012,-2.90927 -72.03483,-2.85002 -86.82658,0.0857 -26.02432,5.16505 -56.36374,18.92202 -75.65116,34.30293 -14.74192,11.7561 -26.68776,26.70902 -35.01168,43.8251 -6.29117,12.93628 -6.62504,14.35078 -7.20235,30.5148 -0.73432,20.55969 1.41697,32.68939 8.3699,47.19243 17.25038,35.98234 62.56144,66.94402 111.57819,76.24295 6.53406,1.23957 23.00195,1.93663 44.06816,1.8653 31.37321,-0.10615 34.6552,-0.3936 48.7958,-4.27295 47.43227,-13.01263 83.6102,-39.45445 100.40799,-73.38645 3.95585,-7.99086 7.63388,-16.77002 8.17343,-19.50923 l 0.98099,-4.9804 -68.77175,-0.49515 c -55.43616,-0.39914 -69.27303,-0.9115 -71.35689,-2.64227 -3.0125,-2.50206 -3.42257,-9.68744 -0.70782,-12.4022 1.41229,-1.41229 22.14557,-1.87734 83.69771,-1.87734 h 81.82034 v 61.57714 c 0,33.86743 0.44771,64.84339 0.99487,68.83549 l 0.99487,7.25833 h -11.71528 -11.71527 l -0.84554,-29.86991 c -0.46505,-16.42848 -1.53829,-30.5627 -2.385,-31.40938 -1.0096,-1.00963 -6.3168,2.58555 -15.42068,10.44621 -27.93178,24.11746 -65.00783,41.70655 -99.14338,47.03417 -17.62379,2.75059 -70.04737,4.17547 -84.4799,2.29616 z"
         id="path3798"
         inkscape:connector-curvature="0" />
      <path
         style="opacity:0.847;fill:#564c4c;fill-opacity:0.99215686;fill-rule:evenodd;stroke:#2446cb;stroke-width:2.36514187;stroke-miterlimit:4;stroke-dasharray:none;stroke-opacity:0;paint-order:stroke markers fill"
         d="M 364.46903,351.88781 V 223.6035 h -51.1899 c -64.5359,0 -80.2233,-1.91869 -80.2233,-9.81194 0,-5.53727 4.013,-5.83247 79.2821,-5.83247 43.6051,0 109.0771,-0.92791 145.4932,-2.06201 l 66.211,-2.06204 v 9.88423 9.88423 h -67.271 -67.271 l -0.01,55.53772 c 0,30.54574 -0.9329,88.27367 -2.0642,128.28429 l -2.057,72.74659 h -10.4513 -10.4514 z"
         id="path3800"
         inkscape:connector-curvature="0" />
      <path
         style="opacity:0.847;fill:#564c4c;fill-opacity:0.99215686;fill-rule:evenodd;stroke:#2446cb;stroke-width:1.18257093;stroke-miterlimit:4;stroke-dasharray:none;stroke-opacity:0;paint-order:stroke markers fill"
         d="m -494.8714,481.04363 c -7.31911,-2.40147 -13.27247,-6.17157 -18.76318,-11.88222 l -5.47555,-5.6949 -0.44847,-95.34513 -0.44847,-95.34516 h 7.62506 7.62503 l 1.0347,64.53325 c 0.56906,35.49331 1.03561,77.37684 1.03674,93.07455 l 0.002,28.54126 6.64888,4.85144 c 6.89789,5.03313 10.31645,5.32282 25.48064,2.15924 5.81715,-1.2136 12.43847,3.27862 10.86735,7.37291 -2.35955,6.14893 -24.90956,11.10618 -35.1848,7.73476 z"
         id="path3802"
         inkscape:connector-curvature="0" />
      <path
         style="opacity:0.847;fill:#564c4c;fill-opacity:0.99215686;fill-rule:evenodd;stroke:#2446cb;stroke-width:1.18257093;stroke-miterlimit:4;stroke-dasharray:none;stroke-opacity:0;paint-order:stroke markers fill"
         d="m -385.7349,480.71574 c -17.68507,-4.16914 -38.61701,-20.35175 -46.14624,-35.67593 l -4.31353,-8.77933 -0.47138,-50.45327 -0.47138,-50.45327 h 7.76205 7.76205 l 0.86781,12.90665 c 0.47729,7.09866 1.23311,28.13086 1.67956,46.73825 1.05803,44.09516 1.82732,47.57438 12.72031,57.52996 12.03657,11.00074 22.58291,14.80433 41.33314,14.90694 12.86756,0.0704 16.04217,-0.46981 23.65438,-4.02511 10.83646,-5.06121 21.45225,-14.42999 24.44094,-21.56993 2.72064,-6.49956 4.9732,-41.99973 5.04446,-79.50012 l 0.0512,-26.98664 h 8.60445 8.60444 v 72.74659 72.74656 h -7.65484 c -7.88512,0 -9.55405,-1.37261 -9.55405,-7.85783 0,-5.25098 -3.24748,-5.09545 -15.70891,0.75235 -9.8476,4.62118 -15.19311,6.05046 -26.84465,7.17767 -17.34743,1.67826 -23.54821,1.63801 -31.35986,-0.20344 z"
         id="path3804"
         inkscape:connector-curvature="0" />
      <path
         style="opacity:0.847;fill:#564c4c;fill-opacity:0.99215686;fill-rule:evenodd;stroke:#2446cb;stroke-width:1.18257093;stroke-miterlimit:4;stroke-dasharray:none;stroke-opacity:0;paint-order:stroke markers fill"
         d="m -197.05076,479.41512 c -22.76186,-6.17817 -40.23014,-17.81907 -52.09796,-34.71822 -9.27034,-13.2005 -11.63883,-22.11833 -10.77356,-40.56478 0.50116,-10.68468 1.51076,-15.05238 5.23024,-22.62712 9.17498,-18.68496 32.13737,-36.81673 55.21183,-43.59681 40.95952,-12.03535 89.07247,5.43121 109.317201,39.68569 10.24369,17.33252 11.1332,40.46703 2.24976,58.51185 -13.677801,27.78354 -42.871881,44.30508 -80.761711,45.70471 -13.62528,0.50329 -19.5343,0.005 -28.3758,-2.39532 z m 46.22128,-13.49246 c 21.08673,-4.9705 38.38355,-18.40998 46.79718,-36.36101 3.53102,-7.53362 4.187391,-11.04454 4.158501,-22.24335 -0.0409,-15.87459 -2.526341,-21.57895 -15.513901,-35.60706 -14.63136,-15.80364 -31.00704,-22.29943 -56.10203,-22.25421 -24.82025,0.0448 -40.71125,6.50327 -56.58292,22.99683 -13.86901,14.41245 -18.6174,30.27786 -14.23328,47.55645 8.80052,34.68426 50.4428,55.58467 91.47645,45.91235 z"
         id="path3806"
         inkscape:connector-curvature="0" />
      <path
         style="opacity:0.847;fill:#564c4c;fill-opacity:0.99215686;fill-rule:evenodd;stroke:#2446cb;stroke-width:1.18257093;stroke-miterlimit:4;stroke-dasharray:none;stroke-opacity:0;paint-order:stroke markers fill"
         d="m -45.495273,481.16658 c -2.30281,-1.52837 -2.93588,-28.75403 -2.3265,-100.05269 l 0.39111,-45.75995 h 7.72636 7.72636 l 1.05571,7.03999 c 0.62021,4.13594 1.88347,7.03997 3.06237,7.03997 1.10366,0 7.18371,-2.44174 13.51123,-5.42611 23.4841399,-11.07628 40.01314,-12.77531 60.7022,-6.23965 23.98966,7.57837 42.79296,25.51074 46.91796,44.74498 0.9601,4.47708 1.6621,27.20899 1.6621,53.82437 0,51.37413 1.0437,47.11815 -11.0635,45.11516 l -5.5878,-0.92446 -1.5631,-50.29382 c -1.7369,-55.89034 -2.0473,-57.51545 -12.7857,-66.94387 -3.0918,-2.71468 -9.5257,-6.76365 -14.2973,-8.99774 -7.68683,-3.5989 -10.63766,-4.06279 -25.88475,-4.06929 -15.7129101,-0.007 -18.0667501,0.38877 -27.0777201,4.54941 -11.2293499,5.18492 -21.2503199,15.36854 -23.8071799,24.19354 -0.9031,3.11709 -2.36216,27.1235 -3.24236,53.34754 -0.8802,26.22407 -1.73365,47.80925 -1.89653,47.9671 -1.2701,1.23085 -11.65482,1.92628 -13.22296,0.88552 z"
         id="path3808"
         inkscape:connector-curvature="0" />
      <path
         style="opacity:0.847;fill:#b412ab;fill-opacity:1;fill-rule:evenodd;stroke:#2446cb;stroke-width:1.18257093;stroke-miterlimit:4;stroke-dasharray:none;stroke-opacity:0;paint-order:stroke markers fill"
         d="m 153.63933,479.88047 c -2.2999,-2.29986 -2.4887,-14.81119 -2.0673,-136.94637 0.4052,-117.43738 0.7602,-134.60255 2.8104,-135.89812 2.8281,-1.78707 14.1012,-1.96642 16.7762,-0.26691 1.4797,0.9401 2.012,32.34594 2.3466,138.42952 l 0.4328,137.21351 -8.8838,-2.7e-4 c -6.0982,-1.9e-4 -9.6775,-0.79395 -11.4149,-2.53136 z"
         id="path3810"
         inkscape:connector-curvature="0" />
      <path
         style="opacity:0.847;fill:#b412ab;fill-opacity:1;fill-rule:evenodd;stroke:#2446cb;stroke-width:3.34481549;stroke-miterlimit:4;stroke-dasharray:none;stroke-opacity:0;paint-order:stroke markers fill"
         d="m 365.60713,351.89153 c -0.2882,-68.75207 -0.2313,-126.66795 0.1265,-128.70193 0.3578,-2.03398 -26.7855,-3.25214 -60.3185,-2.70705 -68.0531,1.10625 -76.4648,0.39085 -76.4365,-6.50078 0.015,-3.31221 45.8244,-5.31294 148.2345,-6.47397 134.728,-1.52743 148.2149,-1.0241 148.2149,5.53114 0,6.35515 -8.144,7.21146 -68.5861,7.21146 h -68.5862 v 67.8865 c 0,37.33759 -1.3043,95.08269 -2.8984,128.32244 -2.6256,54.74587 -3.6671,60.43596 -11.0623,60.43596 -7.7301,0 -8.1917,-6.64063 -8.6878,-125.00377 z"
         id="path3814"
         inkscape:connector-curvature="0" />
      <path
         style="opacity:0.847;fill:#b412ab;fill-opacity:1;fill-rule:evenodd;stroke:#2446cb;stroke-width:3.34481549;stroke-miterlimit:4;stroke-dasharray:none;stroke-opacity:0;paint-order:stroke markers fill"
         d="m 156.68523,478.37027 c -1.6224,-1.62247 -2.9499,-63.34999 -2.9499,-137.17228 0,-131.27238 0.1945,-134.22233 8.8498,-134.22233 8.6595,0 8.8498,2.94995 8.8498,137.17227 0,111.36029 -1.1102,137.17229 -5.8999,137.17229 -3.2449,0 -7.2273,-1.32749 -8.8498,-2.94995 z"
         id="path3816"
         inkscape:connector-curvature="0" />
      <path
         style="opacity:0.847;fill:#b412ab;fill-opacity:1;fill-rule:evenodd;stroke:#2446cb;stroke-width:0.10452548;stroke-miterlimit:4;stroke-dasharray:none;stroke-opacity:0;paint-order:stroke markers fill"
         d="m 160.54193,482.75999 c -4.6666,-0.24962 -8.3263,-0.91963 -8.7711,-1.60582 -0.3769,-0.58135 -0.6475,-5.41587 -0.9074,-16.20941 -0.185,-7.68388 -0.4146,-23.37698 -0.4153,-28.38166 l -6e-4,-3.90637 h 0.484 0.484 v 8.53871 c 0,13.43324 0.3039,27.29637 0.6976,32.11518 0.1785,2.18478 0.4912,4.33159 0.7656,5.25573 0.5154,1.7353 2.3344,2.82731 5.7946,3.47858 1.372,0.25826 2.1972,0.29277 8.4233,0.3523 l 6.9022,0.066 -0.089,-24.90325 c -0.086,-24.18701 -0.081,-24.90325 0.168,-24.90325 0.2461,0 0.2596,0.34858 0.3389,8.60784 0.046,4.7343 0.116,16.02821 0.1569,25.09755 l 0.074,16.48971 -6.6738,-0.0256 c -3.6707,-0.0148 -7.0162,-0.0438 -7.4344,-0.0662 z"
         id="path3818"
         inkscape:connector-curvature="0" />
      <path
         style="opacity:0.847;fill:#b412ab;fill-opacity:1;fill-rule:evenodd;stroke:#2446cb;stroke-width:0.03695535;stroke-miterlimit:4;stroke-dasharray:none;stroke-opacity:0;paint-order:stroke markers fill"
         d="m 166.54603,482.79546 c -6.1527,-0.0367 -6.683,-0.0539 -9.02,-0.2922 -2.9102,-0.29669 -5.0699,-0.77486 -5.6017,-1.24026 -0.1261,-0.11034 -0.1906,-0.2224 -0.2411,-0.41948 -0.2507,-0.97633 -0.4791,-4.70783 -0.6581,-10.75554 -0.027,-0.90079 -0.062,-2.03927 -0.079,-2.53001 l -0.031,-0.89222 h 0.4164 0.4165 l 0.028,0.40333 c 0.015,0.22191 0.04,0.78833 0.056,1.2589 0.1588,4.86528 0.5749,8.85748 1.0802,10.36294 0.4896,1.45818 1.948,2.45046 4.565,3.10587 1.3251,0.33186 2.1944,0.45744 3.3733,0.48741 0.7523,0.0197 0.7721,0.0172 0.2934,-0.0246 -2.1839,-0.19186 -3.88,-0.51154 -5.067,-0.95504 -0.9863,-0.36851 -1.8748,-0.89338 -2.3897,-1.41165 -0.9025,-0.90855 -1.304,-3.0942 -1.6618,-9.04715 -0.043,-0.71893 -0.1704,-3.64572 -0.1704,-3.92334 l -1e-4,-0.25666 h 1.8486 1.8485 l 0.06,1.23444 c 0.2256,4.62406 0.5903,8.78473 0.8684,9.90681 0.1093,0.44155 0.1672,0.53997 0.4678,0.79644 1.7128,1.46167 5.3458,2.64626 8.2639,2.69458 0.5666,0.01 0.6159,0.002 0.8747,-0.12487 1.5532,-0.76279 2.5738,-4.76994 3.3431,-13.12632 0.068,-0.73269 0.1226,-1.34318 0.1226,-1.35668 0,-0.0123 0.9644,-0.0246 2.1432,-0.0246 h 2.1431 l 0.033,2.57471 c 0.017,1.41608 0.032,4.95809 0.032,7.87111 v 5.29639 l -2.6033,0.01 c -1.4319,0.005 -2.3394,0.0172 -2.0167,0.0246 0.3227,0.007 1.5195,0.0197 2.6596,0.0261 l 2.0729,0.0123 -0.026,-7.90775 -0.026,-7.90778 h 0.2821 0.282 l 0.029,1.38111 c 0.015,0.75961 0.039,4.4006 0.052,8.09112 l 0.025,6.70998 -1.11,-0.01 c -0.6105,-0.005 -3.75,-0.0246 -6.9767,-0.0438 z m -1.5986,-0.42392 c -0.2607,-0.01 -0.7007,-0.01 -0.9777,-10e-5 -0.2771,0.01 -0.064,0.0148 0.474,0.0148 0.5378,5e-5 0.7645,-0.007 0.5037,-0.0148 z m -2.8625,-0.047 c -0.061,-0.0123 -0.1596,-0.0123 -0.22,0 -0.061,0.0123 -0.01,0.0222 0.1101,0.0222 0.1209,0 0.1704,-0.01 0.1101,-0.0222 z"
         id="path3820"
         inkscape:connector-curvature="0" />
      <path
         style="opacity:0.847;fill:#b412ab;fill-opacity:1;fill-rule:evenodd;stroke:#2446cb;stroke-width:0.03695535;stroke-miterlimit:4;stroke-dasharray:none;stroke-opacity:0;paint-order:stroke markers fill"
         d="m 166.66823,482.7958 c -3.2942,-0.0197 -6.1302,-0.0589 -6.6489,-0.0909 -4.4617,-0.27545 -7.8493,-0.93401 -8.2267,-1.59927 -0.3159,-0.5569 -0.5519,-3.95955 -0.7673,-11.06656 -0.027,-0.87389 -0.062,-1.99038 -0.079,-2.48112 l -0.031,-0.89222 h 0.4156 0.4156 l 0.028,0.47668 c 0.015,0.26215 0.041,0.82867 0.057,1.25887 0.1663,4.61899 0.5203,8.22535 0.9757,9.93629 0.3881,1.45827 1.4371,2.40502 3.4259,3.09198 1.4589,0.50391 3.0368,0.80313 4.4946,0.85232 l 0.7333,0.0246 -0.8555,-0.0941 c -1.6193,-0.17782 -2.7036,-0.3668 -3.6911,-0.64297 -1.7567,-0.49128 -3.1676,-1.35859 -3.6341,-2.23392 -0.689,-1.29254 -1.0669,-4.25172 -1.353,-10.59224 -0.04,-0.88732 -0.073,-1.71781 -0.073,-1.84554 l -1e-4,-0.23225 h 10.992 10.992 l 0.033,3.11668 c 0.017,1.71414 0.033,5.25614 0.033,7.87108 v 4.75445 l -2.2611,0.007 c -1.2436,0.005 -2.1731,0.0148 -2.0655,0.0222 0.1076,0.007 1.15,0.0197 2.3167,0.0281 l 2.1211,0.0123 -0.022,-7.90776 -0.022,-7.90778 h 0.2794 0.2794 l 0.029,2.06556 c 0.015,1.13604 0.04,4.77706 0.054,8.09109 l 0.025,6.02557 -1.1116,-0.007 c -0.6114,-0.005 -3.6966,-0.0246 -6.856,-0.0436 z m -4.6322,-0.46911 c -0.034,-0.0148 -0.089,-0.0148 -0.1222,0 -0.034,0.0148 0,0.0246 0.061,0.0246 0.067,0 0.095,-0.0123 0.061,-0.0246 z"
         id="path3824"
         inkscape:connector-curvature="0" />
      <path
         style="opacity:0.847;fill:#b412ab;fill-opacity:1;fill-rule:evenodd;stroke:#2446cb;stroke-width:0.03695535;stroke-miterlimit:4;stroke-dasharray:none;stroke-opacity:0;paint-order:stroke markers fill"
         d="m 166.25263,482.79622 c -2.9553,-0.0197 -5.7317,-0.0596 -6.2333,-0.0904 -4.4956,-0.27631 -7.8877,-0.94076 -8.2354,-1.61314 -0.3218,-0.62233 -0.5394,-3.88171 -0.7854,-11.76238 -0.04,-1.26377 -0.072,-2.38026 -0.072,-2.4811 l -4e-4,-0.18324 h 0.4109 0.4108 l 0.03,0.50111 c 0.017,0.27563 0.052,1.07312 0.08,1.77222 0.166,4.2466 0.5052,7.64782 0.9313,9.33561 0.4451,1.76286 1.8885,2.82817 4.8039,3.54555 0.4341,0.10689 1.0643,0.23866 1.4004,0.29324 0.5996,0.097 2.1391,0.22511 2.2526,0.18742 0.032,-0.01 -0.3993,-0.0692 -0.9578,-0.13028 -2.7591,-0.30181 -4.56,-0.82095 -5.8594,-1.689 -0.8437,-0.56367 -1.2315,-1.10078 -1.5214,-2.10689 -0.4773,-1.65671 -0.815,-5.20326 -1.0323,-10.84109 l -0.034,-0.86779 h 10.999 10.999 l 0.033,2.82335 c 0.017,1.55282 0.033,5.09458 0.033,7.87056 v 5.04722 l -2.0411,0.0123 -2.0411,0.0123 2.0973,0.0123 2.0973,0.0123 -0.026,-7.89554 -0.026,-7.89556 h 0.2818 0.2817 l 0.029,1.96777 c 0.017,1.08229 0.042,4.72327 0.058,8.0911 l 0.028,6.12334 -1.5309,-0.007 c -0.8421,-0.005 -3.929,-0.0246 -6.8599,-0.0433 z"
         id="path3826"
         inkscape:connector-curvature="0" />
      <path
         style="opacity:0.847;fill:#b412ab;fill-opacity:1;fill-rule:evenodd;stroke:#2446cb;stroke-width:0.03695535;stroke-miterlimit:4;stroke-dasharray:none;stroke-opacity:0;paint-order:stroke markers fill"
         d="m 165.76383,482.79573 c -2.7158,-0.0197 -5.3338,-0.0606 -5.8178,-0.0914 -4.4591,-0.28316 -7.7629,-0.92948 -8.1486,-1.59402 -0.3565,-0.61438 -0.5463,-3.59769 -0.8512,-13.38133 l -0.033,-1.06335 h 0.4174 0.4175 l 0.03,0.45222 c 0.017,0.24873 0.052,1.02423 0.08,1.72333 0.1842,4.68877 0.5679,8.31953 1.0307,9.75332 0.1018,0.31499 0.3964,0.90005 0.4791,0.95116 0.025,0.0148 -0.02,-0.0889 -0.096,-0.23004 -0.6698,-1.23752 -1.0611,-4.27514 -1.3425,-10.4203 -0.04,-0.88446 -0.074,-1.74796 -0.074,-1.91889 v -0.31077 h 10.9921 10.992 l 0.033,2.28135 c 0.017,1.25476 0.033,4.79647 0.033,7.8705 v 5.58908 l -1.6989,0.0123 -1.6989,0.0123 1.7558,0.0123 1.7558,0.0123 -0.031,-7.89554 -0.031,-7.89556 h 0.2859 0.286 l 0.03,1.62555 c 0.017,0.89407 0.043,4.53505 0.06,8.09112 l 0.03,6.46554 -1.9733,-0.007 c -1.0854,-0.005 -4.1954,-0.0246 -6.9111,-0.0438 z m -4.5752,-0.5048 c -0.012,-0.01 -0.3724,-0.0564 -0.8026,-0.10172 -1.6712,-0.17585 -3.3098,-0.51212 -4.3092,-0.88404 -0.8426,-0.31348 -1.4244,-0.64029 -2.2664,-1.27299 -0.1266,-0.0953 -0.114,-0.0751 0.049,0.0773 0.2525,0.23619 0.8817,0.66129 1.2616,0.85239 1.4232,0.71568 3.7989,1.25769 5.8721,1.33971 0.1187,0.005 0.2067,-1.5e-4 0.1956,-0.01 z m -7.5737,-2.49095 c 0,-0.01 -0.049,-0.0589 -0.1101,-0.1101 l -0.1101,-0.0931 0.093,0.11009 c 0.087,0.10344 0.1268,0.13226 0.1268,0.0931 z"
         id="path3828"
         inkscape:connector-curvature="0" />
      <path
         style="opacity:0.847;fill:#b412ab;fill-opacity:1;fill-rule:evenodd;stroke:#2446cb;stroke-width:0.03695535;stroke-miterlimit:4;stroke-dasharray:none;stroke-opacity:0;paint-order:stroke markers fill"
         d="m 165.44193,482.79735 c -4.5534,-0.0342 -4.9833,-0.0453 -6.6164,-0.17265 -3.5841,-0.27905 -6.4862,-0.8702 -6.9785,-1.4215 -0.2357,-0.26407 -0.3962,-1.51098 -0.5526,-4.29533 -0.1158,-2.06196 -0.3684,-8.86832 -0.3684,-9.92669 v -0.31553 h 0.4112 0.4111 l 0.029,0.40333 c 0.017,0.22191 0.062,1.19536 0.1029,2.16333 0.2187,5.208 0.6445,8.69479 1.1989,9.81532 0.083,0.16748 0.1736,0.32668 0.2017,0.35358 0.028,0.0268 -0.01,-0.0611 -0.071,-0.19556 -0.5159,-1.03566 -0.8831,-3.45592 -1.1347,-7.48 -0.092,-1.47723 -0.2207,-4.20568 -0.2207,-4.69167 v -0.36833 h 10.9921 10.992 l 0.032,1.94335 c 0.017,1.06883 0.032,4.61044 0.032,7.87024 l 10e-5,5.92695 -1.2345,0.0148 -1.2344,0.0148 1.2913,0.0123 1.2913,0.0123 -0.034,-7.89554 -0.034,-7.89557 h 0.2885 0.2886 l 0.031,1.30779 c 0.017,0.71927 0.045,4.36026 0.062,8.0911 l 0.031,6.78333 -2.3657,-0.007 c -1.3011,-0.005 -4.3805,-0.0246 -6.8431,-0.0421 z m -4.3828,-0.51923 c -0.033,-0.0123 -0.099,-0.0148 -0.1465,-0.002 -0.048,0.0123 -0.02,0.0222 0.06,0.0246 0.081,9.8e-4 0.1197,-0.01 0.086,-0.0222 z m -0.3798,-0.0498 c -0.081,-0.01 -0.4327,-0.0525 -0.7822,-0.0946 -2.6201,-0.31459 -4.4971,-0.9116 -5.7011,-1.8133 -0.1987,-0.14876 -0.3061,-0.21107 -0.2389,-0.13842 0.1845,0.19926 0.7948,0.59271 1.2924,0.83282 1.3146,0.63437 3.8763,1.24092 5.2099,1.23355 0.2017,-0.001 0.3006,-0.01 0.2199,-0.0197 z"
         id="path3830"
         inkscape:connector-curvature="0" />
      <path
         style="opacity:0.847;fill:#b412ab;fill-opacity:1;fill-rule:evenodd;stroke:#2446cb;stroke-width:0.03695535;stroke-miterlimit:4;stroke-dasharray:none;stroke-opacity:0;paint-order:stroke markers fill"
         d="m 164.93263,482.79593 c -2.3124,-0.0197 -4.5894,-0.0606 -5.06,-0.0916 -4.0499,-0.26641 -7.2189,-0.83557 -7.9339,-1.42492 -0.1237,-0.10172 -0.1882,-0.2123 -0.2463,-0.42138 -0.2116,-0.75994 -0.3789,-2.93036 -0.5455,-7.07893 -0.095,-2.35143 -0.2204,-6.18132 -0.2207,-6.71001 l -2e-4,-0.40333 h 0.4106 0.4106 l 0.028,0.33 c 0.015,0.18152 0.041,0.671 0.057,1.08778 0.2219,5.90372 0.6417,9.61872 1.2329,10.91535 0.095,0.20886 0.1825,0.37052 0.1939,0.35919 0.012,-0.0123 -0.022,-0.10516 -0.075,-0.2086 -0.1251,-0.24605 -0.3304,-0.902 -0.4487,-1.4334 -0.3664,-1.64474 -0.7157,-5.72154 -0.8621,-10.06023 l -0.034,-0.98999 h 10.9996 10.9997 l 0.032,1.72333 c 0.017,0.94783 0.032,4.48934 0.032,7.87002 l 10e-5,6.14669 -0.9166,0.0148 -0.9167,0.0148 0.9729,0.0123 0.9728,0.0123 -0.036,-7.89554 -0.036,-7.89557 h 0.2905 0.2905 l 0.031,1.06335 c 0.017,0.58482 0.046,4.22583 0.063,8.09109 l 0.032,7.02778 -2.7574,-0.007 c -1.5165,-0.005 -4.6493,-0.0246 -6.9618,-0.0436 z m -4.5466,-0.5912 c -1.8752,-0.24137 -3.15,-0.49525 -4.0559,-0.80755 -0.6014,-0.20738 -1.4736,-0.61947 -1.891,-0.89357 -0.1709,-0.11231 -0.245,-0.14728 -0.1642,-0.0776 0.2103,0.18151 0.8486,0.54396 1.2935,0.73437 1.2916,0.55285 3.705,1.09307 4.8664,1.08932 l 0.2934,-9.6e-4 -0.3422,-0.0441 z m -6.2822,-1.91744 c 0,-0.01 -0.039,-0.0488 -0.085,-0.0855 -0.078,-0.0608 -0.079,-0.0591 -0.017,0.0172 0.064,0.0815 0.1039,0.10738 0.1039,0.067 z"
         id="path3832"
         inkscape:connector-curvature="0" />
      <path
         style="opacity:0.847;fill:#b412ab;fill-opacity:1;fill-rule:evenodd;stroke:#2446cb;stroke-width:0.03695535;stroke-miterlimit:4;stroke-dasharray:none;stroke-opacity:0;paint-order:stroke markers fill"
         d="m 164.63933,482.79546 c -4.2621,-0.0382 -5.2982,-0.0825 -7.4067,-0.31737 -2.2531,-0.25093 -3.7861,-0.54483 -4.7487,-0.91037 -0.502,-0.19064 -0.7113,-0.37954 -0.8024,-0.7242 -0.2091,-0.79141 -0.3978,-3.35239 -0.5602,-7.60221 -0.089,-2.34275 -0.1953,-5.65856 -0.1953,-6.12334 v -0.45222 h 0.4116 0.4117 l 0.028,0.30555 c 0.015,0.16797 0.051,0.87757 0.078,1.57667 0.067,1.6855 0.1326,2.91334 0.2212,4.13111 0.078,1.07378 0.3109,3.38447 0.3443,3.41814 0.032,0.0325 0.025,-0.14088 -0.028,-0.55943 -0.1953,-1.58908 -0.4357,-5.20822 -0.5203,-7.83315 l -0.034,-1.03889 h 10.9996 10.9997 l 0.032,1.50334 c 0.017,0.82683 0.032,4.36822 0.032,7.86976 l 1e-4,6.36643 -0.6966,0.0148 -0.6967,0.0148 0.7519,0.01 0.752,0.01 -0.036,-7.89554 -0.036,-7.89556 h 0.2917 0.2917 l 0.031,0.89221 c 0.017,0.49074 0.046,4.13173 0.064,8.09112 l 0.033,7.19888 -3.0021,-0.007 c -1.6511,-0.005 -4.806,-0.0246 -7.0109,-0.0441 z m -4.7911,-0.65659 c -1.0471,-0.14113 -1.8689,-0.28812 -2.4869,-0.44456 -0.5276,-0.13349 -0.7012,-0.13497 -0.2224,-0.002 0.8074,0.22437 2.1263,0.47172 2.8559,0.53541 0.6448,0.0562 0.5633,0.007 -0.1465,-0.0889 z m -3.4431,-0.71189 c -0.2266,-0.0783 -0.4204,-0.13398 -0.4308,-0.12363 -0.025,0.0246 0.6734,0.26572 0.7694,0.26597 0.04,9e-5 -0.112,-0.064 -0.3386,-0.14236 z m -0.5413,-0.19235 c -0.04,-0.0261 -0.095,-0.0473 -0.1222,-0.0473 -0.027,0 -0.015,0.0222 0.025,0.0473 0.04,0.0261 0.095,0.0473 0.1222,0.0473 0.027,0 0.015,-0.0222 -0.025,-0.0473 z m -0.1998,-0.0658 c -0.067,-0.0559 -1.1795,-0.60928 -1.1348,-0.5646 0.065,0.0653 1.0461,0.57755 1.1104,0.57989 0.025,9.2e-4 0.036,-0.005 0.025,-0.0148 z m -1.5603,-0.88151 c 0,-0.01 -0.039,-0.0488 -0.086,-0.0855 -0.078,-0.0608 -0.079,-0.0591 -0.017,0.0172 0.064,0.0815 0.1039,0.10739 0.1039,0.067 z m -0.9431,-1.187 c -0.2012,-0.39781 -0.4158,-1.22681 -0.599,-2.3131 -0.061,-0.3638 -0.1136,-0.60588 -0.1158,-0.53798 -0.01,0.19334 0.2298,1.48977 0.3648,1.99965 0.119,0.44928 0.3575,1.05324 0.3994,1.01135 0.012,-0.0123 -0.01,-0.0835 -0.049,-0.15985 z"
         id="path3834"
         inkscape:connector-curvature="0" />
      <path
         style="opacity:0.847;fill:#b412ab;fill-opacity:1;fill-rule:evenodd;stroke:#2446cb;stroke-width:0.03695535;stroke-miterlimit:4;stroke-dasharray:none;stroke-opacity:0;paint-order:stroke markers fill"
         d="m 164.41933,482.79588 c -2.057,-0.0197 -4.125,-0.0604 -4.5956,-0.0906 -3.25,-0.21033 -6.0709,-0.64703 -7.3483,-1.13765 -0.5078,-0.19506 -0.735,-0.41099 -0.8131,-0.77289 -0.2584,-1.1975 -0.4439,-4.26361 -0.6638,-10.97555 -0.04,-1.20998 -0.072,-2.4145 -0.072,-2.67665 l -2e-4,-0.47667 h 0.4156 c 0.3607,0 0.4164,0.0123 0.422,0.0855 0,0.047 0.022,0.33855 0.04,0.64777 l 0.034,0.56224 0.01,-0.6478 0.01,-0.64777 h 10.9922 10.9921 l 0.032,1.32796 c 0.017,0.73035 0.032,4.27159 0.032,7.86938 v 6.54145 l -0.5011,0.0148 -0.5011,0.0148 0.5551,0.01 0.5551,0.01 -0.037,-7.89554 -0.036,-7.89557 h 0.2927 0.2926 l 0.031,0.77001 c 0.017,0.4235 0.046,4.06449 0.064,8.0911 l 0.033,7.32111 -3.2468,-0.007 c -1.7857,-0.005 -4.9298,-0.0246 -6.9868,-0.0436 z m -3.9111,-0.553 c 0,-0.01 -0.2145,-0.0448 -0.4767,-0.0771 -0.7956,-0.098 -2.1091,-0.32895 -2.6458,-0.465 -0.2788,-0.0707 -0.5166,-0.11896 -0.5284,-0.10714 -0.027,0.0273 1.2843,0.34429 1.8665,0.45118 0.7162,0.13152 1.7844,0.25006 1.7844,0.19802 z m -4.1027,-0.81612 c -0.1458,-0.0517 -0.2736,-0.0855 -0.2842,-0.0749 -0.025,0.0249 0.3797,0.16822 0.4758,0.16871 0.04,1.5e-4 -0.046,-0.0421 -0.1916,-0.0938 z m -0.5417,-0.19211 c -0.04,-0.0261 -0.095,-0.0473 -0.1222,-0.0473 -0.027,0 -0.015,0.0222 0.025,0.0473 0.04,0.0261 0.095,0.0473 0.1222,0.0473 0.027,0 0.015,-0.0222 -0.025,-0.0473 z m -0.3423,-0.14679 c -0.094,-0.0515 -0.1931,-0.0936 -0.2199,-0.0936 -0.027,0 0.028,0.0421 0.1222,0.0936 0.094,0.0515 0.1931,0.0936 0.2199,0.0936 0.027,0 -0.028,-0.0421 -0.1222,-0.0936 z m -0.2933,-0.12142 c 0,-0.0123 -0.1101,-0.0793 -0.2443,-0.14753 -0.1345,-0.0682 -0.2443,-0.11305 -0.2443,-0.0995 0,0.0123 0.1044,0.0788 0.2322,0.14531 0.2611,0.13596 0.2567,0.13423 0.2567,0.10172 z m -2.1195,-1.98553 c -0.1421,-0.32252 -0.2507,-0.69016 -0.4032,-1.36417 -0.064,-0.28235 -0.1042,-0.40931 -0.089,-0.28215 0.045,0.39409 0.2585,1.20117 0.4179,1.58403 0.084,0.20097 0.1609,0.35663 0.1717,0.34594 0.01,-0.01 -0.033,-0.13841 -0.097,-0.28365 z m -0.5355,-2.08435 c -0.012,-0.0475 -0.022,-0.0197 -0.025,0.0601 -10e-4,0.0805 0.01,0.11969 0.022,0.0864 0.012,-0.033 0.015,-0.099 0,-0.14679 z m -0.049,-0.34316 c -0.012,-0.047 -0.022,-0.007 -0.022,0.0855 0,0.0941 0.01,0.13251 0.022,0.0855 0.012,-0.047 0.012,-0.12413 0,-0.17117 z m -0.049,-0.2924 c -0.012,-0.0475 -0.022,-0.0197 -0.025,0.0601 -0.001,0.0808 0.01,0.1197 0.022,0.0865 0.012,-0.033 0.015,-0.099 0,-0.14679 z m -0.048,-0.41591 c -0.012,-0.0608 -0.022,-0.0222 -0.022,0.085 -6e-4,0.10763 0.01,0.15738 0.022,0.11059 0.012,-0.0468 0.012,-0.13473 0.001,-0.19556 z m -0.049,-0.39111 c -0.012,-0.0608 -0.022,-0.0222 -0.022,0.085 -6e-4,0.10763 0.01,0.15738 0.022,0.11058 0.012,-0.0468 0.012,-0.13472 0.001,-0.19555 z m -0.1032,-1.04933 c -0.094,-0.96702 -0.2125,-2.62572 -0.2949,-4.12123 -0.035,-0.63189 -0.066,-0.99185 -0.07,-0.79989 -0.017,0.86173 0.3638,6.05754 0.4224,5.77669 0.01,-0.0458 -0.017,-0.43077 -0.058,-0.85557 z m -0.3841,-6.16236 c -0.01,-0.15467 -0.017,-0.0281 -0.017,0.28112 0,0.30922 0.01,0.43572 0.017,0.28112 0.01,-0.15467 0.01,-0.40761 0,-0.56224 z"
         id="path3836"
         inkscape:connector-curvature="0" />
      <path
         style="opacity:0.847;fill:#b412ab;fill-opacity:1;fill-rule:evenodd;stroke:#2446cb;stroke-width:0.03695535;stroke-miterlimit:4;stroke-dasharray:none;stroke-opacity:0;paint-order:stroke markers fill"
         d="m 164.19933,482.79578 c -1.9629,-0.0197 -3.9539,-0.0606 -4.4244,-0.0911 -3.9114,-0.25383 -7.1241,-0.83754 -7.834,-1.42337 -0.1328,-0.1096 -0.2027,-0.22043 -0.2555,-0.40439 -0.2066,-0.72183 -0.398,-3.26798 -0.5631,-7.48901 -0.09,-2.31266 -0.1963,-5.65315 -0.1963,-6.19666 v -0.52557 h 0.4156 c 0.2966,0 0.4172,0.0172 0.4215,0.0611 0,0.0335 0.022,0.29213 0.041,0.57446 l 0.035,0.51334 0.01,-0.57445 0.01,-0.57445 h 10.9922 10.9922 l 0.032,1.21001 c 0.017,0.6655 0.032,4.20657 0.032,7.86904 l 1e-4,6.65905 -0.3789,0.0172 -0.3789,0.0172 0.4313,0.01 0.4314,0.01 -0.035,-7.89554 -0.036,-7.89556 h 0.2934 0.2934 l 0.031,0.67223 c 0.017,0.36971 0.046,4.01072 0.064,8.0911 l 0.033,7.41889 -3.4424,-0.007 c -1.8933,-0.005 -5.0484,-0.0246 -7.0113,-0.0438 z m -3.7441,-0.55362 c -0.012,-0.01 -0.4383,-0.0783 -0.9492,-0.15073 -0.5109,-0.0724 -1.1898,-0.18595 -1.5086,-0.25265 -0.3188,-0.0665 -0.5887,-0.11206 -0.5999,-0.10098 -0.033,0.0328 1.329,0.31563 1.9129,0.3975 0.6876,0.0963 1.1829,0.1426 1.1448,0.10689 z m -3.138,-0.54817 c -0.017,-0.0172 -0.058,-0.0172 -0.094,-0.005 -0.039,0.0148 -0.027,0.0271 0.03,0.0296 0.052,0.002 0.081,-0.01 0.064,-0.0256 z m -1.4534,-0.45936 c -0.04,-0.0261 -0.095,-0.0473 -0.1222,-0.0473 -0.027,0 -0.015,0.0222 0.025,0.0473 0.04,0.0261 0.095,0.0473 0.1222,0.0473 0.027,0 0.015,-0.0222 -0.025,-0.0473 z m -0.2934,-0.12216 c -0.067,-0.0384 -0.1443,-0.07 -0.1711,-0.07 -0.027,0 0,0.0315 0.073,0.07 0.067,0.0384 0.1441,0.0699 0.1712,0.0699 0.027,0 0,-0.0315 -0.073,-0.0699 z m -0.5378,-0.24309 c 0,-0.0123 -0.066,-0.0574 -0.1467,-0.099 -0.184,-0.0951 -0.1951,-0.0537 -0.012,0.0453 0.1537,0.0832 0.1589,0.0852 0.1589,0.0537 z m -1.9387,-1.91266 c -0.045,-0.10492 -0.1431,-0.39983 -0.2177,-0.65528 -0.074,-0.25543 -0.1367,-0.43136 -0.1385,-0.39094 -0.01,0.17413 0.3708,1.30466 0.4197,1.25577 0.01,-0.01 -0.017,-0.10468 -0.064,-0.2096 z m -0.3862,-1.36145 c -0.017,-0.098 -0.043,-0.16871 -0.055,-0.15664 -0.012,0.0123 -0.01,0.10196 0.012,0.20023 0.017,0.098 0.043,0.16871 0.055,0.15664 0.012,-0.0123 0.01,-0.10196 -0.012,-0.20023 z m -0.135,-0.67189 c -0.015,-0.0389 -0.027,-0.0273 -0.03,0.0296 0,0.0515 0.01,0.0803 0.026,0.064 0.017,-0.0172 0.017,-0.0584 0,-0.0936 z m -0.05,-0.34528 c -0.015,-0.0335 -0.025,-0.005 -0.025,0.0611 0,0.0672 0.012,0.0948 0.025,0.0611 0.012,-0.0335 0.012,-0.0887 0,-0.12217 z m -0.048,-0.29025 c -0.015,-0.0389 -0.027,-0.0273 -0.03,0.0296 0,0.0515 0.01,0.0803 0.026,0.064 0.017,-0.0172 0.017,-0.0584 0,-0.0936 z m -0.048,-0.41769 c -0.012,-0.0475 -0.022,-0.0197 -0.025,0.0601 -9e-4,0.0808 0.01,0.1197 0.022,0.0865 0.012,-0.033 0.015,-0.099 0,-0.14679 z m -0.049,-0.39111 c -0.012,-0.0475 -0.022,-0.0197 -0.025,0.0601 -9e-4,0.0808 0.01,0.11969 0.022,0.0864 0.012,-0.033 0.015,-0.099 0,-0.14679 z m -0.048,-0.4648 c -0.012,-0.0608 -0.022,-0.0222 -0.022,0.085 -5e-4,0.10763 0.01,0.15738 0.022,0.11058 0.012,-0.0468 0.012,-0.13472 10e-4,-0.19555 z m -0.048,-0.51323 c -0.012,-0.0744 -0.02,-0.0251 -0.022,0.10936 -4e-4,0.13447 0.01,0.19531 0.02,0.13521 0.012,-0.0601 0.012,-0.17019 6e-4,-0.24432 z m -0.049,-0.53847 c -0.012,-0.0739 -0.02,-0.0123 -0.02,0.13448 0,0.14778 0.01,0.20836 0.02,0.13448 0.012,-0.0739 0.012,-0.19507 0,-0.26891 z m -0.049,-0.56132 c -0.01,-0.0879 -0.02,-0.0278 -0.02,0.13349 -3e-4,0.16132 0.01,0.23324 0.02,0.15984 0.012,-0.0734 0.012,-0.2054 5e-4,-0.29331 z m -0.062,-0.86692 c -0.02,-0.35247 -0.046,-0.63019 -0.059,-0.61719 -0.012,0.0123 -0.01,0.31198 0.012,0.66433 0.02,0.35237 0.046,0.63011 0.059,0.61718 0.012,-0.0123 0.01,-0.31186 -0.012,-0.66432 z m -0.085,-1.23489 c -0.01,-0.11502 -0.02,-0.033 -0.02,0.18201 -2e-4,0.21501 0.01,0.3092 0.02,0.2091 0.01,-0.1 0.01,-0.27612 3e-4,-0.39111 z m -0.049,-0.90574 c -0.01,-0.12782 -0.017,-0.0222 -0.017,0.23225 0,0.25543 0.01,0.35994 0.017,0.23226 0.01,-0.12783 0.01,-0.33671 0,-0.46444 z m -0.049,-0.80538 c -0.01,-0.11501 -0.02,-0.033 -0.02,0.18201 -2e-4,0.21502 0.01,0.3092 0.02,0.20911 0.01,-0.1 0.01,-0.27612 3e-4,-0.39112 z m -0.049,-1.24796 c -0.01,-0.10073 -0.02,-0.0172 -0.02,0.18324 0,0.20172 0.01,0.28418 0.02,0.18324 0.01,-0.10073 0.01,-0.26584 0,-0.36668 z"
         id="path3838"
         inkscape:connector-curvature="0" />
      <path
         style="opacity:0.847;fill:#b412ab;fill-opacity:1;fill-rule:evenodd;stroke:#2446cb;stroke-width:0.29564273;stroke-miterlimit:4;stroke-dasharray:none;stroke-opacity:0;paint-order:stroke markers fill"
         d="m 230.35903,209.41938 v -3.37332 l 3.4222,-0.007 c 1.8822,-0.005 58.0628,-0.26132 124.8458,-0.57044 66.7829,-0.30912 121.4717,-0.51384 121.5306,-0.4549 0.117,0.11699 -24.9548,0.84808 -48.7677,1.42189 -23.0149,0.55458 -75.1787,1.1776 -132.9776,1.58822 -29.5371,0.20984 -53.827,0.54261 -55.9288,0.76617 -4.7543,0.50571 -7.6698,1.35487 -8.7856,2.55883 -0.4865,0.52492 -1.4368,1.06484 -2.1117,1.19983 l -1.2272,0.24531 z"
         id="path3840"
         inkscape:connector-curvature="0" />
      <path
         style="opacity:0.847;fill:#b412ab;fill-opacity:1;fill-rule:evenodd;stroke:#2446cb;stroke-width:0.29564273;stroke-miterlimit:4;stroke-dasharray:none;stroke-opacity:0;paint-order:stroke markers fill"
         d="m 248.74123,223.23361 c -6.776,-0.1458 -13.684,-0.2885 -15.3511,-0.31734 l -3.0311,-0.0525 v -2.50465 -2.50464 l 1.913,0.72688 c 1.7727,0.67356 6.7736,1.64932 14.9048,2.90817 4.9181,0.76144 13.7118,1.40468 23.7552,1.73767 l 8.9025,0.29515 -9.3867,-0.0123 c -5.1626,-0.007 -14.9306,-0.13127 -21.7066,-0.27686 z"
         id="path3842"
         inkscape:connector-curvature="0" />
      <path
         style="opacity:0.847;fill:#b412ab;fill-opacity:1;fill-rule:evenodd;stroke:#2446cb;stroke-width:0.29564273;stroke-miterlimit:4;stroke-dasharray:none;stroke-opacity:0;paint-order:stroke markers fill"
         d="m 233.48793,211.94481 c 0,-0.75223 2.0103,-1.72927 4.6305,-2.25047 3.9704,-0.78981 20.6409,-1.23144 54.0361,-1.43155 21.5285,-0.12906 26.5714,-0.0889 17.4044,0.13792 -22.2332,0.55042 -40.6602,1.17915 -52.0177,1.77483 -10.5913,0.55549 -23.132,1.60507 -23.7513,1.98783 -0.166,0.1027 -0.302,0.005 -0.302,-0.21846 z"
         id="path3844"
         inkscape:connector-curvature="0" />
      <path
         style="opacity:0.847;fill:#b412ab;fill-opacity:1;fill-rule:evenodd;stroke:#2446cb;stroke-width:0.29564273;stroke-miterlimit:4;stroke-dasharray:none;stroke-opacity:0;paint-order:stroke markers fill"
         d="m 365.58683,280.84596 -0.099,-58.17771 -1.9128,-0.47207 c -6.674,-1.64708 -30.1446,-2.20286 -70.0516,-1.6588 -42.6174,0.581 -56.6571,0.0123 -61.5999,-2.49433 -1.7011,-0.86271 -1.7639,-0.95869 -1.8762,-2.86745 l -0.1163,-1.97485 2.2674,-0.46552 c 1.247,-0.25604 3.3233,-0.62671 4.6139,-0.82372 l 2.3467,-0.35821 -2.64,0.19063 c -5.2741,0.38079 -1.788,-1.52115 3.9874,-2.1754 5.6375,-0.63863 34.3193,-1.17077 59.8615,-1.11065 13.0142,0.0305 34.4861,-0.14138 47.7155,-0.38205 39.6341,-0.72129 126.0291,-1.38022 139.3331,-1.06268 l 12.4178,0.29639 v 6.21272 c 0,3.41699 -0.044,6.24378 -0.098,6.28178 -0.054,0.0379 -25.1777,0.16995 -55.831,0.29334 l -55.7333,0.22412 -0.2315,59.25327 c -0.1274,32.5893 -0.2594,59.29728 -0.2934,59.35105 -0.034,0.0537 -4.9891,0.0978 -11.0115,0.0978 h -10.9497 z m -123.0002,-69.59969 c -0.481,-0.0928 -1.361,-0.0953 -1.9556,-0.005 -0.5945,0.0899 -0.2009,0.16576 0.8747,0.16871 1.0755,0.002 1.5619,-0.0707 1.0809,-0.16353 z m 4.8835,-0.39591 c -0.5916,-0.0897 -1.5595,-0.0897 -2.1511,0 -0.5916,0.0897 -0.1076,0.1628 1.0755,0.1628 1.1832,0 1.6672,-0.0734 1.0756,-0.1628 z m 5.8579,-0.39641 c -0.8114,-0.0847 -2.0434,-0.0832 -2.7377,0.002 -0.6943,0.0864 -0.03,0.15566 1.4753,0.15393 1.5058,-0.002 2.0739,-0.0724 1.2624,-0.15713 z m 8.0383,-0.39148 c -0.9077,-0.082 -2.4917,-0.083 -3.52,-0.002 -1.0282,0.0808 -0.2856,0.14802 1.6505,0.14901 1.936,10e-4 2.7773,-0.065 1.8695,-0.14704 z m 8.5927,-0.39365 c -1.1294,-0.0791 -2.9774,-0.0791 -4.1067,0 -1.1293,0.0791 -0.2054,0.14359 2.0533,0.14359 2.2587,0 3.1827,-0.0648 2.0534,-0.14359 z m 10.9511,-0.39234 c -1.3445,-0.0763 -3.5445,-0.0763 -4.8889,0 -1.3445,0.0763 -0.2443,0.13891 2.4444,0.13891 2.6889,0 3.7889,-0.0626 2.4445,-0.13891 z m 14.0991,-0.39222 c -1.764,-0.0722 -4.7561,-0.0727 -6.6488,-8.2e-4 -1.8928,0.0719 -0.4494,0.13103 3.2074,0.13152 3.6569,4.7e-4 5.2056,-0.0584 3.4414,-0.13053 z"
         id="path3846"
         inkscape:connector-curvature="0" />
      <path
         style="opacity:0.847;fill:#b412ab;fill-opacity:1;fill-rule:evenodd;stroke:#2446cb;stroke-width:0.29564273;stroke-miterlimit:4;stroke-dasharray:none;stroke-opacity:0;paint-order:stroke markers fill"
         d="m 365.68333,280.93406 v -58.08961 l -0.8869,-0.33722 c -4.9938,-1.89865 -23.4135,-2.33633 -85.7441,-2.03751 -36.574,0.17536 -42.5689,-0.16452 -47.5283,-2.69461 -1.4935,-0.76193 -1.5561,-0.87076 -1.5561,-2.70532 v -1.91145 l 3.8133,-0.65588 c 4.5613,-0.78454 5.4149,-1.05952 2.3467,-0.75597 -5.1867,0.51315 -0.8166,-1.53775 4.6368,-2.17604 4.2173,-0.49359 42.4935,-1.28138 53.3454,-1.09792 4.8399,0.0818 25.4319,-0.0702 45.7599,-0.33776 68.4971,-0.90168 131.9089,-1.37929 145.9821,-1.09955 l 13.9822,0.27796 v 6.21088 c 0,6.16329 -0.01,6.21129 -0.88,6.26774 -0.484,0.0313 -25.608,0.1633 -55.8311,0.29334 l -54.951,0.23644 -0.2365,58.27549 c -0.13,32.05154 -0.2621,58.7595 -0.2933,59.35104 l -0.057,1.07556 h -10.9511 -10.9511 z m -123.4857,-69.66902 c -0.2648,-0.10714 -0.7928,-0.11354 -1.1734,-0.0148 -0.3805,0.0993 -0.1638,0.18669 0.4815,0.19482 0.6453,0.007 0.9566,-0.0731 0.6919,-0.18029 z m 4.8814,-0.40416 c -0.3765,-0.0983 -0.9924,-0.0983 -1.3689,0 -0.3764,0.0983 -0.068,0.1788 0.6844,0.1788 0.7529,0 1.0609,-0.0805 0.6845,-0.1788 z m 5.8712,-0.39023 c -0.3739,-0.0978 -1.0779,-0.10147 -1.5644,-0.007 -0.4865,0.0936 -0.1806,0.17364 0.6798,0.17807 0.8605,0.005 1.2586,-0.0722 0.8846,-0.17019 z m 7.6275,-0.39771 c -0.4811,-0.0928 -1.3611,-0.0953 -1.9556,-0.005 -0.5945,0.0899 -0.2009,0.16575 0.8747,0.16871 1.0755,0.002 1.5619,-0.0707 1.0809,-0.16354 z m 8.5991,-0.39872 c -0.6992,-0.0867 -1.8432,-0.0867 -2.5423,0 -0.6991,0.0867 -0.1271,0.15787 1.2711,0.15787 1.3983,0 1.9703,-0.0709 1.2712,-0.15787 z m 10.7555,-0.39309 c -0.8067,-0.0845 -2.1267,-0.0845 -2.9334,0 -0.8066,0.0845 -0.1465,0.15344 1.4667,0.15344 1.6134,0 2.2733,-0.069 1.4667,-0.15344 z m 13.702,-0.39315 c -1.0146,-0.0803 -2.7746,-0.081 -3.9111,-0.002 -1.1366,0.0793 -0.3065,0.14506 1.8446,0.14605 2.1511,0.001 3.081,-0.0638 2.0665,-0.14408 z"
         id="path3848"
         inkscape:connector-curvature="0" />
      <path
         style="opacity:0.847;fill:#b412ab;fill-opacity:1;fill-rule:evenodd;stroke:#2446cb;stroke-width:0.29564273;stroke-miterlimit:4;stroke-dasharray:none;stroke-opacity:0;paint-order:stroke markers fill"
         d="m 365.58683,280.84596 -0.099,-58.17771 -1.9543,-0.48224 c -5.8706,-1.44869 -28.9537,-1.98782 -71.1834,-1.66262 -28.4025,0.21871 -49.1337,-0.0837 -53.7777,-0.78488 -3.3041,-0.4988 -6.4142,-1.40862 -7.7245,-2.25971 -0.7106,-0.46165 -0.8799,-0.93229 -0.8799,-2.44632 v -1.87468 l 3.0311,-0.58312 c 1.6671,-0.32073 2.5471,-0.60088 1.9555,-0.62256 -0.5916,-0.0222 -1.0755,-0.20122 -1.0755,-0.39909 0,-0.59218 3.5618,-1.59132 7.1101,-1.99452 5.0701,-0.57611 35.6788,-1.15011 62.312,-1.16854 13.1218,-0.01 34.3297,-0.17979 47.1288,-0.37941 44.2859,-0.69058 125.0099,-1.27121 137.1821,-0.98675 l 12.2222,0.28568 v 6.21272 c 0,3.41699 -0.132,6.23849 -0.2933,6.26999 -0.1614,0.0315 -25.2853,0.16354 -55.8311,0.29333 l -55.5377,0.23595 -0.2362,58.6666 c -0.13,32.26665 -0.2619,58.97461 -0.2933,59.35104 -0.053,0.63421 -0.861,0.68445 -11.0069,0.68445 h -10.9498 z M 237.29313,211.6764 c -0.1301,-0.13004 -0.4673,-0.14384 -0.7497,-0.0308 -0.312,0.12487 -0.2194,0.21748 0.2362,0.2362 0.4123,0.0172 0.6433,-0.0754 0.5134,-0.20541 z m 4.6933,-0.39109 c -0.13,-0.13004 -0.4673,-0.14383 -0.7496,-0.0308 -0.312,0.12487 -0.2192,0.21748 0.2362,0.2362 0.4123,0.0172 0.6433,-0.0754 0.5133,-0.20541 z m 10.56,-0.78222 c -0.1301,-0.13005 -0.4673,-0.14384 -0.7496,-0.0308 -0.312,0.12487 -0.2195,0.21748 0.2362,0.2362 0.4123,0.0172 0.6433,-0.0754 0.5133,-0.20541 z m 7.6348,-0.41385 c -0.2689,-0.10837 -0.7089,-0.10837 -0.9778,0 -0.2689,0.10862 -0.049,0.19728 0.4889,0.19728 0.5378,0 0.7578,-0.0887 0.4889,-0.19728 z m 8.2133,-0.39111 c -0.2689,-0.10837 -0.7089,-0.10837 -0.9777,0 -0.269,0.10837 -0.049,0.19728 0.4888,0.19728 0.5378,0 0.7578,-0.0887 0.4889,-0.19728 z m 10.56,-0.39111 c -0.2689,-0.10837 -0.7089,-0.10837 -0.9778,0 -0.2688,0.10837 -0.049,0.19728 0.4889,0.19728 0.5378,0 0.7578,-0.0889 0.4889,-0.19728 z m 13.4933,-0.40168 c -0.3764,-0.0985 -0.9924,-0.0985 -1.3689,0 -0.3764,0.0983 -0.068,0.17881 0.6845,0.17881 0.7529,0 1.0609,-0.0805 0.6844,-0.17881 z"
         id="path3850"
         inkscape:connector-curvature="0" />
      <path
         style="opacity:0.847;fill:#b412ab;fill-opacity:1;fill-rule:evenodd;stroke:#2446cb;stroke-width:0.29564273;stroke-miterlimit:4;stroke-dasharray:none;stroke-opacity:0;paint-order:stroke markers fill"
         d="m 365.58683,280.8551 -0.099,-58.16857 -2.1511,-0.48062 c -5.7821,-1.29185 -11.7666,-1.43687 -63.751,-1.54462 -58.7051,-0.12167 -62.9773,-0.2892 -67.6844,-2.65348 -1.6806,-0.84412 -1.7416,-0.93842 -1.8549,-2.86556 l -0.1173,-1.99273 2.2683,-0.44761 c 2.7156,-0.53593 3.2807,-0.71705 2.366,-0.75833 -1.0321,-0.0466 -0.8219,-0.66332 0.3911,-1.1476 4.2694,-1.70457 11.353,-1.95709 67.1733,-2.39458 26.4586,-0.20738 61.2185,-0.54972 77.2443,-0.76075 49.7357,-0.65494 97.4726,-0.92729 109.2177,-0.62314 l 11.2444,0.29117 v 6.15092 6.15093 l -8.2764,0.25775 c -4.552,0.14186 -29.6041,0.25774 -55.6713,0.25774 h -47.3949 l -0.2575,7.68957 c -0.1416,4.22925 -0.2579,26.62523 -0.2584,49.76882 -4e-4,23.14362 -0.1168,46.43528 -0.2582,51.75928 l -0.2573,9.67998 h -10.8872 -10.8872 z"
         id="path3852"
         inkscape:connector-curvature="0" />
      <path
         style="opacity:0.847;fill:#b412ab;fill-opacity:1;fill-rule:evenodd;stroke:#2446cb;stroke-width:0.29564273;stroke-miterlimit:4;stroke-dasharray:none;stroke-opacity:0;paint-order:stroke markers fill"
         d="m 365.58683,280.8551 -0.099,-58.16857 -2.1511,-0.48325 c -5.5394,-1.24447 -12.465,-1.41015 -63.8912,-1.52852 -30.7517,-0.0707 -53.6024,-0.28156 -56.6025,-0.52214 -5.8028,-0.46529 -9.8252,-1.28926 -11.6188,-2.37999 -1.143,-0.69509 -1.2562,-0.93907 -1.2562,-2.7056 v -1.94162 l 2.4351,-0.47909 c 1.3393,-0.26351 2.2193,-0.55103 1.9555,-0.63893 -1.261,-0.42035 -0.015,-1.19247 3.2761,-2.03149 3.3589,-0.85606 17.4945,-1.20868 63.3198,-1.57952 26.0285,-0.21058 60.0844,-0.55512 75.6799,-0.76555 46.0959,-0.62197 103.9278,-0.93626 113.911,-0.61906 l 9.2889,0.29513 v 6.15278 6.15277 l -6.16,0.25548 c -3.388,0.14064 -28.4591,0.25607 -55.7135,0.25679 l -49.5535,0.001 -0.1355,9.48444 c -0.075,5.21645 -0.1706,28.40442 -0.2138,51.52883 -0.043,23.12443 -0.1945,45.6084 -0.3366,49.96437 l -0.2584,7.92 h -10.8885 -10.8885 z"
         id="path3854"
         inkscape:connector-curvature="0" />
      <path
         style="opacity:0.847;fill:#b412ab;fill-opacity:1;fill-rule:evenodd;stroke:#2446cb;stroke-width:0.29564273;stroke-miterlimit:4;stroke-dasharray:none;stroke-opacity:0;paint-order:stroke markers fill"
         d="m 365.66203,305.09481 c -0.022,-34.14591 -0.3275,-82.3191 -0.5242,-82.51577 -0.058,-0.0581 -1.8513,-0.37293 -3.9846,-0.69939 -6.1902,-0.94729 -29.885,-1.37335 -73.8876,-1.3286 -40.7367,0.0414 -46.4276,-0.11354 -52.1752,-1.42081 -1.4354,-0.32649 -3.1753,-0.93742 -3.8662,-1.35761 -1.1419,-0.6944 -1.2563,-0.94008 -1.2563,-2.69757 v -1.93357 l 2.1299,-0.44217 c 1.4779,-0.30678 2.0697,-0.59888 1.9334,-0.95416 -0.2897,-0.75491 2.3901,-1.6933 6.175,-2.16229 4.6833,-0.58032 32.1426,-1.17708 54.8816,-1.19272 10.7556,-0.007 39.3555,-0.26795 63.5555,-0.57896 60.892,-0.78265 122.5215,-1.15477 132.6843,-0.80119 l 8.5067,0.29597 v 6.15413 6.1541 l -4.9867,0.25432 c -2.7427,0.1399 -27.7242,0.25506 -55.5146,0.25593 -33.9515,0.001 -50.609,0.1325 -50.7748,0.40086 -0.1357,0.21969 -0.3262,23.05559 -0.4232,50.7466 -0.097,27.69104 -0.28,54.26334 -0.4065,59.04956 l -0.2301,8.7022 h -10.9075 -10.9076 l -0.022,-33.92886 z"
         id="path3856"
         inkscape:connector-curvature="0" />
      <path
         style="opacity:0.847;fill:#b412ab;fill-opacity:1;fill-rule:evenodd;stroke:#2446cb;stroke-width:0.29564273;stroke-miterlimit:4;stroke-dasharray:none;stroke-opacity:0;paint-order:stroke markers fill"
         d="m 365.68293,319.76147 c -6e-4,-26.02497 -0.4246,-96.20494 -0.5846,-96.74223 -0.1924,-0.64652 -4.046,-1.28771 -10.5819,-1.76079 -3.5683,-0.25829 -25.5823,-0.48005 -56.4952,-0.56916 -58.018,-0.16723 -62.3922,-0.35429 -66.6825,-2.85186 -1.029,-0.59899 -1.1898,-0.93185 -1.292,-2.67422 l -0.1167,-1.99007 1.9745,-0.47367 c 1.086,-0.26053 1.9745,-0.69186 1.9745,-0.95854 0,-0.59608 1.424,-1.26905 3.8424,-1.81587 3.6793,-0.83195 15.6728,-1.13511 60.2997,-1.52418 25.0604,-0.21846 58.3244,-0.57016 73.92,-0.78151 43.6708,-0.59181 112.3888,-0.93987 120.5598,-0.61065 l 7.3333,0.29547 v 6.21536 c 0,3.41846 -0.044,6.24669 -0.098,6.28499 -0.054,0.0382 -25.0312,0.17018 -55.5053,0.29333 -30.4742,0.12315 -55.4997,0.31592 -55.6123,0.42862 -0.1125,0.11256 -0.3074,23.43267 -0.4329,51.82216 -0.1256,28.3895 -0.3311,55.00527 -0.457,59.14613 l -0.2289,7.52889 h -10.9083 -10.9084 l -4e-4,-19.2622 z"
         id="path3858"
         inkscape:connector-curvature="0" />
      <path
         style="opacity:0.847;fill:#b412ab;fill-opacity:1;fill-rule:evenodd;stroke:#2446cb;stroke-width:0.29564273;stroke-miterlimit:4;stroke-dasharray:none;stroke-opacity:0;paint-order:stroke markers fill"
         d="m 365.68303,326.80146 c -6e-4,-23.09214 -0.4564,-103.35123 -0.5895,-103.79456 -0.1963,-0.6539 -4.4746,-1.29234 -11.6452,-1.73776 -3.4885,-0.21674 -28.7827,-0.46562 -56.2094,-0.55315 -57.1845,-0.1825 -61.5993,-0.37535 -65.9002,-2.87837 -1.0135,-0.58982 -1.192,-0.94517 -1.2969,-2.58215 -0.1298,-2.02445 0.2288,-2.54386 1.7637,-2.55454 0.473,-0.002 1.326,-0.43799 1.8957,-0.96594 1.2335,-1.14324 2.6295,-1.63846 6.0445,-2.14427 3.5672,-0.52837 36.9139,-1.11885 90.9332,-1.61021 25.3831,-0.23077 60.055,-0.57765 77.0488,-0.7706 36.8668,-0.41857 80.7335,-0.48184 87.3518,-0.1261 l 4.7548,0.25565 v 6.1583 6.15826 l -4.7911,0.23373 c -2.6352,0.12857 -27.6126,0.27851 -55.5055,0.33307 -27.8929,0.0547 -50.7973,0.18718 -50.8987,0.29441 -0.1015,0.10739 -0.2938,23.8672 -0.4276,52.7996 -0.1337,28.93242 -0.3494,55.55238 -0.4793,59.15549 l -0.2362,6.5511 h -10.9063 -10.9063 z"
         id="path3860"
         inkscape:connector-curvature="0" />
      <path
         style="opacity:0.847;fill:#b412ab;fill-opacity:1;fill-rule:evenodd;stroke:#2446cb;stroke-width:0.29564273;stroke-miterlimit:4;stroke-dasharray:none;stroke-opacity:0;paint-order:stroke markers fill"
         d="m 365.68303,331.8859 c -10e-4,-29.08968 -0.5379,-108.87919 -0.7341,-109.09795 -0.4471,-0.49864 -5.4113,-1.10149 -12.3297,-1.49729 -3.7681,-0.2155 -24.2382,-0.40682 -45.489,-0.42497 -59.8547,-0.0512 -71.1294,-0.47212 -75.3875,-2.81478 -1.4724,-0.81005 -1.5875,-0.99822 -1.7009,-2.78123 -0.1298,-2.03932 0.2263,-2.55807 1.7637,-2.56875 0.473,-0.002 1.3386,-0.44973 1.9238,-0.99204 2.7847,-2.58078 7.031,-2.81158 60.9674,-3.31409 23.232,-0.21649 55.968,-0.57081 72.7466,-0.78744 45.1464,-0.58298 120.0075,-0.93823 126.6221,-0.60088 l 5.7689,0.29422 v 6.15915 6.15913 l -3.2267,0.25119 c -1.7747,0.13817 -18.8178,0.25223 -37.8735,0.25351 -19.0558,0.001 -42.5996,0.11921 -52.3197,0.26179 -17.5031,0.25695 -17.6743,0.26727 -17.8376,1.07555 -0.091,0.44887 -0.2655,24.84008 -0.3885,54.20273 -0.1229,29.36262 -0.3338,55.6306 -0.4684,58.37326 l -0.2448,4.98666 h -10.8959 -10.896 z"
         id="path3862"
         inkscape:connector-curvature="0" />
      <path
         style="opacity:0.847;fill:#b412ab;fill-opacity:1;fill-rule:evenodd;stroke:#2446cb;stroke-width:0.29564273;stroke-miterlimit:4;stroke-dasharray:none;stroke-opacity:0;paint-order:stroke markers fill"
         d="m 365.58943,317.41482 c -0.059,-11.88488 -0.1571,-37.44886 -0.2185,-56.80884 -0.061,-19.35998 -0.2426,-35.81595 -0.4027,-36.56884 -0.2773,-1.30306 -0.4035,-1.39177 -2.6236,-1.84441 -4.614,-0.94068 -19.8024,-1.27727 -58.2612,-1.29111 -56.3258,-0.0197 -68.0352,-0.4817 -72.3406,-2.85088 -1.4955,-0.82294 -1.5855,-0.97657 -1.6968,-2.89647 l -0.1175,-2.02746 1.682,-0.4495 c 0.9251,-0.24723 1.9931,-0.78041 2.3733,-1.18482 2.1554,-2.29229 7.9327,-2.59996 58.1708,-3.09796 22.0489,-0.21846 54.6088,-0.57531 72.3555,-0.79277 47.6438,-0.58383 123.7726,-0.93288 129.9465,-0.59583 l 5.3778,0.29358 v 6.1812 6.1812 l -3.6178,0.21969 c -1.9898,0.12093 -26.913,0.30321 -55.385,0.40528 -28.472,0.10196 -51.88,0.29818 -52.0177,0.43583 -0.1377,0.13768 -0.3774,24.47971 -0.5325,54.0934 -0.1552,29.61371 -0.3931,56.17511 -0.5289,59.02532 l -0.247,5.18221 h -10.9045 -10.9045 z"
         id="path3864"
         inkscape:connector-curvature="0" />
      <path
         style="opacity:0.847;fill:#b412ab;fill-opacity:1;fill-rule:evenodd;stroke:#2446cb;stroke-width:0.29564273;stroke-miterlimit:4;stroke-dasharray:none;stroke-opacity:0;paint-order:stroke markers fill"
         d="m 365.63933,326.80146 c -0.2259,-62.71015 -0.5931,-103.55782 -0.9338,-103.89635 -1.5121,-1.50231 -16.1813,-1.96711 -62.9688,-1.99524 -54.2932,-0.0325 -65.7046,-0.49874 -69.994,-2.85913 -1.4949,-0.82262 -1.5855,-0.97712 -1.6966,-2.89307 l -0.1175,-2.02403 1.4437,-0.39865 c 0.7941,-0.2192 1.8149,-0.74144 2.2685,-1.16046 2.5837,-2.38652 7.6765,-2.67173 56.7536,-3.1784 21.296,-0.21994 53.5039,-0.5782 71.5732,-0.79634 47.7852,-0.57689 127.9309,-0.93495 133.271,-0.59543 l 4.5956,0.29217 v 6.16349 6.16347 l -2.4041,0.25126 c -1.3222,0.13817 -13.8622,0.25142 -27.8666,0.25159 -35.3691,4.2e-4 -79.8886,0.45744 -80.4853,0.82621 -0.3959,0.24457 -0.5562,11.321 -0.7874,54.39806 -0.1596,29.74997 -0.4015,56.24685 -0.5373,58.88196 l -0.2469,4.7911 h -10.9117 -10.9117 z"
         id="path3866"
         inkscape:connector-curvature="0" />
      <path
         style="opacity:0.847;fill:#b412ab;fill-opacity:1;fill-rule:evenodd;stroke:#2446cb;stroke-width:0.29564273;stroke-miterlimit:4;stroke-dasharray:none;stroke-opacity:0;paint-order:stroke markers fill"
         d="m 365.55193,315.49258 c -0.1429,-12.94211 -0.2602,-35.51409 -0.2607,-50.15995 -4e-4,-14.64585 -0.1165,-30.19359 -0.2577,-34.55048 l -0.2567,-7.92164 -1.4172,-0.38163 c -3.8473,-1.03598 -12.3875,-1.24602 -63.774,-1.56852 -60.1906,-0.37773 -63.6827,-0.52709 -67.9332,-2.90521 -1.3902,-0.77777 -1.4967,-0.96699 -1.6063,-2.85226 l -0.1175,-2.01925 1.4437,-0.39865 c 0.7941,-0.2192 1.8149,-0.74144 2.2685,-1.16046 1.4222,-1.31367 4.817,-2.00923 11.7549,-2.40839 6.5431,-0.37643 45.7471,-0.89803 103.6653,-1.37921 16.3484,-0.13571 30.1563,-0.31393 30.6841,-0.39579 1.9457,-0.30179 111.8246,-0.66985 115.8846,-0.38819 l 4.2045,0.29171 v 6.16566 6.16565 l -2.0534,0.24662 c -1.1293,0.1357 -15.3413,0.26868 -31.5821,0.2956 -39.0127,0.0648 -76.9134,0.4733 -77.2727,0.83313 -0.1584,0.15861 -0.433,24.9747 -0.61,55.14659 -0.1771,30.17191 -0.4307,56.662 -0.5638,58.86688 l -0.2421,4.00888 h -10.8494 -10.8493 z"
         id="path3868"
         inkscape:connector-curvature="0" />
      <path
         style="opacity:0.847;fill:#b412ab;fill-opacity:1;fill-rule:evenodd;stroke:#2446cb;stroke-width:0.29564273;stroke-miterlimit:4;stroke-dasharray:none;stroke-opacity:0;paint-order:stroke markers fill"
         d="m 365.55213,319.37036 c -0.1424,-10.80933 -0.2592,-32.69279 -0.2595,-48.62994 -2e-4,-15.93716 -0.1165,-33.22993 -0.2586,-38.4284 l -0.2581,-9.45178 -1.4041,-0.37437 c -3.7881,-1.01004 -14.0396,-1.26151 -64.5684,-1.58385 -59.2844,-0.37819 -62.9628,-0.53461 -67.0755,-2.85249 -1.5234,-0.85862 -1.5645,-0.93712 -1.5645,-2.99553 0,-2.08183 0.02,-2.11907 1.3501,-2.46361 0.7425,-0.19235 1.8373,-0.75991 2.433,-1.26112 2.5451,-2.14153 7.6115,-2.41777 53.7102,-2.92866 20.2205,-0.22412 51.5484,-0.58607 69.6177,-0.80446 46.6271,-0.56349 134.2211,-0.93852 138.7465,-0.59406 l 3.8134,0.29028 v 6.16812 6.16812 l -1.8146,0.24871 c -0.9981,0.13669 -14.066,0.26496 -29.04,0.28483 -36.1118,0.0478 -79.7035,0.48944 -80.0246,0.8106 -0.1414,0.14137 -0.4158,25.13277 -0.6096,55.53627 -0.1938,30.4035 -0.4605,56.90712 -0.5927,58.89689 l -0.2404,3.61776 h -10.8507 -10.8507 z"
         id="path3870"
         inkscape:connector-curvature="0" />
      <path
         style="opacity:0.847;fill:#b412ab;fill-opacity:1;fill-rule:evenodd;stroke:#2446cb;stroke-width:0.29564273;stroke-miterlimit:4;stroke-dasharray:none;stroke-opacity:0;paint-order:stroke markers fill"
         d="m 365.55133,323.11959 c -0.1426,-8.74724 -0.2594,-29.73521 -0.2598,-46.63995 -4e-4,-16.90471 -0.1168,-35.88471 -0.2586,-42.17775 l -0.2579,-11.4419 -1.4036,-0.37638 c -3.4529,-0.92594 -16.6881,-1.24612 -65.7414,-1.59039 -58.6705,-0.41177 -61.8289,-0.54807 -65.9021,-2.84369 -1.523,-0.85835 -1.5645,-0.93766 -1.5645,-2.99225 0,-1.99268 0.063,-2.12725 1.1211,-2.41034 0.6166,-0.16502 1.7606,-0.74063 2.5422,-1.27942 3.2031,-2.20788 7.484,-2.44908 52.6567,-2.96683 19.5751,-0.22438 50.463,-0.58633 68.6399,-0.80434 46.6065,-0.55901 137.2037,-0.94114 141.2887,-0.59593 l 3.4223,0.28917 v 6.17149 6.1715 l -1.4667,0.24235 c -0.8067,0.13324 -12.2906,0.25759 -25.52,0.27614 -40.579,0.0569 -83.2696,0.56369 -83.6995,0.99367 -0.2543,0.25422 -0.5261,19.87849 -0.7745,55.90861 -0.2106,30.53431 -0.4898,56.96894 -0.6206,58.74359 l -0.2376,3.22666 h -10.8524 -10.8524 z"
         id="path3872"
         inkscape:connector-curvature="0" />
      <path
         style="opacity:0.847;fill:#b412ab;fill-opacity:1;fill-rule:evenodd;stroke:#2446cb;stroke-width:0.29564273;stroke-miterlimit:4;stroke-dasharray:none;stroke-opacity:0;paint-order:stroke markers fill"
         d="m 365.66273,338.92589 c -0.012,-0.0537 -0.1675,-26.03154 -0.3469,-57.72837 -0.2707,-47.81533 -0.417,-57.72037 -0.8593,-58.15766 -1.4887,-1.47167 -9.8314,-1.73196 -68.782,-2.14578 -28.5671,-0.20048 -51.8713,-0.52662 -54.5599,-0.7634 -5.1792,-0.45614 -8.402,-1.23242 -10.0815,-2.42835 -0.9976,-0.71028 -1.0921,-0.97595 -0.9865,-2.77234 0.1069,-1.81672 0.2128,-2.0123 1.2379,-2.28482 0.6166,-0.16404 1.7606,-0.73886 2.5422,-1.27765 3.1892,-2.19823 7.5886,-2.45354 51.0922,-2.96479 18.9298,-0.2224 49.3778,-0.58381 67.6622,-0.80299 46.3603,-0.55575 140.5672,-0.94866 144.2221,-0.60152 l 3.0311,0.2879 v 6.20043 6.20043 l -1.6622,0.20369 c -0.9143,0.11206 -22.2543,0.30096 -47.4222,0.41978 -25.168,0.11871 -49.3156,0.32766 -53.6614,0.46408 l -7.9015,0.24807 -0.2091,1.01834 c -0.1151,0.56007 -0.3862,25.92229 -0.6026,56.3605 -0.2165,30.43817 -0.5005,56.53013 -0.6313,57.98215 l -0.238,2.63998 h -10.9114 c -6.0012,0 -10.9207,-0.0441 -10.932,-0.0978 z"
         id="path3874"
         inkscape:connector-curvature="0" />
      <path
         style="opacity:0.847;fill:#b412ab;fill-opacity:1;fill-rule:evenodd;stroke:#2446cb;stroke-width:0.29564273;stroke-miterlimit:4;stroke-dasharray:none;stroke-opacity:0;paint-order:stroke markers fill"
         d="m 365.66313,338.92589 c -0.012,-0.0537 -0.1754,-25.88175 -0.365,-57.39548 -0.1896,-31.51374 -0.462,-57.60228 -0.6053,-57.97452 -0.1434,-0.37225 -0.9031,-0.85582 -1.6884,-1.0746 -2.972,-0.82806 -19.3897,-1.20836 -67.721,-1.56866 -28.8223,-0.21477 -51.7648,-0.54704 -54.3644,-0.78708 -5.0284,-0.46431 -8.2407,-1.2517 -9.8859,-2.42322 -0.9969,-0.70981 -1.092,-0.97657 -0.9865,-2.76566 0.1069,-1.81035 0.219,-2.01647 1.3085,-2.40426 0.6554,-0.23324 1.8051,-0.81082 2.5548,-1.2834 0.7498,-0.47259 2.215,-1.05017 3.2562,-1.28348 4.7254,-1.05898 8.0398,-1.12834 113.0683,-2.36566 47.0638,-0.55446 142.9239,-0.94798 146.5688,-0.60172 l 3.0311,0.28797 v 6.19001 6.19004 l -1.4667,0.21206 c -0.8067,0.11649 -20.6506,0.30902 -44.0977,0.42759 -23.4471,0.11846 -47.6812,0.32468 -53.8535,0.45807 l -11.2224,0.2426 -0.2182,2.0043 c -0.12,1.10233 -0.3956,26.73225 -0.6122,56.95532 -0.2168,30.22309 -0.5006,55.87504 -0.6311,57.00439 l -0.2371,2.05332 h -10.906 c -5.9984,0 -10.9152,-0.0441 -10.9263,-0.0978 z"
         id="path3876"
         inkscape:connector-curvature="0" />
      <path
         style="opacity:0.847;fill:#b412ab;fill-opacity:1;fill-rule:evenodd;stroke:#2446cb;stroke-width:0.29564273;stroke-miterlimit:4;stroke-dasharray:none;stroke-opacity:0;paint-order:stroke markers fill"
         d="m 365.55153,327.58369 c -0.1419,-6.29201 -0.2787,-25.51997 -0.3042,-42.72883 -0.051,-34.57986 -0.4002,-61.39463 -0.8041,-61.79769 -1.3068,-1.30382 -14.5487,-1.70656 -70.9198,-2.1569 -26.6738,-0.21305 -50.3457,-0.55692 -52.6044,-0.76405 -4.8457,-0.44441 -8.6225,-1.36417 -9.9771,-2.4297 -0.7954,-0.62566 -0.974,-1.1092 -0.974,-2.63695 v -1.87081 l 3.2339,-1.60957 c 2.1465,-1.06837 4.152,-1.74373 5.9644,-2.00854 1.5018,-0.21945 10.2106,-0.57839 19.3528,-0.79772 42.685,-1.02401 232.5821,-2.44561 238.6753,-1.78675 l 2.64,0.28545 v 6.19558 6.19556 l -1.0756,0.20442 c -0.5915,0.11256 -19.2915,0.30344 -41.5555,0.42439 -22.264,0.12093 -46.67,0.32946 -54.2357,0.46335 l -13.7557,0.24334 -0.2258,3.17658 c -0.1242,1.74712 -0.4067,27.46456 -0.6278,57.14985 -0.2212,29.68532 -0.5081,54.80927 -0.6377,55.83106 l -0.2357,1.85776 h -10.8377 -10.8377 z"
         id="path3878"
         inkscape:connector-curvature="0" />
      <path
         style="opacity:0.847;fill:#b412ab;fill-opacity:1;fill-rule:evenodd;stroke:#2446cb;stroke-width:0.29564273;stroke-miterlimit:4;stroke-dasharray:none;stroke-opacity:0;paint-order:stroke markers fill"
         d="m 365.55053,328.98691 c -0.1422,-5.52022 -0.2749,-23.6042 -0.2952,-40.18662 -0.042,-34.35078 -0.425,-65.3556 -0.8121,-65.7426 -1.247,-1.24659 -16.0603,-1.68555 -72.8754,-2.15959 -25.8133,-0.21526 -48.7779,-0.56748 -51.0324,-0.78247 -4.708,-0.44897 -8.23,-1.33656 -9.6096,-2.42177 -0.7827,-0.61563 -0.9579,-1.10265 -0.9579,-2.662 v -1.90849 l 3.2267,-1.57337 c 2.1057,-1.02677 4.1777,-1.71003 5.9644,-1.96679 5.6279,-0.8088 32.4868,-1.23676 148.8176,-2.37118 43.1144,-0.42044 108.1771,-0.49867 110.391,-0.13275 l 1.4667,0.24235 v 6.17551 6.17553 l -1.0756,0.2059 c -0.5915,0.1133 -18.0595,0.30398 -38.8177,0.42397 -20.7582,0.11994 -45.1622,0.32683 -54.231,0.45966 l -16.4889,0.24161 -0.2295,4.35228 c -0.1264,2.39376 -0.4131,28.28827 -0.6375,57.54336 -0.2244,29.25506 -0.5116,53.85104 -0.6382,54.65772 l -0.2303,1.46665 h -10.8384 -10.8384 z"
         id="path3880"
         inkscape:connector-curvature="0" />
      <path
         style="opacity:0.847;fill:#b412ab;fill-opacity:1;fill-rule:evenodd;stroke:#2446cb;stroke-width:0.29564273;stroke-miterlimit:4;stroke-dasharray:none;stroke-opacity:0;paint-order:stroke markers fill"
         d="m 365.54233,327.58369 c -0.1268,-6.29201 -0.3215,-31.06396 -0.4326,-55.04884 -0.1111,-23.98485 -0.3166,-44.96361 -0.4565,-46.61946 l -0.2546,-3.01065 -1.9566,-0.41961 c -3.3062,-0.70907 -24.6809,-1.17915 -72.2431,-1.58883 -51.5653,-0.44414 -55.43,-0.63538 -58.816,-2.91058 -1.0689,-0.71824 -1.2341,-1.07226 -1.3379,-2.86761 l -0.1185,-2.04824 3.2474,-1.55048 c 2.08,-0.99315 4.2315,-1.69026 5.9851,-1.93928 5.7062,-0.81028 38.4015,-1.33737 146.8621,-2.36759 44.1336,-0.41921 110.1428,-0.49748 112.3465,-0.13324 l 1.4667,0.24235 v 6.17551 6.17553 l -1.0756,0.20615 c -0.5915,0.11329 -16.7395,0.30382 -35.8844,0.42335 -19.1448,0.11945 -43.5473,0.32592 -54.2276,0.4586 l -19.4188,0.24112 -0.2347,5.91756 c -0.129,3.25468 -0.4154,29.23756 -0.6363,57.73976 -0.2209,28.50217 -0.5045,52.39415 -0.6301,53.09325 l -0.2283,1.27111 h -10.8628 -10.8628 z"
         id="path3882"
         inkscape:connector-curvature="0" />
      <path
         style="opacity:0.847;fill:#b412ab;fill-opacity:1;fill-rule:evenodd;stroke:#2446cb;stroke-width:0.29564273;stroke-miterlimit:4;stroke-dasharray:none;stroke-opacity:0;paint-order:stroke markers fill"
         d="m 365.54973,331.33413 c -0.1416,-4.22926 -0.2713,-19.58524 -0.2882,-34.12441 -0.036,-30.72179 -0.5013,-73.83493 -0.8006,-74.13422 -1.1766,-1.17667 -18.6477,-1.6792 -75.4353,-2.16984 -24.2,-0.2091 -46.0239,-0.56359 -48.4977,-0.78779 -5.1316,-0.46507 -8.0228,-1.18171 -9.5206,-2.3599 -0.8762,-0.68922 -1.0394,-1.12299 -1.0394,-2.76278 V 213.05 l 3.2267,-1.53401 c 1.818,-0.86434 4.3365,-1.7087 5.7688,-1.93413 5.1118,-0.80449 40.3418,-1.38422 143.9288,-2.36835 44.6079,-0.4238 113.8834,-0.50808 115.7199,-0.14088 l 1.2222,0.24432 v 6.20144 c 0,6.11401 -0.012,6.20411 -0.88,6.39163 -0.484,0.10468 -25.2481,0.37284 -55.0313,0.59606 -29.7831,0.22314 -54.2823,0.53696 -54.4425,0.69725 -0.4768,0.47689 -0.7217,14.82561 -1.1333,66.38909 -0.2145,26.88886 -0.4933,49.46084 -0.6195,50.15994 l -0.2293,1.27111 h -10.8456 -10.8455 z"
         id="path3884"
         inkscape:connector-curvature="0" />
      <path
         style="opacity:0.847;fill:#b412ab;fill-opacity:1;fill-rule:evenodd;stroke:#2446cb;stroke-width:0.29564273;stroke-miterlimit:4;stroke-dasharray:none;stroke-opacity:0;paint-order:stroke markers fill"
         d="m 365.55053,332.27701 c -0.1406,-3.71066 -0.2682,-17.92264 -0.2833,-31.58218 -0.044,-39.90553 -0.5519,-76.99993 -1.0615,-77.50949 -0.2418,-0.24186 -1.2843,-0.57723 -2.3166,-0.74525 -3.4743,-0.56557 -32.1067,-1.15324 -74.819,-1.53569 -23.3396,-0.2091 -44.3715,-0.56484 -46.7378,-0.79082 -4.9842,-0.476 -7.8585,-1.20207 -9.325,-2.35561 -0.8762,-0.68922 -1.0394,-1.12299 -1.0394,-2.76278 V 213.05 l 3.2267,-1.53401 c 1.8235,-0.86695 4.3321,-1.7073 5.7688,-1.93251 5.2438,-0.82195 43.5156,-1.46182 141.7777,-2.37039 45.7744,-0.42325 116.0382,-0.50692 117.871,-0.14039 l 1.2222,0.24433 v 6.20144 c 0,6.11292 -0.012,6.2042 -0.88,6.39527 -0.484,0.10665 -25.1345,0.3835 -54.7788,0.61531 -29.6443,0.23177 -54.1329,0.51131 -54.4189,0.6211 -0.7275,0.27915 -0.9209,9.55036 -1.4105,67.61568 -0.2249,26.67375 -0.5072,48.89372 -0.6272,49.37771 l -0.2182,0.88001 h -10.8471 -10.8471 z"
         id="path3886"
         inkscape:connector-curvature="0" />
      <path
         style="opacity:0.847;fill:#b412ab;fill-opacity:1;fill-rule:evenodd;stroke:#2446cb;stroke-width:0.29564273;stroke-miterlimit:4;stroke-dasharray:none;stroke-opacity:0;paint-order:stroke markers fill"
         d="m 230.35903,209.43452 v -3.26039 l 64.8266,-0.26048 c 133.8998,-0.53802 167.3778,-0.59265 157.5198,-0.25708 -17.9368,0.61061 -47.1616,1.26144 -61.7955,1.37614 -7.9591,0.0623 -22.8311,0.22141 -33.0488,0.3535 -16.5809,0.21427 -43.296,0.46884 -82.5244,0.78639 -27.1179,0.21944 -34.9361,0.40569 -35.0792,0.83542 -0.077,0.23078 -0.6635,0.34289 -1.3036,0.24893 -0.6792,-0.0997 -1.1638,0.005 -1.1638,0.25242 0,0.23275 -0.2516,0.32668 -0.5592,0.20861 -0.3075,-0.11797 -1.8986,0.5035 -3.5358,1.38116 -1.6371,0.87766 -3.0575,1.59575 -3.1563,1.59575 -0.099,0 -0.1798,-1.46719 -0.1798,-3.26042 z"
         id="path3888"
         inkscape:connector-curvature="0" />
      <path
         style="opacity:0.847;fill:#b412ab;fill-opacity:1;fill-rule:evenodd;stroke:#2446cb;stroke-width:0.29564273;stroke-miterlimit:4;stroke-dasharray:none;stroke-opacity:0;paint-order:stroke markers fill"
         d="m 365.55003,333.45035 c -0.1401,-3.06533 -0.2634,-15.95731 -0.2737,-28.64887 -0.028,-34.56505 -0.6368,-81.18237 -1.0657,-81.61129 -0.2034,-0.20343 -1.4953,-0.53078 -2.8708,-0.72749 -3.9025,-0.55813 -32.4304,-1.14019 -76.4209,-1.55928 -22.1564,-0.21107 -42.2203,-0.56256 -44.5866,-0.78109 -5.0453,-0.46596 -7.9923,-1.23489 -9.3811,-2.44765 l -0.9997,-0.87309 0.2614,-5.31636 0.2615,-5.31637 73.5689,-0.25777 c 40.4629,-0.14186 90.4648,-0.33405 111.1155,-0.42724 25.0008,-0.1128 36.0437,-0.047 33.0488,0.19679 -2.4737,0.20146 -11.4497,0.51393 -19.9466,0.69449 -13.2141,0.28082 -9.282,0.33813 27.1822,0.39611 23.4471,0.0372 43.0271,0.17388 43.5111,0.30361 0.8655,0.232 0.88,0.33734 0.88,6.42162 0,5.55247 -0.07,6.20679 -0.6845,6.3907 -0.3764,0.1128 -24.2684,0.38828 -53.0932,0.61243 -28.8249,0.22412 -53.3182,0.50662 -54.4296,0.62775 -1.1188,0.12191 -2.1078,0.44724 -2.2159,0.72885 -0.3265,0.85082 -0.6572,22.43339 -1.0732,70.0387 -0.218,24.95288 -0.4957,45.76485 -0.6169,46.24884 l -0.2204,0.88 h -10.8478 -10.8479 z M 240.33233,209.35763 c 1.0756,-0.13866 6.3556,-0.38451 11.7333,-0.5463 l 9.7778,-0.29417 -8.1309,-0.0623 c -8.0084,-0.0613 -14.7884,0.41094 -16.4456,1.14543 -0.7903,0.35025 -0.7817,0.36284 0.132,0.19211 0.5378,-0.10049 1.8578,-0.29615 2.9333,-0.43483 z m 42.7525,-1.25715 c -2.9447,-0.0663 -7.8727,-0.0665 -10.9511,-3.4e-4 -3.0783,0.0662 -0.669,0.12043 5.3541,0.12068 6.0231,2e-4 8.5418,-0.0539 5.597,-0.12019 z m 27.7452,-0.36848 c -0.3764,-0.0983 -0.9924,-0.0983 -1.3689,0 -0.3764,0.0983 -0.068,0.17881 0.6845,0.17881 0.7529,0 1.0609,-0.0805 0.6844,-0.17881 z m 2.1511,0.01 c -0.2689,-0.10837 -0.7089,-0.10837 -0.9777,0 -0.2689,0.10862 -0.049,0.19728 0.4889,0.19728 0.5377,0 0.7577,-0.0887 0.4888,-0.19728 z m 83.7169,-0.81387 c -1.7641,-0.0722 -4.7561,-0.0727 -6.6488,-8.1e-4 -1.8928,0.0719 -0.4495,0.13103 3.2074,0.13152 3.6569,4.4e-4 5.2055,-0.0584 3.4414,-0.13054 z"
         id="path3890"
         inkscape:connector-curvature="0" />
      <path
         style="opacity:0.847;fill:#b412ab;fill-opacity:1;fill-rule:evenodd;stroke:#2446cb;stroke-width:0.29564273;stroke-miterlimit:4;stroke-dasharray:none;stroke-opacity:0;paint-order:stroke markers fill"
         d="m 365.54973,334.03701 c -0.1399,-2.74266 -0.2604,-14.84265 -0.2678,-26.88886 -0.02,-32.93452 -0.6836,-83.57027 -1.1002,-83.98682 -0.199,-0.19901 -1.5706,-0.51473 -3.0479,-0.70144 -4.1679,-0.5268 -34.4859,-1.13822 -77.3882,-1.56063 -21.5111,-0.21181 -41.047,-0.56266 -43.4133,-0.77967 -5.0419,-0.46243 -7.9911,-1.23104 -9.3811,-2.44491 l -0.9997,-0.87309 0.2615,-5.31757 0.2615,-5.31757 70.4399,-0.25649 c 38.742,-0.14113 87.864,-0.34067 109.16,-0.44357 22.5328,-0.10887 38.3111,-0.0431 37.7421,0.15738 -0.5377,0.1894 -3.7057,0.38337 -7.04,0.43101 -3.3342,0.0478 -9.1422,0.21009 -12.9066,0.36084 -3.9643,0.15886 9.3669,0.30558 31.68,0.3488 21.1884,0.0411 38.9204,0.18078 39.4044,0.31043 0.8655,0.232 0.88,0.33734 0.88,6.42162 0,5.55222 -0.07,6.20687 -0.6845,6.39134 -0.3764,0.11305 -23.9164,0.38843 -52.311,0.61201 -28.3947,0.22363 -52.887,0.50849 -54.4273,0.63314 -2.4578,0.19901 -2.8256,0.33077 -3.0039,1.07657 -0.3168,1.32525 -0.6362,22.42294 -1.0699,70.66315 -0.2195,24.4151 -0.4976,44.78707 -0.6181,45.27106 l -0.2189,0.88 h -10.8483 -10.8484 z m -114.0135,-125.26216 8.7428,-0.31764 -9.7778,0.16379 c -5.3778,0.0901 -10.4818,0.32865 -11.3422,0.53014 -1.3036,0.30525 -1.131,0.33089 1.035,0.15393 1.4297,-0.11674 6.5337,-0.35542 11.3422,-0.53012 z m 28.8025,-0.6707 c -1.2284,-0.0773 -3.3404,-0.0781 -4.6933,-0.001 -1.3529,0.0766 -0.3478,0.1399 2.2336,0.14063 2.5813,7.7e-4 3.6882,-0.0618 2.4597,-0.13915 z"
         id="path3892"
         inkscape:connector-curvature="0" />
      <path
         style="opacity:0.847;fill:#b412ab;fill-opacity:1;fill-rule:evenodd;stroke:#2446cb;stroke-width:0.29564273;stroke-miterlimit:4;stroke-dasharray:none;stroke-opacity:0;paint-order:stroke markers fill"
         d="m 365.53943,333.05923 c -0.1244,-3.28044 -0.3204,-23.91641 -0.4355,-45.85772 -0.2197,-41.88402 -0.5443,-63.23353 -0.9717,-63.92509 -0.1404,-0.22708 -1.5648,-0.57891 -3.1654,-0.7818 -4.1509,-0.52618 -34.8163,-1.14679 -78.7856,-1.59443 -20.8658,-0.21255 -39.7857,-0.56544 -42.0444,-0.78449 -4.8926,-0.47448 -7.8204,-1.25178 -9.1948,-2.44102 l -1.0089,-0.87309 0.2695,-5.31814 0.2694,-5.31811 65.9435,-0.2557 c 36.2688,-0.14064 85.3913,-0.33984 109.1611,-0.44269 25.0932,-0.10861 42.8077,-0.0426 42.2399,0.15714 -0.5377,0.18915 -3.5297,0.38318 -6.6488,0.43096 -3.1191,0.0478 -7.5191,0.21181 -9.7778,0.36451 -2.2587,0.1527 11.8213,0.30952 31.2888,0.34853 19.4676,0.0389 35.7958,0.17807 36.285,0.30924 0.8844,0.23694 0.8889,0.27425 0.7822,6.54576 l -0.1071,6.30745 -23.4666,0.28654 c -12.9067,0.15762 -37.4944,0.42207 -54.6393,0.58777 -24.7002,0.23866 -31.278,0.40658 -31.68,0.80851 -0.7084,0.70833 -0.9572,12.34983 -1.4747,69.0174 -0.2372,25.97846 -0.5315,47.49443 -0.6538,47.81328 -0.1892,0.49296 -1.8488,0.5797 -11.0906,0.5797 h -10.868 z M 239.63973,209.32975 c -0.13,-0.13004 -0.4673,-0.14383 -0.7496,-0.0308 -0.312,0.12487 -0.2194,0.21748 0.2362,0.2362 0.4123,0.0172 0.6433,-0.0754 0.5133,-0.20541 z m 5.4941,-0.43911 c -0.801,-0.084 -2.209,-0.0852 -3.1289,-0.002 -0.9199,0.0828 -0.2646,0.15147 1.4563,0.1527 1.7209,0.001 2.4735,-0.0663 1.6726,-0.15024 z m 9.963,-0.39639 c -1.3445,-0.0763 -3.5445,-0.0763 -4.8889,0 -1.3445,0.0764 -0.2444,0.13891 2.4444,0.13891 2.6889,0 3.7889,-0.0626 2.4445,-0.13891 z"
         id="path3894"
         inkscape:connector-curvature="0" />
      <path
         style="opacity:0.847;fill:#b412ab;fill-opacity:1;fill-rule:evenodd;stroke:#2446cb;stroke-width:0.10452548;stroke-miterlimit:4;stroke-dasharray:none;stroke-opacity:0;paint-order:stroke markers fill"
         d="m 322.65883,221.39263 c -10.7876,-0.19531 -29.8059,-0.41141 -48.0518,-0.54573 -27.6379,-0.20344 -35.7,-0.51424 -39.9624,-1.54032 -1.5442,-0.3717 -3.2745,-1.1875 -4.0658,-1.91687 l -0.6357,-0.58602 v -1.82151 c 0,-1.00182 0.06,-1.8812 0.1327,-1.9542 0.073,-0.0729 0.1759,-1.63573 0.2288,-3.47277 l 0.096,-3.34005 1.396,-0.0766 c 0.7678,-0.0421 14.1211,-0.10985 29.674,-0.15049 15.5529,-0.0406 37.9384,-0.11502 49.7457,-0.16526 l 21.4677,-0.0916 v 7.90458 7.90458 l -2.1779,-0.0222 c -1.1978,-0.0123 -4.7291,-0.0687 -7.8473,-0.12512 z m -82.9671,-12.02076 c 0.215,-0.0924 0.1476,-0.12093 -0.303,-0.12857 -0.3187,-0.005 -0.6179,0.0525 -0.6649,0.12857 -0.104,0.16797 0.5769,0.16797 0.9679,0 z m 7.1213,-0.42818 c 1.6352,-0.0805 4.3109,-0.1995 5.946,-0.26413 2.8156,-0.11157 2.7497,-0.11428 -1.2445,-0.0552 -5.6659,0.0842 -10.6242,0.29046 -11.1314,0.46316 -0.4537,0.15442 1.0558,0.12068 6.4299,-0.14408 z"
         id="path3896"
         inkscape:connector-curvature="0" />
      <path
         style="opacity:0.847;fill:#b412ab;fill-opacity:1;fill-rule:evenodd;stroke:#2446cb;stroke-width:0.10452548;stroke-miterlimit:4;stroke-dasharray:none;stroke-opacity:0;paint-order:stroke markers fill"
         d="m 321.69093,221.39216 c -10.9001,-0.19383 -29.9857,-0.41104 -47.9827,-0.54613 -27.2799,-0.20467 -34.6799,-0.49399 -39.0636,-1.52669 -1.4006,-0.32993 -3.4607,-1.31219 -4.183,-1.99438 l -0.5185,-0.48977 v -1.78675 c 0,-0.98273 0.059,-1.94251 0.1315,-2.13285 0.072,-0.19038 0.1751,-1.77783 0.2286,-3.52779 l 0.097,-3.1817 0.7049,-0.0709 c 0.6344,-0.0638 81.2585,-0.36843 95.6676,-0.36146 l 5.9114,0.002 v 7.88189 7.88187 l -2.5927,-0.0222 c -1.426,-0.0123 -5.2062,-0.069 -8.4004,-0.12585 z m -82.1375,-12.02029 c 0.2219,-0.0953 0.1739,-0.12069 -0.2421,-0.12857 -0.2852,-0.005 -0.5185,0.0525 -0.5185,0.12857 0,0.16501 0.3762,0.16501 0.7605,0 z m 6.9103,-0.42134 c 1.2189,-0.0795 3.554,-0.19974 5.1891,-0.267 l 2.973,-0.12216 -3.0421,0.0662 c -5.7776,0.1261 -10.5938,0.29875 -10.6781,0.38306 -0.1338,0.13374 3.1288,0.0985 5.5581,-0.0601 z"
         id="path3898"
         inkscape:connector-curvature="0" />
      <path
         style="opacity:0.847;fill:#b412ab;fill-opacity:1;fill-rule:evenodd;stroke:#2446cb;stroke-width:0.10452548;stroke-miterlimit:4;stroke-dasharray:none;stroke-opacity:0;paint-order:stroke markers fill"
         d="m 320.79213,221.39278 c -10.0634,-0.17955 -30.368,-0.40885 -48.3975,-0.5465 -22.5712,-0.17241 -29.5037,-0.36971 -34.4314,-0.98042 -2.3586,-0.29232 -3.5281,-0.51847 -4.5551,-0.88079 -0.9772,-0.34478 -2.2093,-1.01681 -2.8574,-1.55851 l -0.6076,-0.50795 v -1.71782 c 0,-0.9448 0.064,-2.09836 0.1428,-2.56343 0.079,-0.4651 0.1875,-2.12124 0.2421,-3.68032 l 0.099,-2.83473 16.3169,-0.0835 c 8.9743,-0.0461 31.9821,-0.13325 51.1285,-0.19408 l 34.8116,-0.11059 v 7.90315 7.90318 l -3.0767,-0.0222 c -1.6922,-0.0123 -5.659,-0.0687 -8.8152,-0.12487 z m -81.3769,-12.02091 c 0.2469,-0.10616 0.2367,-0.11995 -0.096,-0.12857 -0.2047,-0.005 -0.4105,0.0525 -0.4576,0.12857 -0.1019,0.16501 0.169,0.16501 0.5532,0 z m 6.2916,-0.40715 c 1.0593,-0.0931 0.9637,-0.10393 -0.9679,-0.11083 -1.1788,-0.005 -2.4856,0.0396 -2.9039,0.0973 -1.0482,0.14482 2.2436,0.1564 3.8718,0.0123 z m 3.3559,-0.23669 c -0.094,-0.0379 -0.2803,-0.0401 -0.4148,-0.005 -0.1345,0.035 -0.058,0.066 0.1702,0.069 0.228,0.002 0.3382,-0.0259 0.2445,-0.0638 z"
         id="path3900"
         inkscape:connector-curvature="0" />
      <path
         style="opacity:0.847;fill:#b412ab;fill-opacity:1;fill-rule:evenodd;stroke:#2446cb;stroke-width:0.10452548;stroke-miterlimit:4;stroke-dasharray:none;stroke-opacity:0;paint-order:stroke markers fill"
         d="m 320.10073,221.39228 c -10.2367,-0.17954 -30.4518,-0.40694 -48.5358,-0.54615 -22.1426,-0.17043 -28.5073,-0.35495 -33.6009,-0.97406 -3.9688,-0.48239 -5.6963,-1.05273 -7.4332,-2.45408 l -0.5877,-0.47411 8e-4,-1.74641 c 4e-4,-0.96052 0.059,-2.09868 0.129,-2.52928 0.071,-0.43056 0.1727,-2.06604 0.2274,-3.63438 0.054,-1.56834 0.1364,-2.87391 0.182,-2.90128 0.046,-0.0273 20.3063,-0.12167 45.0236,-0.20935 24.7173,-0.0877 47.694,-0.17215 51.0594,-0.18767 l 6.1189,-0.0281 -1e-4,7.91645 -10e-5,7.91645 -3.3532,-0.0222 c -1.8443,-0.0123 -5.9978,-0.069 -9.2301,-0.12561 z m -80.4781,-12.10568 c 0,-0.0291 -0.1557,-0.0529 -0.3457,-0.0529 -0.1902,0 -0.3457,0.0537 -0.3457,0.11896 0,0.0655 0.1556,0.0894 0.3457,0.053 0.1901,-0.0365 0.3457,-0.0899 0.3457,-0.11921 z m 5.3237,-0.32163 c 0.7583,-0.15689 -1.8186,-0.17118 -2.6964,-0.0148 -0.5118,0.0911 -0.3769,0.11231 0.7605,0.12019 0.7605,0.005 1.6317,-0.0421 1.9359,-0.10517 z"
         id="path3902"
         inkscape:connector-curvature="0" />
      <path
         style="opacity:0.847;fill:#b412ab;fill-opacity:1;fill-rule:evenodd;stroke:#2446cb;stroke-width:0.10452548;stroke-miterlimit:4;stroke-dasharray:none;stroke-opacity:0;paint-order:stroke markers fill"
         d="m 319.40933,221.39206 c -10.6216,-0.18176 -30.84,-0.40667 -48.8815,-0.54344 -9.6587,-0.0731 -18.3392,-0.16428 -19.2898,-0.20245 -0.9507,-0.0382 -2.7241,-0.10345 -3.941,-0.14482 -5.7377,-0.19605 -10.5339,-0.63635 -12.7552,-1.17093 -1.3947,-0.33564 -2.9541,-1.05957 -3.9101,-1.81524 l -0.7164,-0.5663 0.079,-2.23282 c 0.116,-3.27068 0.4218,-8.49247 0.5017,-8.56762 0.038,-0.0357 19.4212,-0.13349 43.0738,-0.21698 23.6525,-0.0837 46.6292,-0.18324 51.0593,-0.22117 l 8.0547,-0.069 v 7.94957 7.94958 l -3.6298,-0.0222 c -1.9964,-0.0123 -6.3366,-0.069 -9.6449,-0.12561 z m -80.0287,-12.11176 c -0.095,-0.0384 -0.2506,-0.0384 -0.3457,0 -0.095,0.0384 -0.017,0.0697 0.1729,0.0697 0.1901,0 0.2679,-0.0313 0.1729,-0.0697 z m 5.2891,-0.31533 c 0.4846,-0.10024 0.4246,-0.11502 -0.4839,-0.11995 -0.5704,-0.002 -1.3171,0.0441 -1.6594,0.10517 -0.5596,0.0995 -0.5108,0.11157 0.484,0.12019 0.6084,0.005 1.3551,-0.0421 1.6593,-0.10517 z"
         id="path3904"
         inkscape:connector-curvature="0" />
      <path
         style="opacity:0.847;fill:#b412ab;fill-opacity:1;fill-rule:evenodd;stroke:#2446cb;stroke-width:0.10452548;stroke-miterlimit:4;stroke-dasharray:none;stroke-opacity:0;paint-order:stroke markers fill"
         d="m 257.25313,223.33038 c -7.8886,-0.11822 -20.5027,-0.37436 -24.2333,-0.49187 l -2.6619,-0.0837 v -2.40477 c 0,-1.32261 0.032,-2.40477 0.072,-2.40477 0.039,0 0.458,0.15689 0.9299,0.34862 0.4719,0.19162 0.9941,0.37331 1.1605,0.40348 0.1665,0.0301 0.4198,0.11773 0.5633,0.19432 0.5953,0.31863 3.9058,1.00372 5.018,1.03847 0.1902,0.005 0.3768,0.0527 0.4149,0.10394 0.094,0.12585 8.0317,1.44086 10.7489,1.78071 5.2244,0.65344 12.6795,1.15169 22.6453,1.51347 2.623,0.0953 2.3755,0.10517 -2.5581,0.10369 -3.0041,-9.9e-4 -8.4488,-0.0465 -12.0994,-0.10147 z"
         id="path3906"
         inkscape:connector-curvature="0" />
      <path
         style="opacity:0.847;fill:#b412ab;fill-opacity:1;fill-rule:evenodd;stroke:#2446cb;stroke-width:0.10452548;stroke-miterlimit:4;stroke-dasharray:none;stroke-opacity:0;paint-order:stroke markers fill"
         d="m 252.59483,221.99903 c 0.1,-0.0399 0.219,-0.035 0.2651,0.01 0.046,0.0461 -0.036,0.0786 -0.1815,0.0727 -0.1611,-0.007 -0.1939,-0.0394 -0.083,-0.0835 z"
         id="path3908"
         inkscape:connector-curvature="0" />
      <path
         style="opacity:0.847;fill:#b412ab;fill-opacity:1;fill-rule:evenodd;stroke:#2446cb;stroke-width:0.10452548;stroke-miterlimit:4;stroke-dasharray:none;stroke-opacity:0;paint-order:stroke markers fill"
         d="m 294.79573,223.46658 c -26.9752,-0.21378 -41.561,-0.95396 -50.4311,-2.55932 -2.534,-0.45862 -3.0766,-0.63036 -1.6999,-0.53802 6.1593,0.4131 15.9232,0.60932 30.6978,0.61686 5.8181,0.002 15.4941,0.064 21.5023,0.13571 23.2664,0.27742 33.9545,0.42808 35.8487,0.50531 l 1.9705,0.0803 v 0.95357 0.95357 l -12.6179,-0.0246 c -6.9399,-0.0123 -18.3115,-0.069 -25.2704,-0.12413 z"
         id="path3910"
         inkscape:connector-curvature="0" />
      <path
         style="opacity:0.847;fill:#b412ab;fill-opacity:1;fill-rule:evenodd;stroke:#2446cb;stroke-width:0.10452548;stroke-miterlimit:4;stroke-dasharray:none;stroke-opacity:0;paint-order:stroke markers fill"
         d="m 306.34203,223.46698 c -33.8829,-0.17192 -48.1131,-0.67509 -58.3536,-2.06376 -2.1267,-0.28838 -5.4944,-0.84902 -5.4293,-0.90382 0.02,-0.0172 0.4012,-0.0749 0.8471,-0.12906 0.6315,-0.0766 0.787,-0.0603 0.7039,0.0741 -0.084,0.13596 0.2577,0.15591 1.6093,0.0946 1.0583,-0.0483 1.5834,-0.0315 1.3702,0.0436 -0.2125,0.0749 0.7198,0.10295 2.4199,0.0729 1.6771,-0.0295 2.439,-0.007 1.9359,0.0571 -0.4563,0.0584 1.7215,0.0914 4.8397,0.0736 3.5049,-0.0197 4.6928,7.2e-4 3.1113,0.0542 -2.5532,0.0865 -1.3971,0.098 25.3741,0.25755 9.7058,0.0579 15.1419,0.10788 27.1717,0.25083 2.6999,0.032 6.9623,0.0801 9.4721,0.10664 5.0113,0.0532 10.4714,0.20418 10.9586,0.30314 0.2841,0.0576 0.3111,0.14088 0.3111,0.9594 v 0.89619 l -3.4915,-0.0246 c -1.9204,-0.0148 -12.2031,-0.069 -22.8505,-0.1229 z"
         id="path3912"
         inkscape:connector-curvature="0" />
      <path
         style="opacity:0.847;fill:#b412ab;fill-opacity:1;fill-rule:evenodd;stroke:#2446cb;stroke-width:0.14782135;stroke-miterlimit:4;stroke-dasharray:none;stroke-opacity:0;paint-order:stroke markers fill"
         d="m 389.63883,222.70566 c 0.041,-0.42611 0.1918,-0.87256 0.3358,-0.99214 0.5741,-0.47645 10.6131,-0.66252 62.6672,-1.16151 37.8978,-0.36328 41.7874,-0.41939 48.5955,-0.7009 3.7645,-0.15566 7.5705,-0.33885 8.4578,-0.4071 l 1.6133,-0.12413 v 2.08024 2.08021 h -60.8717 -60.8718 z"
         id="path3914"
         inkscape:connector-curvature="0" />
      <path
         style="opacity:0.847;fill:#b412ab;fill-opacity:1;fill-rule:evenodd;stroke:#2446cb;stroke-width:0.14782135;stroke-miterlimit:4;stroke-dasharray:none;stroke-opacity:0;paint-order:stroke markers fill"
         d="m 397.25313,225.4932 c 0.2433,-0.0468 0.5952,-0.0451 0.7822,0.005 0.1869,0.049 -0.012,0.0872 -0.4423,0.085 -0.4302,-0.002 -0.5832,-0.0421 -0.3399,-0.0889 z"
         id="path3916"
         inkscape:connector-curvature="0" />
      <path
         style="opacity:0.847;fill:#b412ab;fill-opacity:1;fill-rule:evenodd;stroke:#2446cb;stroke-width:0.14782135;stroke-miterlimit:4;stroke-dasharray:none;stroke-opacity:0;paint-order:stroke markers fill"
         d="m 389.47753,254.11739 v -30.44146 h 60.9154 c 51.2903,0 60.9155,0.0421 60.9155,0.26651 0,0.33385 -2.2286,0.36639 -70.004,1.02192 -28.1231,0.27203 -51.1441,0.5114 -51.1577,0.53197 -0.015,0.0197 -0.135,13.28138 -0.2695,29.46847 -0.1344,16.1871 -0.2795,29.46774 -0.3222,29.51257 -0.043,0.0448 -0.078,-13.61718 -0.078,-30.35998 z"
         id="path3918"
         inkscape:connector-curvature="0" />
      <path
         style="opacity:0.847;fill:#b412ab;fill-opacity:1;fill-rule:evenodd;stroke:#2446cb;stroke-width:0.14782135;stroke-miterlimit:4;stroke-dasharray:none;stroke-opacity:0;paint-order:stroke markers fill"
         d="m 363.45013,279.94699 c -0.1189,-29.33727 -0.2975,-54.30555 -0.3887,-54.3968 -0.062,-0.0623 -20.3463,-0.48763 -45.0753,-0.94495 -24.729,-0.45734 -43.5539,-0.87552 -41.833,-0.92931 1.7209,-0.0537 2.8649,-0.1527 2.5423,-0.21969 -0.3227,-0.0672 -0.1027,-0.0771 0.4888,-0.0222 0.5916,0.0552 19.9516,0.15393 43.0222,0.21994 l 41.9466,0.1197 0.1237,2.64 c 0.068,1.45199 0.134,15.11397 0.1465,30.35996 l 0.022,27.71997 h -0.4889 -0.4889 l -0.02,-4.54665 z"
         id="path3920"
         inkscape:connector-curvature="0" />
      <path
         style="opacity:0.847;fill:#b412ab;fill-opacity:1;fill-rule:evenodd;stroke:#2446cb;stroke-width:0.14782135;stroke-miterlimit:4;stroke-dasharray:none;stroke-opacity:0;paint-order:stroke markers fill"
         d="m 332.76643,222.6004 v -0.88 h 2.2023 c 3.2915,0 16.6596,0.3652 21.49,0.58711 4.1249,0.1894 7.0762,0.5743 7.4768,0.97492 0.1335,0.13349 -4.9032,0.19802 -15.4856,0.19802 h -15.6835 z"
         id="path3922"
         inkscape:connector-curvature="0" />
      <path
         style="opacity:0.847;fill:#b412ab;fill-opacity:1;fill-rule:evenodd;stroke:#2446cb;stroke-width:0.41810194;stroke-miterlimit:4;stroke-dasharray:none;stroke-opacity:0;paint-order:stroke markers fill"
         d="m 364.41173,455.8882 c -0.1035,-13.30929 -0.06,-60.66278 0.097,-105.22993 0.1569,-44.56715 0.3547,-71.1996 0.4392,-59.1832 1.0478,148.8797 1.3577,166.37896 3.1264,176.51039 1.3628,7.80601 3.4279,10.02498 8.1472,8.75419 5.5107,-1.48386 6.8035,-9.26283 9.0044,-54.17657 1.6925,-34.53796 2.9175,-82.75022 3.5627,-140.21439 l 0.4223,-37.61176 0.2214,24.33702 c 0.1217,13.38535 0.1857,26.45268 0.1418,29.03848 -0.3478,20.55627 -1.3451,68.52447 -1.8111,87.11547 -1.6699,66.62088 -2.3344,90.3872 -2.5865,92.50832 l -0.2792,2.35074 h -10.149 -10.1489 z"
         id="path3924"
         inkscape:connector-curvature="0" />
      <path
         style="opacity:0.847;fill:#e6e6e6;fill-opacity:1;fill-rule:evenodd;stroke:#2446cb;stroke-width:0.41810194;stroke-miterlimit:4;stroke-dasharray:none;stroke-opacity:0;paint-order:stroke markers fill"
         d="m 364.50013,481.46974 v -1.38278 h 10.451 10.4509 l 0.3469,-8.435 c 0.4658,-11.32959 1.8273,-61.48647 2.5485,-93.8911 0.3217,-14.45011 0.6644,-29.50864 0.7618,-33.46341 0.097,-3.95476 0.087,8.98812 -0.022,28.76194 -0.1093,19.77382 -0.1992,52.56658 -0.1995,72.87276 l -5e-4,36.92037 h -12.1685 -12.1685 z"
         id="path3926"
         inkscape:connector-curvature="0" />
      <path
         style="opacity:0.847;fill:#af11a7;fill-opacity:1;fill-rule:evenodd;stroke:#2446cb;stroke-width:0.08227792;stroke-miterlimit:4;stroke-dasharray:none;stroke-opacity:0;paint-order:stroke markers fill"
         d="m 385.88993,468.91337 c 0.2251,-4.57092 1.3501,-45.11885 2.0228,-72.90018 0.1182,-4.87905 0.2475,-10.15677 0.2875,-11.72824 l 0.073,-2.85724 h 0.3295 0.3296 l -0.072,22.7762 c -0.04,12.52692 -0.072,32.5357 -0.072,44.46393 v 21.68774 h -1.4841 -1.4841 z"
         id="path3948"
         inkscape:connector-curvature="0" />
      <path
         style="opacity:0.847;fill:#af11a7;fill-opacity:1;fill-rule:evenodd;stroke:#2446cb;stroke-width:0.08227792;stroke-miterlimit:4;stroke-dasharray:none;stroke-opacity:0;paint-order:stroke markers fill"
         d="m 385.97803,461.62587 c -0.017,-0.83323 0.8905,-34.05121 0.9972,-36.44172 0.022,-0.50887 0.022,0.54423 0,2.34022 -0.025,1.79596 -0.1389,6.71855 -0.2567,10.93909 -0.3009,10.78393 -0.6456,22.56422 -0.6849,23.40208 -0.029,0.61699 -0.036,0.58635 -0.054,-0.23964 z"
         id="path3950"
         inkscape:connector-curvature="0" />
      <path
         style="opacity:0.847;fill:#af11a7;fill-opacity:1;fill-rule:evenodd;stroke:#2446cb;stroke-width:0.08227792;stroke-miterlimit:4;stroke-dasharray:none;stroke-opacity:0;paint-order:stroke markers fill"
         d="m 364.51433,481.45797 v -1.30616 h 10.4426 10.4426 l 0.056,-0.46262 c 0.031,-0.25442 0.1084,-1.93201 0.1724,-3.728 0.064,-1.79596 0.1468,-3.79194 0.1837,-4.4355 l 0.068,-1.17011 h 1.454 1.4539 v 6.20427 6.20428 h -12.1364 -12.1364 z"
         id="path3952"
         inkscape:connector-curvature="0" />
      <path
         style="opacity:0.847;fill:#af11a7;fill-opacity:1;fill-rule:evenodd;stroke:#2446cb;stroke-width:0.08227792;stroke-miterlimit:4;stroke-dasharray:none;stroke-opacity:0;paint-order:stroke markers fill"
         d="m 511.29553,221.4364 c 0,-1.16738 0.022,-2.12253 0.048,-2.12253 0.027,0 0.994,-0.0993 2.1498,-0.22067 5.0486,-0.53035 8.1323,-1.25612 9.9112,-2.33276 l 0.6259,-0.37877 v 3.58865 3.58867 h -6.3675 -6.3676 z"
         id="path3954"
         inkscape:connector-curvature="0" />
      <path
         style="opacity:0.847;fill:#af11a7;fill-opacity:1;fill-rule:evenodd;stroke:#2446cb;stroke-width:0.08227792;stroke-miterlimit:4;stroke-dasharray:none;stroke-opacity:0;paint-order:stroke markers fill"
         d="m 523.51453,210.04343 c -0.5776,-0.35712 -2.3006,-0.92731 -3.6851,-1.21944 -3.5067,-0.73994 -8.1567,-1.18193 -16.2076,-1.54053 -2.1552,-0.0961 -4.4818,-0.21994 -5.1703,-0.27526 -0.6884,-0.0554 -12.5663,-0.15098 -26.3953,-0.21255 -25.3937,-0.11305 -33.0136,-0.19112 -32.2187,-0.33018 0.2394,-0.0419 1.9783,-0.10812 3.8641,-0.14704 4.4735,-0.0924 10.6024,-0.27277 33.7945,-0.99438 18.6654,-0.58078 19.5043,-0.59785 32.8445,-0.66819 l 13.6899,-0.0722 v 2.84802 c 0,1.56642 -0.037,2.84397 -0.082,2.83899 -0.045,-0.005 -0.2404,-0.10714 -0.4344,-0.22708 z"
         id="path3956"
         inkscape:connector-curvature="0" />
      <path
         style="opacity:0.847;fill:#3f15b8;fill-opacity:0.61568627;fill-rule:evenodd;stroke:#2446cb;stroke-width:0.08227792;stroke-miterlimit:4;stroke-dasharray:none;stroke-opacity:0;paint-order:stroke markers fill"
         d="m 511.45873,204.29098 c 5.1485,-0.16452 10.0833,-0.32577 10.9663,-0.35813 l 1.6055,-0.0589 v 0.30055 0.30055 l -5.5691,0.0722 c -3.063,0.0396 -7.9978,0.0655 -10.9663,0.0576 l -5.3972,-0.0148 z"
         id="path3958"
         inkscape:connector-curvature="0" />
      <path
         style="opacity:0.847;fill:#484040;fill-opacity:1;fill-rule:evenodd;stroke:#2446cb;stroke-width:0.66653955;stroke-miterlimit:4;stroke-dasharray:none;stroke-opacity:0;paint-order:stroke markers fill"
         d="m -187.1107,481.04178 c -12.71677,-1.65924 -28.90924,-8.03887 -41.00259,-16.15443 -11.81657,-7.92976 -24.44254,-23.50206 -28.8461,-35.57741 -2.2626,-6.20445 -3.23233,-26.5603 -1.67407,-35.1409 3.52845,-19.42942 24.15313,-41.23347 49.27822,-52.09612 11.15757,-4.82387 19.4715,-6.63714 32.82586,-7.15919 28.23257,-1.10367 55.06451,8.8856 73.72558,27.4475 14.608163,14.53047 21.560385,31.74978 20.33719,50.37125 -1.74957,26.63472 -20.20137,49.98464 -48.25545,61.06514 -15.75413,6.22245 -40.17483,9.35973 -56.38864,7.24416 z m 37.03461,-14.99698 c 20.66959,-5.0898 37.18495,-18.03882 46.1239,-36.16378 l 3.69647,-7.49508 v -14.54935 c 0,-16.5902 -0.58923,-18.7046 -7.80356,-28.00234 -11.70699,-15.08793 -24.3956,-24.21356 -38.85782,-27.94665 -13.7646,-3.553 -34.56866,-3.55776 -48.25577,-0.0146 -11.59483,3.00453 -21.97016,9.20071 -31.60042,18.87181 -18.3962,18.47423 -22.19847,38.88109 -11.34635,60.89625 4.70142,9.53755 15.43158,20.58504 25.43744,26.18973 7.67716,4.30021 20.01081,8.61434 28.21684,9.86977 8.62176,1.31896 25.62669,0.49834 34.38927,-1.65923 z"
         id="path2067"
         inkscape:connector-curvature="0" />
    </g>
    <text
       transform="scale(0.62107843,1.6101026)"
       id="text2552"
       y="255.03979"
       x="157.23859"
       style="font-style:normal;font-weight:normal;font-size:18.48466301px;line-height:1.25;font-family:sans-serif;letter-spacing:0px;word-spacing:0px;fill:#3f15b7;fill-opacity:0.87058824;stroke:none;stroke-width:0.46211663"
       xml:space="preserve"><tspan
         style="font-weight:bold;fill:#3f15b7;fill-opacity:0.87058824;stroke-width:0.46211663"
         y="255.03979"
         x="157.23859"
         id="tspan2550"
         sodipodi:role="line">S o f t w a r e   D e v e l o p m e n t</tspan></text>
  </g>
</svg>
